<svg xmlns="http://www.w3.org/2000/svg" id="Calque_2" data-name="Calque 2" viewBox="0 0 365.55 488.84"><!-- Source: https://football-logos.cc --><defs data-source="https://football-logos.cc"><clipPath id="clippath"><path d="M102.65 253.87c-.17-3.8.04-11.34.17-15.35s.2-4.49.74-5.86c.55-1.37 1.58-3.62 3.01-8.74 1.43-5.11 3.26-13.08 4.55-19.25 1.3-6.17 2.06-10.54 3.61-15.01 1.55-4.48 3.87-9.06 5.86-12.14 1.99-3.09 3.65-4.68 5.24-6.69s3.11-4.45 5.36-7.24 5.23-5.94 7.88-8.14 4.99-3.45 6.94-4.53 3.51-1.99 4.67-2.55c1.15-.56 1.9-.76 2.5-.67s1.06.47 1.87.99c.81.51 1.96 1.15 2.99 2.38 1.04 1.23 1.96 3.04 2.56 4.76s.88 3.33.73 4.85-.74 2.95-.98 4.66c-.24 1.7-.14 3.67.48 5.37s1.76 3.14 2.97 4.45c1.21 1.32 2.48 2.52 3.6 3.13 1.11.62 2.06.66 3.18.29s2.42-1.14 3.74-2.26c1.33-1.12 2.68-2.59 3.99-4.17s2.59-3.28 3.31-4.72c.72-1.45.88-2.65.86-3.63-.01-.98-.21-1.74-.42-2.29s-.47-.88-1.07-1.24c-.61-.36-1.57-.74-2.45-1.01s-1.67-.43-2.28-.48c-.61-.04-1.05.03-1.51.23s-.94.52-1.32.84c-.37.32-.64.64-.91.69s-.55-.17-.76-.82-.35-1.74-.33-2.9.21-2.4.59-3.51.95-2.11 1.53-2.71 1.17-.82 1.64-.79.81.3 1.4.44 1.42.14 2.08-.04c.65-.17 1.13-.52 1.5-.82s.65-.56 1.23-.82 1.48-.52 3.21-.49c1.74.03 4.32.37 6.63 1.07 2.32.7 4.37 1.78 5.92 3.12s2.61 2.94 3.4 4.79c.79 1.84 1.31 3.92 1.46 6.72.16 2.8-.04 6.31-.22 8.94-.19 2.63-.36 4.39-.33 5.39.02 1 .25 1.25.64 1.13.4-.12.96-.62 1.32-1.05s.51-.8.7-1.25c.2-.44.45-.96 1-1.09.56-.12 1.42.15 2.55.97 1.12.82 2.51 2.2 3.73 3.53 1.22 1.32 2.28 2.59 3 3.83s1.1 2.44 1.15 3.83c.05 1.38-.22 2.95-.71 4.25-.48 1.3-1.18 2.34-2.17 3.93s-2.28 3.72-3.25 5.32-1.61 2.66-2.18 3.78-1.07 2.31-1.61 3.33-1.13 1.87-1.98 2.66c-.85.8-1.96 1.54-3.22 2.45-1.25.91-2.65 2-3.63 2.98-.97.98-1.52 1.86-2.23 2.87s-1.59 2.16-2.64 3.08c-1.06.92-2.29 1.6-3.84 2.51-1.54.91-3.4 2.04-4.65 2.97s-1.91 1.64-2.32 2.75-.59 2.6-.5 4.11.44 3.05.84 4.14c.41 1.1.87 1.76 1.28 2.25s.76.82 1.27 1.01c.51.18 1.19.22 1.82.1s1.21-.42 1.88-.77 1.43-.76 2.24-1.1 1.69-.61 2.52-.26 1.61 1.31 2.08 2.68c.46 1.36.61 3.12.54 4.5-.07 1.39-.34 2.41-.65 3.21-.3.8-.64 1.37-.9 1.75s-.43.58-.59.39-.29-.76-.47-1.24-.39-.88-.65-1.09c-.26-.22-.55-.26-.83-.17s-.53.3-.8.38-.54.02-.81 0c-.27-.03-.52-.03-.69.09s-.25.35-.35.61c-.11.26-.25.53-.44.72-.2.19-.45.29-.73.57-.28.29-.57.76-.87 1.14-.29.38-.59.68-.86.89-.27.22-.5.35-.75.48s-.5.25-.71.27-.36-.06-.5-.3c-.14-.25-.26-.66-.31-1.13-.06-.47-.06-1-.14-1.43-.08-.42-.24-.74-.56-.92-.32-.19-.82-.25-1.65-.32-.84-.07-2.02-.15-3.04-.04s-1.89.4-2.96.83-2.35.99-3.73 1.39-2.86.64-4.43 1-3.23.84-4.9 1.3-3.35.9-4.7 1.23-2.37.55-3.07.53-1.08-.28-1.11-.73.29-1.09.63-1.51.7-.62.97-.85.45-.49.22-.7-.87-.37-2.6-.33-4.55.27-6.93.48c-2.37.21-4.3.39-6 .55-1.7.15-3.18.28-4.22.14s-1.64-.54-2.12-1.23-.85-1.68-1.1-2.42c-.25-.75-.37-1.25-.48-1.72-.11-.46-.2-.88-.4-1.06s-.51-.14-.82.16c-.32.3-.64.85-.93 1.9s-.55 2.59-.69 3.69-.15 1.79-.81 2.02c-.65.23-1.95.02-2.99-.26-1.05-.28-1.85-.62-2.81-.88s-2.09-.45-3.09-.58c-1.01-.13-1.9-.21-2.43-.37s-.7-.41-.71-.9c0-.49.15-1.23.82-2.65s1.85-3.51 3.22-5.23 2.93-3.08 4.44-4.29c1.52-1.21 3-2.27 4.71-3.48 1.7-1.2 3.62-2.54 5.13-3.73s2.6-2.22 3.66-3.69 2.09-3.39 2.65-4.6c.57-1.21.67-1.7.67-2.11s-.1-.74-.33-.85-.59 0-1.15.56-1.33 1.59-2.08 2.71a64 64 0 0 0-2.04 3.34c-.57 1-1 1.79-1.33 2.29s-.57.73-.92.36-.81-1.33-1.39-2.27c-.57-.95-1.26-1.89-1.89-2.69s-1.21-1.46-1.61-1.96-.61-.83-.84-1.03c-.22-.21-.45-.29-.71-.27s-.54.13-.78.31-.44.43-.67.63-.5.35-.76.29-.53-.32-.74-.46-.35-.16-.59-.12c-.23.04-.55.14-.78.26s-.38.27-.57.46-.42.42-.63.54a.57.57 0 0 1-.59.02c-.21-.09-.44-.27-.71-.31a.93.93 0 0 0-.79.32c-.21.24-.31.6-.43 1.02-.12.41-.27.88-.58 1.37-.31.5-.77 1.02-1.19 1.36s-.8.49-1.14.59-.64.17-.85.41c-.21.23-.35.63-.71 2.07s-.96 3.91-1.65 6.44c-.69 2.52-1.47 5.09-2.14 6.81s-1.23 2.58-1.91 3.86c-.68 1.27-1.49 2.95-2.26 4.41-.77 1.47-1.49 2.72-2.13 3.33-.64.6-1.19.55-1.36-3.25Z" style="fill:none;clip-rule:evenodd"></path></clipPath><style>.cls-1{fill-rule:evenodd}.cls-1,.cls-3{fill:#fff}.cls-5{fill:#1c1c1c}.cls-7{stroke:#1c1c1c;stroke-linecap:round;stroke-linejoin:round;fill:none;stroke-width:2px}</style></defs><g id="Calque_1-2" data-name="Calque 1" data-source="https://football-logos.cc"><path d="M355.04 218.27c-12.25-46.43-11.43-80.94 10.04-127.38C341.42 60.6 317.76 30.3 294.1 0c-36.99 39.79-72.21 38.64-111.33 0-39.12 38.64-74.34 39.79-111.33 0C47.78 30.3 24.12 60.6.46 90.89c21.46 46.44 22.28 80.95 10.04 127.38C2.33 245.08-.73 270.6.14 295.15c.15 14.49 1.71 28.54 4.53 42.18 9.79 47.47 30.45 79 73.93 103.09 8.39 4.45 18.65 8.35 32.38 11.2 35.74 7.43 63.14-6.62 71.79 37.22 8.65-43.84 36.05-29.79 71.79-37.22 13.73-2.85 23.99-6.75 32.38-11.2 43.48-24.09 64.14-55.62 73.93-103.09 2.81-13.64 4.38-27.69 4.53-42.18.87-24.55-2.19-50.07-10.36-76.88M122.61 438.86c-2.92-.33-5.82-.76-8.7-1.35-9.87-2.06-19.51-5.04-28.44-9.77-39.35-21.83-57.67-49.63-66.68-93.32A205.6 205.6 0 0 1 14.56 295v-.36c-.88-24.59 2.56-48.65 9.73-72.17l.08-.26.07-.26c10.68-40.5 11.61-72.66.36-108.39h97.81zm228.38-144.22v.18l-.01.18a205.6 205.6 0 0 1-4.23 39.42c-9.01 43.69-27.33 71.49-66.68 93.32-8.93 4.73-18.58 7.71-28.45 9.77-2.87.59-5.78 1.02-8.69 1.35v-325.3h97.81c-11.26 35.73-10.32 67.89.36 108.39l.07.26.08.26c7.17 23.52 10.61 47.58 9.74 72.17" style="fill:#ffd504"></path><path d="M122.61 113.56v325.3c-2.92-.33-5.82-.76-8.7-1.35-9.87-2.06-19.51-5.04-28.44-9.77-39.35-21.83-57.67-49.63-66.68-93.32A205.6 205.6 0 0 1 14.56 295v-.36c-.88-24.59 2.56-48.65 9.73-72.17l.08-.26.07-.26c10.68-40.5 11.61-72.66.36-108.39z" style="fill:#14844c"></path><path d="M350.99 294.64v.18l-.01.18a205.6 205.6 0 0 1-4.23 39.42c-9.01 43.69-27.33 71.49-66.68 93.32-8.93 4.73-18.58 7.71-28.45 9.77-2.87.59-5.78 1.02-8.69 1.35v-325.3h97.81c-11.26 35.73-10.32 67.89.36 108.39l.07.26.08.26c7.17 23.52 10.61 47.58 9.74 72.17" style="fill:#db212a"></path><path d="M165.58 177.74v-58.28h29.87l1 .41 46.14 45.37.39.38v4.3c-16.23-15.74-32.29-32.04-48.11-47.59h-26.43v55.47l-3.69 90.34-41.54-1.15-.93-.37.32.13v-3.72l-6.14-5.67 7.37 6.8 38.18 1.05zm-45.15 128.92 7.62 28.33 25.47 1.53 5.3-15.32.34-.54 15.73-15.83c6.43-11.3 15.39-19.2 26.71-23.95 11.3-4.75 24.92-6.35 40.65-5.04l.2.03.54.12v2.91c-.35-.07-.69-.14-1.04-.22-15.26-1.26-28.4.26-39.24 4.82-10.78 4.53-19.32 12.09-25.43 22.9l-.23.31-15.63 15.73-5.9 17.06-29.68-1.79-3.22-11.96v-11.01l-2.18-8.09Zm129.14-27.13h-.52zm-.56 0c-.16 0-.32 0-.48-.01.16 0 .32 0 .48.01m-3.14-.2c-.28-.03-.55-.06-.83-.1.28.04.56.07.83.1m-1.71-.23-.52-.09z" style="fill:#13844d"></path><path d="m242.98 165.61 22.39 21.56c5 4.25 9.66 7.6 13.82 9.64 3.96 1.95 7.42 2.7 10.24 1.89l2.73-.78-6.58 17.45c4-1.6 6.79-1.24 8.58.76 2.07 2.31 2.42 6.81 1.51 12.95l-.1.35-8.09 19.19c-.76 4.36-2.23 8.02-4.34 11.04-2.1 3-4.82 5.35-8.1 7.08-4.45 4.93-9.33 8.64-14.78 10.76-5.24 2.04-10.96 2.61-17.28 1.39v-2.91c5.98 1.25 11.36.77 16.25-1.14 5.07-1.98 9.66-5.5 13.86-10.2l.41-.32c2.98-1.54 5.43-3.62 7.3-6.3 1.88-2.7 3.19-6.03 3.88-10.04l.09-.31 8.08-19.17c.76-5.22.59-8.88-.83-10.47-1.26-1.4-3.92-1.07-8.35 1.45l-2.04-1.75 5.98-15.86c-2.92.13-6.17-.77-9.69-2.5-4.39-2.16-9.25-5.64-14.42-10.04-6.87-6.31-13.71-12.82-20.52-19.43v-4.3Z" class="cls-3"></path><path d="M102.65 253.87c-.17-3.8.04-11.34.17-15.35s.2-4.49.74-5.86c.55-1.37 1.58-3.62 3.01-8.74 1.43-5.11 3.26-13.08 4.55-19.25 1.3-6.17 2.06-10.54 3.61-15.01 1.55-4.48 3.87-9.06 5.86-12.14 1.99-3.09 3.65-4.68 5.24-6.69s3.11-4.45 5.36-7.24 5.23-5.94 7.88-8.14 4.99-3.45 6.94-4.53 3.51-1.99 4.67-2.55c1.15-.56 1.9-.76 2.5-.67s1.06.47 1.87.99c.81.51 1.96 1.15 2.99 2.38 1.04 1.23 1.96 3.04 2.56 4.76s.88 3.33.73 4.85-.74 2.95-.98 4.66c-.24 1.7-.14 3.67.48 5.37s1.76 3.14 2.97 4.45c1.21 1.32 2.48 2.52 3.6 3.13 1.11.62 2.06.66 3.18.29s2.42-1.14 3.74-2.26c1.33-1.12 2.68-2.59 3.99-4.17s2.59-3.28 3.31-4.72c.72-1.45.88-2.65.86-3.63-.01-.98-.21-1.74-.42-2.29s-.47-.88-1.07-1.24c-.61-.36-1.57-.74-2.45-1.01s-1.67-.43-2.28-.48c-.61-.04-1.05.03-1.51.23s-.94.52-1.32.84c-.37.32-.64.64-.91.69s-.55-.17-.76-.82-.35-1.74-.33-2.9.21-2.4.59-3.51.95-2.11 1.53-2.71 1.17-.82 1.64-.79.81.3 1.4.44 1.42.14 2.08-.04c.65-.17 1.13-.52 1.5-.82s.65-.56 1.23-.82 1.48-.52 3.21-.49c1.74.03 4.32.37 6.63 1.07 2.32.7 4.37 1.78 5.92 3.12s2.61 2.94 3.4 4.79c.79 1.84 1.31 3.92 1.46 6.72.16 2.8-.04 6.31-.22 8.94-.19 2.63-.36 4.39-.33 5.39.02 1 .25 1.25.64 1.13.4-.12.96-.62 1.32-1.05s.51-.8.7-1.25c.2-.44.45-.96 1-1.09.56-.12 1.42.15 2.55.97 1.12.82 2.51 2.2 3.73 3.53 1.22 1.32 2.28 2.59 3 3.83s1.1 2.44 1.15 3.83c.05 1.38-.22 2.95-.71 4.25-.48 1.3-1.18 2.34-2.17 3.93s-2.28 3.72-3.25 5.32-1.61 2.66-2.18 3.78-1.07 2.31-1.61 3.33-1.13 1.87-1.98 2.66c-.85.8-1.96 1.54-3.22 2.45-1.25.91-2.65 2-3.63 2.98-.97.98-1.52 1.86-2.23 2.87s-1.59 2.16-2.64 3.08c-1.06.92-2.29 1.6-3.84 2.51-1.54.91-3.4 2.04-4.65 2.97s-1.91 1.64-2.32 2.75-.59 2.6-.5 4.11.44 3.05.84 4.14c.41 1.1.87 1.76 1.28 2.25s.76.82 1.27 1.01c.51.18 1.19.22 1.82.1s1.21-.42 1.88-.77 1.43-.76 2.24-1.1 1.69-.61 2.52-.26 1.61 1.31 2.08 2.68c.46 1.36.61 3.12.54 4.5-.07 1.39-.34 2.41-.65 3.21-.3.8-.64 1.37-.9 1.75s-.43.58-.59.39-.29-.76-.47-1.24-.39-.88-.65-1.09c-.26-.22-.55-.26-.83-.17s-.53.3-.8.38-.54.02-.81 0c-.27-.03-.52-.03-.69.09s-.25.35-.35.61c-.11.26-.25.53-.44.72-.2.19-.45.29-.73.57-.28.29-.57.76-.87 1.14-.29.38-.59.68-.86.89-.27.22-.5.35-.75.48s-.5.25-.71.27-.36-.06-.5-.3c-.14-.25-.26-.66-.31-1.13-.06-.47-.06-1-.14-1.43-.08-.42-.24-.74-.56-.92-.32-.19-.82-.25-1.65-.32-.84-.07-2.02-.15-3.04-.04s-1.89.4-2.96.83-2.35.99-3.73 1.39-2.86.64-4.43 1-3.23.84-4.9 1.3-3.35.9-4.7 1.23-2.37.55-3.07.53-1.08-.28-1.11-.73.29-1.09.63-1.51.7-.62.97-.85.45-.49.22-.7-.87-.37-2.6-.33-4.55.27-6.93.48c-2.37.21-4.3.39-6 .55-1.7.15-3.18.28-4.22.14s-1.64-.54-2.12-1.23-.85-1.68-1.1-2.42c-.25-.75-.37-1.25-.48-1.72-.11-.46-.2-.88-.4-1.06s-.51-.14-.82.16c-.32.3-.64.85-.93 1.9s-.55 2.59-.69 3.69-.15 1.79-.81 2.02c-.65.23-1.95.02-2.99-.26-1.05-.28-1.85-.62-2.81-.88s-2.09-.45-3.09-.58c-1.01-.13-1.9-.21-2.43-.37s-.7-.41-.71-.9c0-.49.15-1.23.82-2.65s1.85-3.51 3.22-5.23 2.93-3.08 4.44-4.29c1.52-1.21 3-2.27 4.71-3.48 1.7-1.2 3.62-2.54 5.13-3.73s2.6-2.22 3.66-3.69 2.09-3.39 2.65-4.6c.57-1.21.67-1.7.67-2.11s-.1-.74-.33-.85-.59 0-1.15.56-1.33 1.59-2.08 2.71a64 64 0 0 0-2.04 3.34c-.57 1-1 1.79-1.33 2.29s-.57.73-.92.36-.81-1.33-1.39-2.27c-.57-.95-1.26-1.89-1.89-2.69s-1.21-1.46-1.61-1.96-.61-.83-.84-1.03c-.22-.21-.45-.29-.71-.27s-.54.13-.78.31-.44.43-.67.63-.5.35-.76.29-.53-.32-.74-.46-.35-.16-.59-.12c-.23.04-.55.14-.78.26s-.38.27-.57.46-.42.42-.63.54a.57.57 0 0 1-.59.02c-.21-.09-.44-.27-.71-.31a.93.93 0 0 0-.79.32c-.21.24-.31.6-.43 1.02-.12.41-.27.88-.58 1.37-.31.5-.77 1.02-1.19 1.36s-.8.49-1.14.59-.64.17-.85.41c-.21.23-.35.63-.71 2.07s-.96 3.91-1.65 6.44c-.69 2.52-1.47 5.09-2.14 6.81s-1.23 2.58-1.91 3.86c-.68 1.27-1.49 2.95-2.26 4.41-.77 1.47-1.49 2.72-2.13 3.33-.64.6-1.19.55-1.36-3.25h0Z" style="stroke:#1c1c1c;stroke-linecap:round;stroke-linejoin:round;stroke-width:.5px;fill:none"></path><path d="M102.65 253.87c-.17-3.8.04-11.34.17-15.35s.2-4.49.74-5.86c.55-1.37 1.58-3.62 3.01-8.74 1.43-5.11 3.26-13.08 4.55-19.25 1.3-6.17 2.06-10.54 3.61-15.01 1.55-4.48 3.87-9.06 5.86-12.14 1.99-3.09 3.65-4.68 5.24-6.69s3.11-4.45 5.36-7.24 5.23-5.94 7.88-8.14 4.99-3.45 6.94-4.53 3.51-1.99 4.67-2.55c1.15-.56 1.9-.76 2.5-.67s1.06.47 1.87.99c.81.51 1.96 1.15 2.99 2.38 1.04 1.23 1.96 3.04 2.56 4.76s.88 3.33.73 4.85-.74 2.95-.98 4.66c-.24 1.7-.14 3.67.48 5.37s1.76 3.14 2.97 4.45c1.21 1.32 2.48 2.52 3.6 3.13 1.11.62 2.06.66 3.18.29s2.42-1.14 3.74-2.26c1.33-1.12 2.68-2.59 3.99-4.17s2.59-3.28 3.31-4.72c.72-1.45.88-2.65.86-3.63-.01-.98-.21-1.74-.42-2.29s-.47-.88-1.07-1.24c-.61-.36-1.57-.74-2.45-1.01s-1.67-.43-2.28-.48c-.61-.04-1.05.03-1.51.23s-.94.52-1.32.84c-.37.32-.64.64-.91.69s-.55-.17-.76-.82-.35-1.74-.33-2.9.21-2.4.59-3.51.95-2.11 1.53-2.71 1.17-.82 1.64-.79.81.3 1.4.44 1.42.14 2.08-.04c.65-.17 1.13-.52 1.5-.82s.65-.56 1.23-.82 1.48-.52 3.21-.49c1.74.03 4.32.37 6.63 1.07 2.32.7 4.37 1.78 5.92 3.12s2.61 2.94 3.4 4.79c.79 1.84 1.31 3.92 1.46 6.72.16 2.8-.04 6.31-.22 8.94-.19 2.63-.36 4.39-.33 5.39.02 1 .25 1.25.64 1.13.4-.12.96-.62 1.32-1.05s.51-.8.7-1.25c.2-.44.45-.96 1-1.09.56-.12 1.42.15 2.55.97 1.12.82 2.51 2.2 3.73 3.53 1.22 1.32 2.28 2.59 3 3.83s1.1 2.44 1.15 3.83c.05 1.38-.22 2.95-.71 4.25-.48 1.3-1.18 2.34-2.17 3.93s-2.28 3.72-3.25 5.32-1.61 2.66-2.18 3.78-1.07 2.31-1.61 3.33-1.13 1.87-1.98 2.66c-.85.8-1.96 1.54-3.22 2.45-1.25.91-2.65 2-3.63 2.98-.97.98-1.52 1.86-2.23 2.87s-1.59 2.16-2.64 3.08c-1.06.92-2.29 1.6-3.84 2.51-1.54.91-3.4 2.04-4.65 2.97s-1.91 1.64-2.32 2.75-.59 2.6-.5 4.11.44 3.05.84 4.14c.41 1.1.87 1.76 1.28 2.25s.76.82 1.27 1.01c.51.18 1.19.22 1.82.1s1.21-.42 1.88-.77 1.43-.76 2.24-1.1 1.69-.61 2.52-.26 1.61 1.31 2.08 2.68c.46 1.36.61 3.12.54 4.5-.07 1.39-.34 2.41-.65 3.21-.3.8-.64 1.37-.9 1.75s-.43.58-.59.39-.29-.76-.47-1.24-.39-.88-.65-1.09c-.26-.22-.55-.26-.83-.17s-.53.3-.8.38-.54.02-.81 0c-.27-.03-.52-.03-.69.09s-.25.35-.35.61c-.11.26-.25.53-.44.72-.2.19-.45.29-.73.57-.28.29-.57.76-.87 1.14-.29.38-.59.68-.86.89-.27.22-.5.35-.75.48s-.5.25-.71.27-.36-.06-.5-.3c-.14-.25-.26-.66-.31-1.13-.06-.47-.06-1-.14-1.43-.08-.42-.24-.74-.56-.92-.32-.19-.82-.25-1.65-.32-.84-.07-2.02-.15-3.04-.04s-1.89.4-2.96.83-2.35.99-3.73 1.39-2.86.64-4.43 1-3.23.84-4.9 1.3-3.35.9-4.7 1.23-2.37.55-3.07.53-1.08-.28-1.11-.73.29-1.09.63-1.51.7-.62.97-.85.45-.49.22-.7-.87-.37-2.6-.33-4.55.27-6.93.48c-2.37.21-4.3.39-6 .55-1.7.15-3.18.28-4.22.14s-1.64-.54-2.12-1.23-.85-1.68-1.1-2.42c-.25-.75-.37-1.25-.48-1.72-.11-.46-.2-.88-.4-1.06s-.51-.14-.82.16c-.32.3-.64.85-.93 1.9s-.55 2.59-.69 3.69-.15 1.79-.81 2.02c-.65.23-1.95.02-2.99-.26-1.05-.28-1.85-.62-2.81-.88s-2.09-.45-3.09-.58c-1.01-.13-1.9-.21-2.43-.37s-.7-.41-.71-.9c0-.49.15-1.23.82-2.65s1.85-3.51 3.22-5.23 2.93-3.08 4.44-4.29c1.52-1.21 3-2.27 4.71-3.48 1.7-1.2 3.62-2.54 5.13-3.73s2.6-2.22 3.66-3.69 2.09-3.39 2.65-4.6c.57-1.21.67-1.7.67-2.11s-.1-.74-.33-.85-.59 0-1.15.56-1.33 1.59-2.08 2.71a64 64 0 0 0-2.04 3.34c-.57 1-1 1.79-1.33 2.29s-.57.73-.92.36-.81-1.33-1.39-2.27c-.57-.95-1.26-1.89-1.89-2.69s-1.21-1.46-1.61-1.96-.61-.83-.84-1.03c-.22-.21-.45-.29-.71-.27s-.54.13-.78.31-.44.43-.67.63-.5.35-.76.29-.53-.32-.74-.46-.35-.16-.59-.12c-.23.04-.55.14-.78.26s-.38.27-.57.46-.42.42-.63.54a.57.57 0 0 1-.59.02c-.21-.09-.44-.27-.71-.31a.93.93 0 0 0-.79.32c-.21.24-.31.6-.43 1.02-.12.41-.27.88-.58 1.37-.31.5-.77 1.02-1.19 1.36s-.8.49-1.14.59-.64.17-.85.41c-.21.23-.35.63-.71 2.07s-.96 3.91-1.65 6.44c-.69 2.52-1.47 5.09-2.14 6.81s-1.23 2.58-1.91 3.86c-.68 1.27-1.49 2.95-2.26 4.41-.77 1.47-1.49 2.72-2.13 3.33-.64.6-1.19.55-1.36-3.25Z" style="fill-rule:evenodd;fill:#1c1c1c"></path><g style="clip-path:url(#clippath)"><path d="M140.88 203.84c.2-.17.5-.15.67.04.17.2.15.5-.04.67-.54.47-1.08.95-1.55 1.38-.49.45-.95.89-1.34 1.32-.38.41-.71.81-.96 1.23-.25.41-.44.85-.57 1.35v.02c-.14.52-.21 1.11-.25 1.97-.04.9-.05 2.07-.05 3.7v14.059999999999999c0 .26-.21.48-.48.48s-.48-.21-.48-.48c0-4.69 0-9.37.01-14.06 0-1.65.01-2.84.05-3.74.04-.92.12-1.58.27-2.17v-.02c.16-.6.39-1.13.69-1.61.29-.48.65-.92 1.08-1.38.41-.44.89-.9 1.39-1.37.53-.48 1.04-.94 1.56-1.4ZM133.76 204.65c.18-.19.48-.2.67-.01.19.18.2.48.01.67-.65.68-1.31 1.37-1.84 1.94-.57.61-1.07 1.18-1.45 1.66-.35.44-.59.81-.75 1.44-.18.68-.28 1.67-.35 3.34-.14 3.38-.14 9.59-.14 15.8 0 .26-.21.48-.48.48s-.48-.21-.48-.48c0-6.19 0-12.37.15-15.84.07-1.75.19-2.8.38-3.54.21-.79.5-1.24.93-1.79.4-.5.92-1.09 1.5-1.72.62-.67 1.24-1.31 1.85-1.95" class="cls-3"></path><path d="M130.79 198.2c.19-.19.49-.19.68 0s.19.49 0 .67l-.05.05c-1.18 1.04-2.36 2.09-3.13 2.87-.37.37-.64.68-.84.99-.19.29-.31.59-.4.95v.02c-.09.39-.15.86-.18 1.68-.03.87-.05 2.1-.05 3.98-.01 3.32-.01 9.97-.01 16.61 0 .26-.21.48-.48.48s-.48-.21-.48-.48c0-6.18 0-12.37.02-16.62 0-1.9.02-3.15.05-4.01.04-.89.1-1.41.2-1.86v-.02c.12-.48.28-.86.53-1.25.24-.37.55-.72.96-1.14.79-.8 1.98-1.85 3.18-2.91Z" class="cls-3"></path><path d="M126.62 196.64a.475.475 0 1 1 .72.62c-.69.8-1.38 1.6-1.98 2.31-.6.73-1.13 1.41-1.49 1.96-.34.52-.55.95-.67 1.73-.13.84-.19 2.09-.22 4.23-.04 2.32-.06 5.66-.04 8.89 0 2.8.04 5.52.1 7.39.06 1.98.16 2.97.24 3.48 0 .03-.07.06-.16.09l.1.06c.63.43.77.76-.11.92h-.04c-.09.02-.28.03-.45-.17l-.1-.06a.476.476 0 0 1-.18-.65v-.03c-.09-.53-.19-1.57-.26-3.6-.06-1.87-.09-4.59-.1-7.42-.01-3.23 0-6.58.04-8.9.04-2.19.09-3.47.23-4.37.15-.95.4-1.47.81-2.1.4-.6.94-1.3 1.55-2.04.63-.76 1.31-1.55 1.99-2.33ZM116.59 205.66c0-.26.2-.48.46-.49.26 0 .48.2.49.46.08 2.25.16 4.51.25 6.53.08 1.99.18 3.74.28 5.02.16 2.04.35 2.77.6 3.71l.18.69c.35 1.42.79 3.65 1.24 5.89v.04a.474.474 0 0 1-.93.19v-.04c-.45-2.24-.9-4.48-1.23-5.85l-.17-.68c-.26-1-.46-1.76-.63-3.88-.1-1.25-.19-3.02-.28-5.06-.09-2-.17-4.27-.25-6.53ZM112.42 223.22a.473.473 0 0 1 .92-.22l2.5 10.36a.473.473 0 0 1-.92.22zM108.1 233.84c0-.26.21-.48.47-.48s.48.21.48.47l.3 16.03c.03 1.61.04 2.43.05 2.87 0 .57-.03.64-.1.74-.1.15-.22.21-.33.27-.23.12-.52.02-.64-.21a.47.47 0 0 1 .15-.6c-.02-.02-.04-.06-.04-.18 0-.42-.02-1.24-.05-2.86l-.3-16.03Zm.4 19.09s-.03.03 0 0" class="cls-3"></path></g><path d="M178.72 250.88c15.12 0 27.38 12.25 27.38 27.36s-12.26 27.36-27.38 27.36-27.38-12.25-27.38-27.36 12.26-27.36 27.38-27.36" style="stroke-width:.5px;fill:#1c1c1c;stroke:#1c1c1c;stroke-linecap:round;stroke-linejoin:round"></path><path d="m182.86 279.98-7.03-5.14c-3.28 1.82-6.55 3.63-9.83 5.45l-.66 8.66 7.55 5.42c.87.44 1.79.52 2.8-.1l6.48-3.39.69-10.89h0Z" class="cls-7"></path><path d="m182.86 279.98-7.03-5.14c-3.28 1.82-6.55 3.63-9.83 5.45l-.66 8.66 7.55 5.42c.87.44 1.79.52 2.8-.1l6.48-3.39.69-10.89Z" class="cls-1"></path><path d="m184.06 280.23-.51 10.74 6.91 4 9.06-7.01.78-7.77-8.84-5.08z" class="cls-7"></path><path d="m184.06 280.23-.51 10.74 6.91 4 9.06-7.01.78-7.77-8.84-5.08z" class="cls-1"></path><path d="M177.45 264.49c-1.88-2.22-3.76-4.45-5.64-6.67-2.16-.08-4.24.75-6.26 2.48-3.23 3.5-4.7 7.89-4.88 12.92 1.7 1.88 3.39 3.76 5.09 5.64l9.21-5.16c.83-3.07 1.65-6.14 2.47-9.21h0Z" class="cls-7"></path><path d="M177.45 264.49c-1.88-2.22-3.76-4.45-5.64-6.67-2.16-.08-4.24.75-6.26 2.48-3.23 3.5-4.7 7.89-4.88 12.92 1.7 1.88 3.39 3.76 5.09 5.64l9.21-5.16c.83-3.07 1.65-6.14 2.47-9.21Z" class="cls-1"></path><path d="M161 259.32c.65.9 1.3 1.8 1.95 2.69-2.62 3.15-3.57 7.14-4.13 11.33-1.35 1.83-2.71 3.66-4.07 5.48-.82-.05-1.24-.07-2.06-.12.62-8.08 2.91-15.07 8.3-19.38h0Z" class="cls-7"></path><path d="M161 259.32c.65.9 1.3 1.8 1.95 2.69-2.62 3.15-3.57 7.14-4.13 11.33-1.35 1.83-2.71 3.66-4.07 5.48-.82-.05-1.24-.07-2.06-.12.62-8.08 2.91-15.07 8.3-19.38Z" class="cls-1"></path><path d="M172.67 256.72c1.74 2.28 3.83 4.22 5.58 6.5 3.05-.02 6.1-.03 9.14-.05 1.66-2.36 3.32-4.73 4.99-7.09-2.55-2.78-6.92-4.2-12.91-4.4-1.25-.27-2.31.14-3.28.83-1.06 1.29-2.46 2.92-3.52 4.21" class="cls-7"></path><path d="M172.67 256.72c1.74 2.28 3.83 4.22 5.58 6.5 3.05-.02 6.1-.03 9.14-.05 1.66-2.36 3.32-4.73 4.99-7.09-2.55-2.78-6.92-4.2-12.91-4.4-1.25-.27-2.31.14-3.28.83-1.06 1.29-2.46 2.92-3.52 4.21" class="cls-1"></path><path d="m193.81 256.77-4.65 6.09c1.07 3.68 2.13 7.37 3.2 11.05 2.99 1.69 5.99 3.38 8.98 5.07 1.21-2.12 2.41-4.23 3.62-6.35-1.83-6.78-5.71-11.94-11.15-15.87h0Z" class="cls-7"></path><path d="m193.81 256.77-4.65 6.09c1.07 3.68 2.13 7.37 3.2 11.05 2.99 1.69 5.99 3.38 8.98 5.07 1.21-2.12 2.41-4.23 3.62-6.35-1.83-6.78-5.71-11.94-11.15-15.87Z" class="cls-1"></path><path d="M170.29 302.81c1.46-.44 2.92-.88 4.39-1.32-.31-1.78-.61-3.57-.92-5.35-3.31-1.7-6.34-3.82-9.13-6.3-1.84.48-3.69.97-5.53 1.45v4.13c3.31 3.06 7.02 5.55 11.2 7.39h0Z" class="cls-7"></path><path d="M170.29 302.81c1.46-.44 2.92-.88 4.39-1.32-.31-1.78-.61-3.57-.92-5.35-3.31-1.7-6.34-3.82-9.13-6.3-1.84.48-3.69.97-5.53 1.45v4.13c3.31 3.06 7.02 5.55 11.2 7.39Z" class="cls-1"></path><path d="M154.47 282.93c.94 2.96 2.18 5.65 3.69 8.1-.12.81-.25 1.61-.37 2.42-2.18-3.17-4.76-6.92-4.57-10.89.19-4.1.66-1.51 1.26.37h0Z" class="cls-7"></path><path d="M154.47 282.93c.94 2.96 2.18 5.65 3.69 8.1-.12.81-.25 1.61-.37 2.42-2.18-3.17-4.76-6.92-4.57-10.89.19-4.1.66-1.51 1.26.37Z" class="cls-1"></path><path d="M173.41 303.33c.78-.54 1.57-1.08 2.35-1.62 3.56.41 6.74.29 9.74-.09.27.6.54 1.2.81 1.79-4.35.57-8.66.58-12.9-.09h0Z" class="cls-7"></path><path d="M173.41 303.33c.78-.54 1.57-1.08 2.35-1.62 3.56.41 6.74.29 9.74-.09.27.6.54 1.2.81 1.79-4.35.57-8.66.58-12.9-.09Z" class="cls-1"></path><path d="M186.75 301.56c2.44-5.1 9.68-9.84 14.25-13.02 1.65-.24 1.62.6 1.12 1.73-2.9 4.99-7.18 9.17-13.19 12.35-.73-.35-1.45-.71-2.18-1.06" class="cls-7"></path><path d="M186.75 301.56c2.44-5.1 9.68-9.84 14.25-13.02 1.65-.24 1.62.6 1.12 1.73-2.9 4.99-7.18 9.17-13.19 12.35-.73-.35-1.45-.71-2.18-1.06" class="cls-1"></path><path d="M152.6 159.08c.19.43.57.49 1.05.26.49-.23 1.09-.75 1.69-1.42s1.18-1.48 1.46-2.12.24-1.09-.12-1.7c-.37-.61-1.07-1.38-1.56-1.94s-.77-.92-1.06-1.12-.6-.25-.91-.23-.62.12-1.26.53-1.6 1.12-3.11 2.33c-1.52 1.21-3.59 2.9-5.23 4.34-1.65 1.44-2.87 2.63-4.25 4.26-1.39 1.63-2.93 3.7-4.01 5.46s-1.69 3.22-2.49 4.77c-.8 1.56-1.8 3.22-2.53 4.39-.74 1.17-1.22 1.85-1.55 2.42s-.52 1.03-.52 1.36.18.53.77.38c.58-.16 1.56-.67 2.81-1.49s2.78-1.94 3.78-2.83 1.46-1.53 1.82-1.82.62-.21 1.12-.44c.51-.23 1.26-.76 2.63-2.52 1.36-1.75 3.34-4.72 4.92-7.2s2.77-4.48 3.52-5.79 1.08-1.94 1.4-2.42.64-.82.91-.87c.26-.06.47.17.55.45s.03.62.01 1.18-.01 1.35.18 1.77h0Z" class="cls-7"></path><path d="M152.6 159.08c.19.43.57.49 1.05.26.49-.23 1.09-.75 1.69-1.42s1.18-1.48 1.46-2.12.24-1.09-.12-1.7c-.37-.61-1.07-1.38-1.56-1.94s-.77-.92-1.06-1.12-.6-.25-.91-.23-.62.12-1.26.53-1.6 1.12-3.11 2.33c-1.52 1.21-3.59 2.9-5.23 4.34-1.65 1.44-2.87 2.63-4.25 4.26-1.39 1.63-2.93 3.7-4.01 5.46s-1.69 3.22-2.49 4.77c-.8 1.56-1.8 3.22-2.53 4.39-.74 1.17-1.22 1.85-1.55 2.42s-.52 1.03-.52 1.36.18.53.77.38c.58-.16 1.56-.67 2.81-1.49s2.78-1.94 3.78-2.83 1.46-1.53 1.82-1.82.62-.21 1.12-.44c.51-.23 1.26-.76 2.63-2.52 1.36-1.75 3.34-4.72 4.92-7.2s2.77-4.48 3.52-5.79 1.08-1.94 1.4-2.42.64-.82.91-.87c.26-.06.47.17.55.45s.03.62.01 1.18-.01 1.35.18 1.77Z" class="cls-1"></path><path d="M183.17 155.8c-.52-.2-1.29-.57-1.9-1.01s-1.05-.95-1.38-1.4-.54-.83-.82-1.05c-.29-.22-.65-.29-1.01-.31-.35-.02-.69 0-1.17.23-.48.24-1.1.7-1.53 1.05-.42.35-.65.59-.88.9s-.47.69-.28 1.09.81.81 1.87 1.3c1.05.49 2.54 1.05 3.77 1.38 1.23.34 2.2.45 3.04.61.84.17 1.54.39 2.17.56s1.19.28 1.54.53.49.63.48.85c-.02.22-.19.29-.43.35s-.54.13-.81.18-.49.08-.71.25-.45.47-.61.89-.26.97-.08 1.37.62.68.85 1.22.25 1.36.21 2.04-.14 1.22-.54 2.01-1.1 1.83-2.02 2.9c-.91 1.07-2.03 2.17-2.9 3.02-.87.84-1.5 1.43-1.98 1.95-.49.51-.84.95-.88 1.31-.05.36.21.63.56.74s.79.05 1.16-.1c.37-.16.66-.41.96-.61s.62-.35.94-.38.65.06.8.45.11 1.06.03 1.74-.21 1.36-.29 1.93-.12 1.03-.05 1.32.26.42.52.45c.27.03.62-.05.96 0 .34.06.67.24.72.86s-.19 1.69-.29 2.42-.06 1.14.14 1.33.57.17.87.02c.3-.16.54-.45.84-.76.29-.31.64-.64 1.01-.76s.75-.03.92.19.11.57.04 1.02-.17 1-.28 1.4c-.11.39-.24.63-.37.76s-.26.15-.39.33-.26.53-.05.76.76.34 1.2.25.77-.39 1.12-.88c.35-.5.72-1.19 1.02-1.97s.54-1.64.73-2.39c.19-.74.34-1.37.54-1.99s.46-1.25.78-1.57.71-.34.91.24.22 1.75.28 3.25.15 3.31.04 4.51-.41 1.77-.72 2.04-.63.22-.87.14-.41-.19-.58-.18c-.16.02-.32.16-.38.58s-.01 1.11.11 1.57.31.69.59.75c.28.07.64-.02 1.18-.23.54-.2 1.25-.52 1.73-.89s.73-.79 1.05-1c.32-.22.7-.23.97-.04s.43.57.48 1.3 0 1.79.1 2.42c.11.63.38.82.71.88s.71-.02 1.01-.19c.29-.16.5-.41.68-.72s.34-.68.49-1.13.28-.97.36-3.67.11-7.59.05-12.69-.19-10.4-.57-14.29c-.38-3.88-.99-6.35-1.62-8.11-.63-1.77-1.26-2.83-1.77-3.55s-.89-1.1-1.52-1.32-1.52-.28-2.31-.31c-.8-.03-1.51-.03-2.62-.19-1.1-.16-2.59-.47-3.55-.68-.96-.22-1.41-.34-1.77-.36-.36-.01-.64.08-.79.31s-.18.59-.21.9-.06.56.12.7c.17.15.55.19.9.26s.69.17.94.3.44.3.55.6c.11.31.15.75.19 1.11s.08.64-.02.84-.35.33-.58.37-.44 0-.68-.04-.52-.07-1.04-.27h0Zm7.15-2.03c-.12-.16-.35-.24-.52-.26s-.3.02-.37.12-.08.25-.08.4.01.28.12.4c.1.11.3.19.49.19s.37-.1.44-.27c.08-.17.05-.4-.08-.56h0Zm-2.01.33c-.13-.13-.41-.27-.64-.37s-.41-.15-.56-.12-.26.14-.33.35-.12.53-.11.78c0 .24.06.41.16.53s.24.21.42.21.42-.08.6-.18.31-.21.39-.35.12-.31.15-.45.04-.27-.09-.4h0Z" class="cls-7"></path><path d="M183.17 155.8c-.52-.2-1.29-.57-1.9-1.01s-1.05-.95-1.38-1.4-.54-.83-.82-1.05c-.29-.22-.65-.29-1.01-.31-.35-.02-.69 0-1.17.23-.48.24-1.1.7-1.53 1.05-.42.35-.65.59-.88.9s-.47.69-.28 1.09.81.81 1.87 1.3c1.05.49 2.54 1.05 3.77 1.38 1.23.34 2.2.45 3.04.61.84.17 1.54.39 2.17.56s1.19.28 1.54.53.49.63.48.85c-.02.22-.19.29-.43.35s-.54.13-.81.18-.49.08-.71.25-.45.47-.61.89-.26.97-.08 1.37.62.68.85 1.22.25 1.36.21 2.04-.14 1.22-.54 2.01-1.1 1.83-2.02 2.9c-.91 1.07-2.03 2.17-2.9 3.02-.87.84-1.5 1.43-1.98 1.95-.49.51-.84.95-.88 1.31-.05.36.21.63.56.74s.79.05 1.16-.1c.37-.16.66-.41.96-.61s.62-.35.94-.38.65.06.8.45.11 1.06.03 1.74-.21 1.36-.29 1.93-.12 1.03-.05 1.32.26.42.52.45c.27.03.62-.05.96 0 .34.06.67.24.72.86s-.19 1.69-.29 2.42-.06 1.14.14 1.33.57.17.87.02c.3-.16.54-.45.84-.76.29-.31.64-.64 1.01-.76s.75-.03.92.19.11.57.04 1.02-.17 1-.28 1.4c-.11.39-.24.63-.37.76s-.26.15-.39.33-.26.53-.05.76.76.34 1.2.25.77-.39 1.12-.88c.35-.5.72-1.19 1.02-1.97s.54-1.64.73-2.39c.19-.74.34-1.37.54-1.99s.46-1.25.78-1.57.71-.34.91.24.22 1.75.28 3.25.15 3.31.04 4.51-.41 1.77-.72 2.04-.63.22-.87.14-.41-.19-.58-.18c-.16.02-.32.16-.38.58s-.01 1.11.11 1.57.31.69.59.75c.28.07.64-.02 1.18-.23.54-.2 1.25-.52 1.73-.89s.73-.79 1.05-1c.32-.22.7-.23.97-.04s.43.57.48 1.3 0 1.79.1 2.42c.11.63.38.82.71.88s.71-.02 1.01-.19c.29-.16.5-.41.68-.72s.34-.68.49-1.13.28-.97.36-3.67.11-7.59.05-12.69-.19-10.4-.57-14.29c-.38-3.88-.99-6.35-1.62-8.11-.63-1.77-1.26-2.83-1.77-3.55s-.89-1.1-1.52-1.32-1.52-.28-2.31-.31c-.8-.03-1.51-.03-2.62-.19-1.1-.16-2.59-.47-3.55-.68-.96-.22-1.41-.34-1.77-.36-.36-.01-.64.08-.79.31s-.18.59-.21.9-.06.56.12.7c.17.15.55.19.9.26s.69.17.94.3.44.3.55.6c.11.31.15.75.19 1.11s.08.64-.02.84-.35.33-.58.37-.44 0-.68-.04-.52-.07-1.04-.27Zm7.15-2.03c-.12-.16-.35-.24-.52-.26s-.3.02-.37.12-.08.25-.08.4.01.28.12.4c.1.11.3.19.49.19s.37-.1.44-.27c.08-.17.05-.4-.08-.56Zm-2.01.33c-.13-.13-.41-.27-.64-.37s-.41-.15-.56-.12-.26.14-.33.35-.12.53-.11.78c0 .24.06.41.16.53s.24.21.42.21.42-.08.6-.18.31-.21.39-.35.12-.31.15-.45.04-.27-.09-.4Z" class="cls-1"></path><path d="M208.66 189.25c-.43-.46-1.37-1.13-2.18-1.72-.82-.59-1.51-1.11-1.96-1.68s-.65-1.2-.68-1.9.1-1.49.34-2.05.57-.9.9-1.14c.32-.25.64-.4 1.14-.32s1.2.39 1.99 1.07 1.69 1.73 2.45 2.91c.76 1.17 1.39 2.47 1.56 3.83.17 1.35-.12 2.76-.55 3.83-.43 1.06-.98 1.78-1.45 2.46s-.85 1.33-1.2 1.9-.66 1.06-1.02 1.5-.76.82-1.11 1.34c-.35.53-.64 1.2-.87 1.82-.23.63-.41 1.21-.63 1.75-.21.54-.46 1.03-.97 2s-1.3 2.43-1.96 3.28-1.2 1.1-1.58 1.07c-.38-.02-.6-.31-.62-.76s.19-1.05.56-1.86.91-1.81 1.3-2.62.64-1.41.75-2.27.09-1.98.15-2.87c.06-.88.19-1.53.44-2.12.25-.58.6-1.1 1.04-1.57s.95-.9 1.48-1.38 1.06-1.02 1.47-1.45.67-.77.9-1.11c.22-.34.4-.67.54-.96.13-.29.22-.54-.2-1h0Z" class="cls-7"></path><path d="M208.66 189.25c-.43-.46-1.37-1.13-2.18-1.72-.82-.59-1.51-1.11-1.96-1.68s-.65-1.2-.68-1.9.1-1.49.34-2.05.57-.9.9-1.14c.32-.25.64-.4 1.14-.32s1.2.39 1.99 1.07 1.69 1.73 2.45 2.91c.76 1.17 1.39 2.47 1.56 3.83.17 1.35-.12 2.76-.55 3.83-.43 1.06-.98 1.78-1.45 2.46s-.85 1.33-1.2 1.9-.66 1.06-1.02 1.5-.76.82-1.11 1.34c-.35.53-.64 1.2-.87 1.82-.23.63-.41 1.21-.63 1.75-.21.54-.46 1.03-.97 2s-1.3 2.43-1.96 3.28-1.2 1.1-1.58 1.07c-.38-.02-.6-.31-.62-.76s.19-1.05.56-1.86.91-1.81 1.3-2.62.64-1.41.75-2.27.09-1.98.15-2.87c.06-.88.19-1.53.44-2.12.25-.58.6-1.1 1.04-1.57s.95-.9 1.48-1.38 1.06-1.02 1.47-1.45.67-.77.9-1.11c.22-.34.4-.67.54-.96.13-.29.22-.54-.2-1Z" class="cls-1"></path><path d="M141.79 250.41c-.31-.13-.84-.4-1.32-.81s-.9-.97-1.22-1.48-.53-.98-.82-1.32-.67-.56-.92-.72-.38-.24-.56-.23-.4.13-.62.24-.45.22-.65.28-.36.08-.5.2-.25.35-.33.57c-.07.22-.11.42-.05.64s.2.46.35.68.29.44.41.84.21.99.24 1.44 0 .77.04 1.1.13.66.49.85c.36.18.98.22 1.68.2s1.47-.09 2.07-.16 1.01-.13 1.38-.29.69-.4.81-.73c.13-.33.06-.75-.02-.95s-.17-.2-.48-.33h0Z" class="cls-7"></path><path d="M141.79 250.41c-.31-.13-.84-.4-1.32-.81s-.9-.97-1.22-1.48-.53-.98-.82-1.32-.67-.56-.92-.72-.38-.24-.56-.23-.4.13-.62.24-.45.22-.65.28-.36.08-.5.2-.25.35-.33.57c-.07.22-.11.42-.05.64s.2.46.35.68.29.44.41.84.21.99.24 1.44 0 .77.04 1.1.13.66.49.85c.36.18.98.22 1.68.2s1.47-.09 2.07-.16 1.01-.13 1.38-.29.69-.4.81-.73c.13-.33.06-.75-.02-.95s-.17-.2-.48-.33Z" class="cls-1"></path><path d="M136.91 243.95c-.09-.28-.11-.7 0-.98.12-.28.38-.42.65-.57.27-.16.56-.33.79-.69s.4-.91.67-1.16.63-.22 1.12.11c.5.33 1.13.95 1.96 1.61s1.84 1.37 2.53 1.74 1.05.39 1.39.31.66-.27.92-.51c.25-.24.44-.54.53-.9s.09-.78.01-1.22-.24-.9-.43-1.24-.42-.55-.55-.98-.17-1.09.06-1.44.72-.39 1.2-.52.96-.34 1.59-.79c.62-.46 1.4-1.16 1.99-1.73s1-1 1.28-1.26.44-.34.55.03c.12.37.2 1.2.21 2.44 0 1.24-.06 2.9-.07 4.11 0 1.21.05 1.97.29 2.62s.66 1.2 1.02 1.64c.37.43.67.76.95 1.17.27.41.51.92.51 1.5s-.26 1.24-.54 1.69-.59.69-.85.96-.47.58-.63.88c-.15.3-.25.58-.46.85s-.53.54-1 .67c-.46.13-1.07.13-1.38-.04-.32-.17-.34-.51-.39-1.46s-.12-2.53-.28-3.53-.41-1.44-.67-1.7c-.25-.26-.51-.34-.75-.36-.25-.01-.48.04-.71.24s-.44.53-.6.94c-.17.41-.29.88-.36 1.25-.06.37-.06.62-.12.84s-.17.42-.36.58c-.2.16-.48.29-1.15.37s-1.74.12-2.42.09-.97-.11-1.2-.23a.95.95 0 0 1-.5-.57c-.1-.29-.12-.72-.18-1.17s-.14-.93-.24-1.25-.21-.49-.36-.68c-.15-.18-.35-.38-.6-.52-.25-.15-.56-.24-.9-.33s-.74-.16-1.1-.2-.69-.04-.93-.11-.4-.21-.48-.5h0Z" class="cls-7"></path><path d="M136.91 243.95c-.09-.28-.11-.7 0-.98.12-.28.38-.42.65-.57.27-.16.56-.33.79-.69s.4-.91.67-1.16.63-.22 1.12.11c.5.33 1.13.95 1.96 1.61s1.84 1.37 2.53 1.74 1.05.39 1.39.31.66-.27.92-.51c.25-.24.44-.54.53-.9s.09-.78.01-1.22-.24-.9-.43-1.24-.42-.55-.55-.98-.17-1.09.06-1.44.72-.39 1.2-.52.96-.34 1.59-.79c.62-.46 1.4-1.16 1.99-1.73s1-1 1.28-1.26.44-.34.55.03c.12.37.2 1.2.21 2.44 0 1.24-.06 2.9-.07 4.11 0 1.21.05 1.97.29 2.62s.66 1.2 1.02 1.64c.37.43.67.76.95 1.17.27.41.51.92.51 1.5s-.26 1.24-.54 1.69-.59.69-.85.96-.47.58-.63.88c-.15.3-.25.58-.46.85s-.53.54-1 .67c-.46.13-1.07.13-1.38-.04-.32-.17-.34-.51-.39-1.46s-.12-2.53-.28-3.53-.41-1.44-.67-1.7c-.25-.26-.51-.34-.75-.36-.25-.01-.48.04-.71.24s-.44.53-.6.94c-.17.41-.29.88-.36 1.25-.06.37-.06.62-.12.84s-.17.42-.36.58c-.2.16-.48.29-1.15.37s-1.74.12-2.42.09-.97-.11-1.2-.23a.95.95 0 0 1-.5-.57c-.1-.29-.12-.72-.18-1.17s-.14-.93-.24-1.25-.21-.49-.36-.68c-.15-.18-.35-.38-.6-.52-.25-.15-.56-.24-.9-.33s-.74-.16-1.1-.2-.69-.04-.93-.11-.4-.21-.48-.5Z" class="cls-1"></path><path d="M166.73 244.51c-.21-.13-.5-.33-.92-.46s-.97-.19-1.33-.07-.52.43-.83.81-.78.83-1.18 1.25-.73.81-1.04 1.07c-.3.26-.58.39-.88.46s-.62.07-.99-.05-.79-.35-1.17-.64-.71-.64-1.02-.95-.6-.59-.81-.91-.34-.68-.16-.94c.18-.25.67-.4 1.01-.46.33-.06.51-.03.83-.21.33-.18.81-.57 1.2-.87s.7-.5 1.16-.72 1.09-.45 1.57-.6c.49-.15.83-.2 1.21-.13.37.07.76.28 1.18.48.41.2.85.41 1.19.61s.59.41.86.76c.27.36.56.86.66 1.19s.01.47-.09.52c-.11.04-.24-.01-.45-.15h0Z" class="cls-7"></path><path d="M166.73 244.51c-.21-.13-.5-.33-.92-.46s-.97-.19-1.33-.07-.52.43-.83.81-.78.83-1.18 1.25-.73.81-1.04 1.07c-.3.26-.58.39-.88.46s-.62.07-.99-.05-.79-.35-1.17-.64-.71-.64-1.02-.95-.6-.59-.81-.91-.34-.68-.16-.94c.18-.25.67-.4 1.01-.46.33-.06.51-.03.83-.21.33-.18.81-.57 1.2-.87s.7-.5 1.16-.72 1.09-.45 1.57-.6c.49-.15.83-.2 1.21-.13.37.07.76.28 1.18.48.41.2.85.41 1.19.61s.59.41.86.76c.27.36.56.86.66 1.19s.01.47-.09.52c-.11.04-.24-.01-.45-.15Z" class="cls-1"></path><path d="M156.98 249.74c.24.21.82.4 1.17.73s.46.81.38 1.24c-.08.44-.36.83-.63 1.16-.26.33-.51.6-.76.88-.24.28-.48.58-.62.9s-.18.65-.07.91.37.46.72.58c.36.12.81.16 1.27.02s.93-.46 1.4-.93.95-1.08 1.41-1.62.91-1.02 1.15-1.48.28-.89-.05-1.41c-.34-.52-1.05-1.13-1.63-1.6-.57-.47-1.01-.8-1.38-.98s-.67-.2-.99-.11c-.32.08-.66.27-.91.46-.24.19-.39.37-.51.58s-.21.45.03.66h0Z" class="cls-7"></path><path d="M156.98 249.74c.24.21.82.4 1.17.73s.46.81.38 1.24c-.08.44-.36.83-.63 1.16-.26.33-.51.6-.76.88-.24.28-.48.58-.62.9s-.18.65-.07.91.37.46.72.58c.36.12.81.16 1.27.02s.93-.46 1.4-.93.95-1.08 1.41-1.62.91-1.02 1.15-1.48.28-.89-.05-1.41c-.34-.52-1.05-1.13-1.63-1.6-.57-.47-1.01-.8-1.38-.98s-.67-.2-.99-.11c-.32.08-.66.27-.91.46-.24.19-.39.37-.51.58s-.21.45.03.66Z" class="cls-1"></path><path d="M162.23 249.18c.48.23 1.35.4 1.74.64.4.23.33.52.2.93-.12.41-.3.94-.41 1.49s-.15 1.13-.08 1.48.24.46.65.42c.4-.04 1.04-.24 1.81-.85s1.68-1.64 2.15-2.33.5-1.06.23-1.52c-.27-.47-.85-1.04-1.48-1.53-.63-.5-1.3-.92-1.89-1.22-.59-.29-1.11-.46-1.58-.46s-.9.18-1.2.41-.48.52-.59.82-.15.61-.13.91.1.57.58.8h0Z" class="cls-7"></path><path d="M162.23 249.18c.48.23 1.35.4 1.74.64.4.23.33.52.2.93-.12.41-.3.94-.41 1.49s-.15 1.13-.08 1.48.24.46.65.42c.4-.04 1.04-.24 1.81-.85s1.68-1.64 2.15-2.33.5-1.06.23-1.52c-.27-.47-.85-1.04-1.48-1.53-.63-.5-1.3-.92-1.89-1.22-.59-.29-1.11-.46-1.58-.46s-.9.18-1.2.41-.48.52-.59.82-.15.61-.13.91.1.57.58.8Z" class="cls-1"></path><path d="M176.47 250.9c-.41.08-1.14.09-1.75.09s-1.09 0-1.46-.05c-.37-.04-.61-.12-.73-.42-.11-.3-.09-.81.01-1.22.11-.41.31-.72.53-.92.23-.21.48-.32.85-.36.36-.04.84 0 1.14.13.31.14.44.38.64.54.19.15.44.21.69.34s.51.33.66.5.19.32.17.48c-.01.16-.08.34-.17.5-.08.16-.18.31-.6.39h0Z" class="cls-7"></path><path d="M176.47 250.9c-.41.08-1.14.09-1.75.09s-1.09 0-1.46-.05c-.37-.04-.61-.12-.73-.42-.11-.3-.09-.81.01-1.22.11-.41.31-.72.53-.92.23-.21.48-.32.85-.36.36-.04.84 0 1.14.13.31.14.44.38.64.54.19.15.44.21.69.34s.51.33.66.5.19.32.17.48c-.01.16-.08.34-.17.5-.08.16-.18.31-.6.39Z" class="cls-1"></path><path d="M175.79 237.1c.33-.42.72-1.05 1.04-1.47.32-.43.55-.65.85-.76s.66-.11.94.08.48.56.54 1.14-.03 1.36-.13 2.23-.22 1.82.06 2.62.96 1.45 1.53 1.95 1.03.86 1.71.96 1.58-.05 2.4-.17 1.55-.2 2.12-.22.98.03 1.23.47c.26.43.36 1.25.34 1.92s-.15 1.2-.37 1.49c-.21.29-.5.34-.73.11s-.4-.74-.62-1.07-.49-.49-.81-.58c-.31-.09-.67-.13-1.05-.14-.37 0-.77 0-1.08.12-.31.11-.55.31-.79.63-.24.31-.48.74-.64 1.15s-.25.8-.33 1.34-.17 1.24-.31 1.69c-.15.44-.35.63-.58.73s-.49.12-.74-.08c-.26-.2-.51-.6-.8-1.29-.29-.68-.61-1.63-.91-2.29s-.57-1.01-.94-1.3-.83-.51-1.47-.71c-.65-.2-1.48-.39-2.53-.39s-2.31.19-3.25.2c-.94 0-1.57-.16-1.8-.71-.22-.54-.03-1.46.24-2.21s.63-1.33 1.02-1.84.82-.95 1.2-1.29c.38-.33.72-.55 1.15-.71.43-.15.94-.24 1.39-.36q.675-.18 1.17-.45c.33-.18.6-.38.94-.8h0Z" class="cls-7"></path><path d="M175.79 237.1c.33-.42.72-1.05 1.04-1.47.32-.43.55-.65.85-.76s.66-.11.94.08.48.56.54 1.14-.03 1.36-.13 2.23-.22 1.82.06 2.62.96 1.45 1.53 1.95 1.03.86 1.71.96 1.58-.05 2.4-.17 1.55-.2 2.12-.22.98.03 1.23.47c.26.43.36 1.25.34 1.92s-.15 1.2-.37 1.49c-.21.29-.5.34-.73.11s-.4-.74-.62-1.07-.49-.49-.81-.58c-.31-.09-.67-.13-1.05-.14-.37 0-.77 0-1.08.12-.31.11-.55.31-.79.63-.24.31-.48.74-.64 1.15s-.25.8-.33 1.34-.17 1.24-.31 1.69c-.15.44-.35.63-.58.73s-.49.12-.74-.08c-.26-.2-.51-.6-.8-1.29-.29-.68-.61-1.63-.91-2.29s-.57-1.01-.94-1.3-.83-.51-1.47-.71c-.65-.2-1.48-.39-2.53-.39s-2.31.19-3.25.2c-.94 0-1.57-.16-1.8-.71-.22-.54-.03-1.46.24-2.21s.63-1.33 1.02-1.84.82-.95 1.2-1.29c.38-.33.72-.55 1.15-.71.43-.15.94-.24 1.39-.36q.675-.18 1.17-.45c.33-.18.6-.38.94-.8Z" class="cls-1"></path><path d="M189.16 250.08c.21-.21.51-.64.87-1.01.36-.38.79-.7 1.17-.75.38-.04.7.19.95.52.24.33.41.74.61.98s.44.32.64-.22.36-1.7.43-2.92.04-2.51-.27-3.31-.88-1.11-1.44-1.22-1.09-.02-1.44.19-.51.56-.67 1.07-.33 1.19-.51 1.95c-.19.75-.39 1.58-.57 2.26-.18.67-.33 1.19-.36 1.61-.04.41.04.73.14.89s.24.18.45-.03h0Z" class="cls-7"></path><path d="M189.16 250.08c.21-.21.51-.64.87-1.01.36-.38.79-.7 1.17-.75.38-.04.7.19.95.52.24.33.41.74.61.98s.44.32.64-.22.36-1.7.43-2.92.04-2.51-.27-3.31-.88-1.11-1.44-1.22-1.09-.02-1.44.19-.51.56-.67 1.07-.33 1.19-.51 1.95c-.19.75-.39 1.58-.57 2.26-.18.67-.33 1.19-.36 1.61-.04.41.04.73.14.89s.24.18.45-.03Z" class="cls-1"></path><path d="M183.76 254.44c-.02-.46.3-1.41.48-2.22.18-.82.23-1.5.13-2.09-.09-.59-.33-1.1-.41-1.55s-.01-.85.21-1.09c.22-.23.58-.31.9-.33s.59 0 .8.07.36.19.56.42.45.57.62.85c.18.28.28.51.35.81s.11.69.08 1.12c-.02.42-.11.88-.28 1.28s-.43.74-.75 1.09-.71.7-1.05 1.04-.63.67-.96.85c-.32.18-.67.22-.69-.24h0Z" class="cls-7"></path><path d="M183.76 254.44c-.02-.46.3-1.41.48-2.22.18-.82.23-1.5.13-2.09-.09-.59-.33-1.1-.41-1.55s-.01-.85.21-1.09c.22-.23.58-.31.9-.33s.59 0 .8.07.36.19.56.42.45.57.62.85c.18.28.28.51.35.81s.11.69.08 1.12c-.02.42-.11.88-.28 1.28s-.43.74-.75 1.09-.71.7-1.05 1.04-.63.67-.96.85c-.32.18-.67.22-.69-.24Z" class="cls-1"></path><path d="M177.04 250.65c.08-.36-.17-.92-.5-1.29s-.74-.56-1-.72-.36-.29-.5-.38-.31-.13-.48-.15-.34-.02-.58.08-.54.3-.75.54c-.21.25-.31.54-.39.84s-.13.6-.05.86.29.47.7.59 1.02.15 1.5.18.82.07 1.2.01.79-.22.87-.58h0Z" class="cls-7"></path><path d="M177.04 250.65c.08-.36-.17-.92-.5-1.29s-.74-.56-1-.72-.36-.29-.5-.38-.31-.13-.48-.15-.34-.02-.58.08-.54.3-.75.54c-.21.25-.31.54-.39.84s-.13.6-.05.86.29.47.7.59 1.02.15 1.5.18.82.07 1.2.01.79-.22.87-.58Z" class="cls-1"></path><path d="M160.03 239.73c-.35.19-.78.06-.97-.29s-.06-.78.29-.97c2.56-1.4 4.71-3.17 6.4-5.37 1.7-2.2 2.94-4.82 3.7-7.91a.72.72 0 0 1 .86-.53c.38.09.62.48.53.86-.72 2.97-1.88 5.54-3.43 7.74 2.8-.1 4.98-1.7 6.52-4.04 1.62-2.46 2.56-5.72 2.81-8.99.06-.77.08-1.53.06-2.27 0-.39.31-.72.7-.73.39 0 .72.31.73.7a24 24 0 0 1-.77 6.66h.09c3.16-.08 5.6-1.74 7.31-4.18 1.76-2.51 2.75-5.83 2.98-9.13.05-.68.06-1.35.05-2 0-.39.3-.72.7-.73s.72.3.73.7c.02.71 0 1.42-.05 2.13-.25 3.54-1.33 7.12-3.24 9.85-1.96 2.79-4.77 4.7-8.45 4.79h-.55c-.49 1.45-1.13 2.81-1.91 4-1.82 2.75-4.42 4.61-7.81 4.68-.33 0-.65 0-.96-.02h-.03c-1.72 2.03-3.83 3.71-6.29 5.05" style="stroke-linecap:round;stroke-linejoin:round;fill:none;stroke-width:2px;stroke:#000"></path><path d="M160.03 239.73c-.35.19-.78.06-.97-.29s-.06-.78.29-.97c2.56-1.4 4.71-3.17 6.4-5.37 1.7-2.2 2.94-4.82 3.7-7.91a.72.72 0 0 1 .86-.53c.38.09.62.48.53.86-.72 2.97-1.88 5.54-3.43 7.74 2.8-.1 4.98-1.7 6.52-4.04 1.62-2.46 2.56-5.72 2.81-8.99.06-.77.08-1.53.06-2.27 0-.39.31-.72.7-.73.39 0 .72.31.73.7a24 24 0 0 1-.77 6.66h.09c3.16-.08 5.6-1.74 7.31-4.18 1.76-2.51 2.75-5.83 2.98-9.13.05-.68.06-1.35.05-2 0-.39.3-.72.7-.73s.72.3.73.7c.02.71 0 1.42-.05 2.13-.25 3.54-1.33 7.12-3.24 9.85-1.96 2.79-4.77 4.7-8.45 4.79h-.55c-.49 1.45-1.13 2.81-1.91 4-1.82 2.75-4.42 4.61-7.81 4.68-.33 0-.65 0-.96-.02h-.03c-1.72 2.03-3.83 3.71-6.29 5.05M122.61 325.75l-4.37-16.23H69.1l.66-44.47 38.68-1.33 8.03-6.37 6.14 5.67v3.72l-.32-.13-5.96-5.5-6.48 5.13-.84.31-36.43 1.26-.58 38.85h48.43l2.18 8.08z" class="cls-3"></path><path d="M51.86 66.73h10.72v6.56h-6.36v5.33h5.44v6.16h-5.44v12.47h-4.35V66.73ZM64.9 66.73h11.62v6.52h-7.27v4.85H76v6.22h-6.75v6.02h7.48v6.91H64.9zM79.12 66.73h6.44c1.27 0 2.3.37 3.08 1.12s1.43 1.82 1.94 3.23q.765 2.1 1.11 4.89c.23 1.86.34 3.83.34 5.91q0 4.89-.51 7.59c-.34 1.8-.81 3.3-1.42 4.52q-.915 1.815-1.95 2.43c-.95.56-1.81.83-2.58.83h-6.44V66.73Zm4.34 6.91v16.67h1.06c.91 0 1.55-.22 1.93-.66s.68-1.2.9-2.29.33-2.86.33-5.3c0-3.23-.24-5.45-.73-6.64s-1.29-1.79-2.41-1.79h-1.08ZM94.3 66.73h11.62v6.52h-7.27v4.85h6.75v6.22h-6.75v6.02h7.48v6.91H94.3zM108.52 97.25V66.73h7.23c1.34 0 2.36.25 3.07.75s1.28 1.43 1.71 2.78.65 3 .65 4.94c0 1.69-.17 3.15-.5 4.38s-.79 2.22-1.37 2.99c-.37.49-.88.89-1.52 1.21.52.38.89.75 1.13 1.12.16.25.39.78.69 1.6s.51 1.45.61 1.9l2.1 8.84h-4.9l-2.32-9.33c-.29-1.21-.55-1.99-.78-2.35-.31-.47-.67-.71-1.06-.71h-.38v12.39h-4.35Zm4.36-18.15h1.83c.2 0 .58-.14 1.15-.42.29-.12.52-.44.7-.96q.27-.765.27-1.77c0-.98-.14-1.74-.43-2.27s-.83-.79-1.62-.79h-1.9v6.2Z" class="cls-5"></path><path d="M132.34 92.21h-4.92l-.68 5.04h-4.43l5.27-30.52h4.73l5.27 30.52h-4.54zm-.9-6.6-1.55-10.97-1.53 10.97zM137.97 66.73h13.18v7.54h-4.42v22.98h-4.34V74.27h-4.42zM153.29 66.73h4.35v30.52h-4.35zM160.2 82.01c0-4.98.64-8.86 1.91-11.64 1.28-2.78 3.05-4.16 5.33-4.16s4.13 1.36 5.4 4.09 1.9 6.55 1.9 11.46c0 3.57-.28 6.49-.83 8.77s-1.35 4.06-2.39 5.33-2.34 1.9-3.9 1.9-2.89-.55-3.93-1.64c-1.04-1.1-1.88-2.83-2.52-5.2s-.97-5.34-.97-8.91m4.33.04c0 3.08.26 5.29.79 6.64s1.24 2.02 2.15 2.02 1.65-.66 2.16-1.98.77-3.68.77-7.1c0-2.87-.27-4.97-.8-6.3s-1.26-1.99-2.17-1.99-1.58.67-2.11 2.02-.79 3.57-.79 6.68ZM177.1 66.73h4.05l5.28 16.88V66.73h4.09v30.52h-4.09l-5.25-16.76v16.76h-4.08zM199.89 66.73h5.7l2.2 18.57 2.18-18.57h5.7v30.52h-3.55V73.98l-2.74 23.27h-3.21l-2.73-23.27v23.27h-3.55zM227.06 92.21h-4.92l-.68 5.04h-4.43l5.27-30.52h4.73l5.27 30.52h-4.54zm-.9-6.6-1.55-10.97-1.53 10.97zM233.68 66.73h4.34v23h6.77v7.51h-11.1V66.72ZM246.93 66.73h4.34v30.52h-4.34zM254.38 66.73H266v6.52h-7.27v4.85h6.75v6.22h-6.75v6.02h7.48v6.91h-11.83zM268.57 66.73h4.05l5.28 16.88V66.73h4.09v30.52h-4.09l-5.25-16.76v16.76h-4.08zM284.9 66.73h4.05l5.28 16.88V66.73h4.09v30.52h-4.09l-5.25-16.76v16.76h-4.08zM301.19 66.73h11.62v6.52h-7.27v4.85h6.75v6.22h-6.75v6.02h7.48v6.91h-11.83zM111.39 378.71h13.36v6.46h-7.93v5.25h6.78v6.07h-6.78v12.29h-5.43V378.7ZM126.99 393.77c0-4.91.79-8.73 2.39-11.47 1.59-2.74 3.81-4.1 6.65-4.1s5.16 1.34 6.73 4.03c1.58 2.69 2.36 6.45 2.36 11.29 0 3.52-.34 6.4-1.03 8.65s-1.68 4-2.98 5.25-2.92 1.88-4.86 1.88-3.6-.54-4.9-1.62c-1.29-1.08-2.34-2.79-3.14-5.13s-1.21-5.27-1.21-8.78Zm5.4.04c0 3.04.33 5.22.98 6.54.66 1.33 1.55 1.99 2.68 1.99s2.06-.65 2.7-1.95.96-3.63.96-7c0-2.83-.33-4.9-1-6.21s-1.57-1.96-2.7-1.96-1.96.66-2.62 1.99-.99 3.52-.99 6.58ZM147.34 393.77c0-4.91.8-8.73 2.39-11.47s3.81-4.1 6.65-4.1 5.16 1.34 6.73 4.03c1.58 2.69 2.36 6.45 2.36 11.29 0 3.52-.34 6.4-1.03 8.65s-1.68 4-2.98 5.25-2.92 1.88-4.86 1.88-3.61-.54-4.9-1.62-2.34-2.79-3.14-5.13-1.21-5.27-1.21-8.78Zm5.41.04c0 3.04.33 5.22.98 6.54.66 1.33 1.55 1.99 2.68 1.99s2.06-.65 2.7-1.95.96-3.63.96-7c0-2.83-.33-4.9-1-6.21s-1.57-1.96-2.7-1.96-1.96.66-2.62 1.99-.99 3.52-.99 6.58ZM167.15 378.71h16.43v7.43h-5.51v22.65h-5.41v-22.65h-5.51zM186.04 378.71h10.12c1.69 0 2.98.72 3.88 2.15.9 1.44 1.35 3.21 1.35 5.33 0 1.78-.32 3.3-.97 4.58-.43.85-1.06 1.52-1.88 2.01 1.26.52 2.18 1.41 2.77 2.68s.89 2.86.89 4.77c0 1.56-.21 2.96-.63 4.21s-1 2.23-1.73 2.95c-.45.45-1.14.78-2.05.99-1.22.27-2.02.41-2.42.41h-9.33zm5.45 11.8h2.35c.84 0 1.43-.25 1.76-.75s.5-1.22.5-2.16c0-.88-.17-1.56-.5-2.05s-.91-.74-1.72-.74h-2.39zm0 11.81h2.76c.93 0 1.59-.28 1.97-.85s.57-1.33.57-2.29c0-.89-.19-1.6-.57-2.14s-1.04-.81-1.99-.81h-2.74zM215.79 403.82h-6.14l-.85 4.96h-5.52l6.57-30.08h5.9l6.57 30.08h-5.66l-.88-4.96Zm-1.12-6.5-1.93-10.81-1.91 10.81zM224.04 378.71h5.41v22.67h8.44v7.41h-13.84v-30.08ZM240.34 378.71h5.41v22.67h8.44v7.41h-13.84v-30.08ZM166.08 338.44h8.03q2.37 0 3.84 1.11c.97.74 1.78 1.8 2.42 3.18s1.1 2.99 1.38 4.82c.29 1.83.43 3.77.43 5.83 0 3.21-.21 5.71-.64 7.48s-1.02 3.25-1.77 4.45c-.76 1.2-1.57 1.99-2.43 2.39-1.19.55-2.26.82-3.22.82h-8.03v-30.08Zm5.4 6.81v16.43h1.32c1.13 0 1.93-.21 2.41-.65.48-.43.85-1.18 1.12-2.26.27-1.07.41-2.81.41-5.22 0-3.19-.3-5.37-.91-6.54-.6-1.18-1.61-1.76-3.01-1.76h-1.35ZM185 338.44h14.48v6.42h-9.07v4.78h8.41v6.13h-8.41v5.93h9.33v6.81h-14.75v-30.08Z" class="cls-5"></path></g><!-- source: https://football-logos.cc --></svg>