<svg xmlns="http://www.w3.org/2000/svg" fill="none" viewBox="0 0 760.66 931.11"><!-- Source: https://football-logos.cc --><g clip-path="url(#a)" data-source="https://football-logos.cc"><path fill="#1A1A1A" d="M755.52 147.27c-19.55-31.44-68.93-67.9-128.88-95.15C574.35 28.34 489.16 0 380.32 0S186.3 28.34 134 52.12C74.06 79.37 24.67 115.83 5.13 147.27L0 155.52v193.89c0 20.98 0 84.83 15.69 160.4 17.97 86.56 50.74 162.81 97.42 226.64C217.7 879.47 364.09 926.07 370.27 927.99l10.06 3.12 10.06-3.12c6.18-1.91 152.57-48.52 257.16-191.54 46.67-63.82 79.45-140.07 97.42-226.64 6.5-31.33 10.31-60.65 12.54-85.73 3.15-35.42 3.15-62.39 3.15-74.68V155.51l-5.13-8.25zm-135.43 569.1C520.95 851.95 380.33 895.5 380.33 895.5s-140.62-43.55-239.76-179.13C67.7 616.73 44.58 502.84 37.31 424.09c-2.92-31.62-3.29-57.58-3.29-74.68V165.24c27.42-44.12 161.32-131.22 346.3-131.22s318.89 87.1 346.31 131.21V349.4c0 17.09-.37 43.06-3.29 74.68-7.27 78.76-30.39 192.64-103.26 292.28z"></path><path fill="#DF1F31" d="M140.56 716.36c99.14 135.58 239.76 179.13 239.76 179.13s140.62-43.55 239.76-179.13c72.87-99.64 95.99-213.53 103.26-292.28H37.3c7.27 78.76 30.39 192.64 103.26 292.28"></path><path fill="#fff" d="M726.63 165.23C699.21 121.12 565.3 34.02 380.32 34.02s-318.88 87.1-346.3 131.21V349.4c0 17.09.37 43.06 3.29 74.68h686.04c2.92-31.62 3.29-57.58 3.29-74.68V165.23z"></path><mask id="b" width="687" height="472" x="37" y="424" maskUnits="userSpaceOnUse" style="mask-type:luminance"><path fill="#fff" d="M140.56 716.36c99.14 135.58 239.76 179.13 239.76 179.13s140.62-43.55 239.76-179.13c72.87-99.64 95.99-213.53 103.26-292.28H37.3c7.27 78.76 30.39 192.64 103.26 292.28"></path></mask><g mask="url(#b)"><path fill="#fff" d="m190.83 643.83-11.71-11.71v-53.18c0-50.17-39.8-126.43-132.12-137.47 0 0 98-10.7 143.83 88.97 45.82-99.68 143.83-88.97 143.83-88.97-92.32 11.04-132.12 87.3-132.12 137.47v53.18z"></path><path fill="#fff" d="M248.2 587.18v-8.24c0-50.17 39.8-126.43 132.12-137.47 0 0-98-10.7-143.83 88.97-45.82-99.68-143.83-88.97-143.83-88.97 92.32 11.04 132.12 87.3 132.12 137.47v32.3l23.41-24.06z"></path><path fill="#fff" d="M133.46 587.18v-8.24c0-50.17-39.8-126.43-132.12-137.47 0 0 98-10.7 143.83 88.97C190.99 430.76 289 441.47 289 441.47c-92.32 11.04-132.12 87.3-132.12 137.47v32.3l-23.41-24.06zM380.33 653.65c52.931 0 95.84-42.909 95.84-95.84s-42.909-95.84-95.84-95.84-95.84 42.909-95.84 95.84 42.909 95.84 95.84 95.84"></path><path fill="#DF1F31" d="M365.83 636.08s5.05 2.1 14.49 2.1 14.49-2.1 14.49-2.1c14.49-11.16 18.71-26.38 18.71-26.38l-15.92-21.39h-34.57l-15.92 21.39s4.22 15.22 18.71 26.38zM380.32 643.39c-5.45 0-10.79-.51-15.96-1.49l-9.33 1.71a89.5 89.5 0 0 0 25.29 3.63c8.78 0 17.27-1.27 25.29-3.63l-9.33-1.71c-5.17.98-10.51 1.49-15.96 1.49M301.69 570.23s-.3 5.46 2.85 14.37 6.81 12.97 6.81 12.97c15.35 9.95 31.11 8.85 31.11 8.85l14.86-22.14-5.76-16.3-5.76-16.3-25.47-7.89s-12.94 9.05-18.63 26.43zM299.64 586.33a86.3 86.3 0 0 1-3.92-15.54l-4.73-8.23c.45 8.35 2.08 16.77 5.01 25.06a89.5 89.5 0 0 0 11.85 22.64l-1.49-9.37c-2.64-4.55-4.9-9.41-6.72-14.55zM345.6 486.18s-5.31 1.3-12.92 6.9-10.43 10.28-10.43 10.28c-5.06 17.58.56 32.34.56 32.34l25.5 7.79 13.92-10.24 13.92-10.24.15-26.66s-12.42-9.76-30.71-10.15zM329.6 488.89a86 86 0 0 1 13.74-8.26l6.5-6.91a89.2 89.2 0 0 0-22.52 12.07 89.8 89.8 0 0 0-18.22 17.91l8.53-4.15c3.59-3.85 7.58-7.42 11.97-10.66M458.96 570.23s.3 5.46-2.85 14.37-6.81 12.97-6.81 12.97c-15.35 9.95-31.11 8.85-31.11 8.85l-14.86-22.14 5.76-16.3 5.76-16.3 25.47-7.89s12.94 9.05 18.63 26.43zM461.01 586.33a86.3 86.3 0 0 0 3.92-15.54l4.73-8.23a89.5 89.5 0 0 1-5.01 25.06 89.6 89.6 0 0 1-11.85 22.64l1.49-9.37c2.64-4.55 4.9-9.41 6.72-14.55zM415.05 486.18s5.31 1.3 12.92 6.9 10.43 10.28 10.43 10.28c5.06 17.58-.56 32.34-.56 32.34l-25.5 7.79-13.92-10.24-13.92-10.24-.15-26.66s12.42-9.76 30.71-10.15zM431.05 488.89a86 86 0 0 0-13.74-8.26l-6.5-6.91a89.2 89.2 0 0 1 22.52 12.07 89.5 89.5 0 0 1 18.22 17.91l-8.53-4.15a87 87 0 0 0-11.97-10.66"></path><path fill="#fff" d="m569.82 643.83 11.71-11.71v-53.18c0-50.17 39.8-126.43 132.12-137.47 0 0-98-10.7-143.83 88.97-45.82-99.68-143.83-88.97-143.83-88.97 92.32 11.04 132.12 87.3 132.12 137.47v53.18z"></path><path fill="#fff" d="M512.45 587.18v-8.24c0-50.17-39.8-126.43-132.12-137.47 0 0 98-10.7 143.83 88.97 45.82-99.68 143.83-88.97 143.83-88.97-92.32 11.04-132.12 87.3-132.12 137.47v32.3l-23.41-24.06z"></path><path fill="#fff" d="M627.19 587.18v-8.24c0-50.17 39.8-126.43 132.12-137.47 0 0-98-10.7-143.83 88.97-45.82-99.68-143.83-88.97-143.83-88.97 92.32 11.04 132.12 87.3 132.12 137.47v32.3l23.41-24.06z"></path></g><path fill="#fff" d="M276.56 708.92v5.45h-20.07v-28.14h6.06v22.69zM288.59 686.23h6.06v28.14h-6.06zM308.58 686.23h6.02l8.72 15.89 8.68-15.89h6.06v28.14H332v-17.53l-8.68 15.89-8.72-15.89v17.53h-6.02zM357.96 691.68v5.61h14.13v5.45h-14.13v6.18h15.6v5.45h-21.67v-28.14h21.67v5.45zM403.13 714.37l-6.43-9.13h-4.46v9.13h-6.02v-28.14h12.65c6.1 0 10.61 3.93 10.61 9.5 0 4.18-2.54 7.45-6.39 8.81l6.92 9.83zm-10.89-14.66h5.98c2.99 0 5.04-1.56 5.04-3.97s-2.05-3.97-5.04-3.97h-5.98v7.95zM422.13 686.23h6.06v28.14h-6.06zM440.77 700.28c0-7.9 6.88-14.54 14.95-14.54 4.26 0 8.19 1.8 10.93 4.71l-4.38 3.93c-1.64-1.88-3.97-3.15-6.55-3.15-4.71 0-8.72 4.18-8.72 9.05s4.01 9.09 8.72 9.09c2.58 0 4.91-1.27 6.55-3.15l4.38 3.93c-2.74 2.87-6.68 4.71-10.93 4.71-8.07 0-14.95-6.68-14.95-14.58M478.65 686.23h6.02v12.9l11.39-12.9h7.33l-10.98 12.2 11.75 15.93h-7.33l-8.64-11.63-3.52 3.77v7.86h-6.02v-28.14z"></path><path fill="#DF1F31" d="M186.28 152.53H158.2v170.28h-16.13V152.53h-28.32v-14.52h72.53zM283.67 322.81h-16.94l-33.77-98.96 2.21-3.31h28.78v-68.02h-41.43V322.8h-16.13V138h60.81c3.79 0 6.89 1.22 9.28 3.66q3.6 3.66 3.6 9.45v70.14c0 8.9-5.88 13.34-17.64 13.34-1.16 0-2.86-.06-5.11-.18s-3.87-.18-4.87-.18c10.44 29.44 20.85 58.97 31.22 88.56zM368.65 322.81H309v-184.8h58.95v14.52h-42.82v68.96h38.99v14.76h-38.99v72.03h43.52v14.53M468.25 322.81h-16.01l-6.38-41.09h-36.09l-6.38 41.09h-15.55v-.47l32.38-184.81h15.9l32.15 185.28zm-24.49-55.62-15.9-100.14-16.01 100.14zM553.8 152.53h-28.08v170.28h-16.13V152.53h-28.32v-14.52h72.53zM646.9 139.07l-22.05 74.75c-2.79 7.48-6.46 19.96-11.02 37.43v71.56H597.7v-71.56c-1.08-5.98-2.75-12.28-4.99-18.89-3.71-11.34-5.73-17.52-6.03-18.54l-22.05-74.75v-1.06h16.36l24.95 92.46 24.72-92.46h16.25v1.06zM309.67 401.85q0 2.025-1.32 3.3c-.88.85-2.01 1.28-3.37 1.28h-17.86c-1.37 0-2.49-.43-3.35-1.28-.87-.85-1.3-1.95-1.3-3.3v-60h5.83v59.5h15.55v-59.5h5.83v60zM350.45 406.43h-4.02l-17.52-47.49v47.49h-5.49v-64.58h4.36l17.19 46.67v-46.67h5.49v64.58zM370.35 406.43h-5.83v-64.58h5.83zM407.15 346.93h-10.14v59.5h-5.83v-59.5h-10.23v-5.08h26.2zM438.79 406.43h-21.55v-64.58h21.3v5.08h-15.47v24.1h14.08v5.16h-14.08v25.17h15.72v5.08zM478.19 394.75q0 5.115-3.42 8.4c-2.28 2.19-5.15 3.28-8.61 3.28h-15.01v-64.58h15.01c3.49 0 6.37 1.09 8.63 3.28s3.4 4.99 3.4 8.4zm-5.83-.58v-40.15c0-2.12-.68-3.83-2.03-5.14-1.36-1.31-3.11-1.96-5.26-1.96h-8.09v54.43h7.75c2.26 0 4.1-.64 5.51-1.92s2.12-3.03 2.12-5.26"></path><path fill="#fff" d="M337.6 747.92v7.22h12.12v3.46H337.6v7.7h13.42v3.46h-16.81v-25.32h16.81v3.46H337.6zM354.01 766.12l2.03-2.76c2.03 2.14 4.43 3.54 7.52 3.54s4.79-1.84 4.79-3.87c0-2.4-1.9-3.32-5.73-4.28-4.66-1.22-7.76-2.76-7.76-7.33 0-4.24 3.33-7.44 7.92-7.44 3.53 0 6.16 1.44 8.36 3.57l-1.93 2.8c-1.93-1.95-4.23-3.1-6.56-3.1-2.56 0-4.36 1.81-4.36 3.83 0 2.36 1.96 3.17 5.73 4.16 4.56 1.18 7.72 2.87 7.72 7.41 0 4.27-2.93 7.52-8.32 7.52-3.83 0-6.99-1.47-9.42-4.05zM382.24 747.92h-7.49v-3.46h18.38v3.46h-7.52v21.85h-3.36v-21.85zM397.35 744.46h7.89c7.39 0 12.65 5.23 12.65 12.64s-5.26 12.68-12.65 12.68h-7.89zm8.09 21.93c5.29 0 8.99-3.83 8.99-9.29s-3.7-9.25-8.99-9.25h-4.73v18.54zM422.05 767.71c0-1.25.97-2.4 2.23-2.4 1.2 0 2.16 1.14 2.16 2.4 0 1.36-.97 2.51-2.16 2.51-1.27 0-2.23-1.14-2.23-2.51M292.68 824.28l17.8-14.91c6.5-5.52 8.97-9.75 8.97-14.19 0-5.38-4.38-8.53-9.18-8.53-5.3 0-9.18 2.87-12.58 7.31l-4.8-4.3c4.24-5.95 9.96-9.53 17.66-9.53 9.04 0 16.25 5.95 16.25 14.91 0 6.59-3.11 11.83-11.44 18.71l-11.37 9.75h23.24v6.74h-34.55v-5.96M335.28 805.57c0-14.91 8.55-25.44 20.77-25.44s20.7 10.54 20.7 25.44-8.62 25.51-20.7 25.51-20.77-10.54-20.77-25.51m34.12 0c0-11.04-5.51-18.78-13.35-18.78s-13.49 7.74-13.49 18.78 5.58 18.85 13.49 18.85 13.35-7.81 13.35-18.85M383.89 824.28l17.8-14.91c6.5-5.52 8.97-9.75 8.97-14.19 0-5.38-4.38-8.53-9.18-8.53-5.3 0-9.18 2.87-12.58 7.31l-4.8-4.3c4.24-5.95 9.96-9.53 17.66-9.53 9.04 0 16.25 5.95 16.25 14.91 0 6.59-3.11 11.83-11.45 18.71l-11.37 9.75h23.24v6.74h-34.55v-5.95zM426.5 805.57c0-14.91 8.55-25.44 20.77-25.44s20.7 10.54 20.7 25.44-8.62 25.51-20.7 25.51-20.77-10.54-20.77-25.51m34.12 0c0-11.04-5.51-18.78-13.35-18.78s-13.49 7.74-13.49 18.78 5.58 18.85 13.49 18.85 13.35-7.81 13.35-18.85"></path></g><defs data-source="https://football-logos.cc"><clipPath id="a"><path fill="#fff" d="M0 0h760.65v931.1H0z"></path></clipPath></defs><!-- source: https://football-logos.cc --></svg>