<svg xmlns="http://www.w3.org/2000/svg" viewBox="15.15 38.97 1154.54 1937.11"><!-- Source: https://football-logos.cc --><path fill="#020202" fill-rule="evenodd" d="M562.88 42.18a1.391 1.381 85.363 0 1 1.19-1.41q8.92-1.24 19.18-1.72c9.43-.45 21.33.72 25.98 9.95q3.85 7.64.57 15.56-.53 1.28-2.82 5.71c-.95 1.82.35 3.51 1.97 4.72 3.04 2.27 4.91 3.97 5.61 7.49q.92 4.68.61 10.03c-.67 11.39-9.53 15.87-19.62 17.01q-11.5 1.29-22.29 1.41-3.53.04-5.7-.48a2.554 2.542-88.947 0 1-1.9-1.98q-1.08-5.46-1.31-11.74-.39-11.05-.56-28.83-.04-4.3-.21-6.81c-.28-4.05-1.02-8.82-.77-12.9q.15-2.46.07-6.01m15.97 10.73.263 13.697a1.63 1.63 44.231 0 0 1.661 1.599l6.759-.13a7.09 5.12-1.1 0 0 6.99-5.255l-.129-6.719a7.09 5.12-1.1 0 0-7.187-4.983l-6.759.13a1.63 1.63-79.28 0 0-1.598 1.661m.333 28.563-.026 14.82a.84.84 75.24 0 0 .839.842l11.78.02a6.8 4 .1 0 0 6.807-3.988l.014-8.5a6.8 4 .1 0 0-6.793-4.012l-11.78-.02a.84.84 22.181 0 0-.841.838M549.59 40.69a.72.72 80.238 0 1 .73.71l.28 11.64a1.152 1.144 87.651 0 1-1.07 1.17l-15.21.97a1.314 1.309-5.022 0 0-1.22 1.45l6.04 55.44a1.31 1.31-69.382 0 1-1.16 1.44l-12.87 1.4a1.409 1.408-6.273 0 1-1.56-1.25l-5.96-54.68a2.024 2.021 80.272 0 0-2.47-1.75q-5.67 1.35-12.4 2.16c-2.07.26-3.59-.09-4.55-2.1q-1.45-3.04-1.9-7.52a1.478 1.446 61.572 0 1 .3-1.05q1.14-1.44 3.2-1.75 23.88-3.55 49.36-6.33.06-.01.24.02.16.03.22.03M681.66 116.83q-6.79-.09-13.25-.98-2.53-.35-2.83-2.19-.14-.86-2.31-12.4-.48-2.54-3.27-2.58-5.13-.06-19.98-2.07-2.77-.37-3.68 2.56-1.61 5.14-4.72 10.88a2.63 2.626-72.383 0 1-2.62 1.36l-9.97-1.19a1.666 1.659-80.687 0 1-1.43-2q.55-2.62.91-3.45c4.01-9.22 7.22-17.53 11.63-26.53q6.76-13.8 11.33-23.74c1.43-3.11 2.91-5.3 4.09-8.12 1.35-3.23 3.17-4.08 6.72-4.02q7.01.1 11.91.93a3.009 3.007-2.068 0 1 2.42 2.25q6.22 25.38 14.88 64.96.52 2.35.74 5.72a.573.563 88.582 0 1-.57.61m-28.02-55.16q-2.59 4.2-4.13 9.97a2.814 2.233 72.123 0 1-.15.4l-5.84 12.25a.303.302-76.258 0 0 .26.43l15.33.78a.836.835-5.476 0 0 .85-1.03q-1.74-7.29-2.9-13.37c-.67-3.55-1.57-5.73-2.83-9.36a.331.326 51.352 0 0-.59-.07M703.54 51.05a.87.868-78.932 0 1 .89-.6q6.4.42 11.75 2.14c2.41.77 1.61 2.68 1.13 4.97q-3.55 17.1-11.02 48.46-.17.71-.33 2.1a1.518 1.505 9.439 0 0 1.19 1.65q7.58 1.59 13.71 3.22c2.67.71 4.65.95 7.02 2.66a1.87 1.86-59.718 0 1 .6 2.31q-1.91 4.11-2.39 8.76a.995.995-46.817 0 1-1.09.89q-3.34-.34-6.8-1.31-9.85-2.77-18.92-4.35-5.12-.89-9.58-2.93a1.95 1.935 13.81 0 1-1.13-1.85q.14-3.5 1.04-8.1 3.89-19.9 10.77-47.19 1.35-5.34 3.16-10.83M497.454 86.006c2.841 18.775-2.553 34.485-22.198 40.04q-10.126 2.864-19.026 1.784c-12.59-1.51-20.91-14.18-23.93-25.6q-.474-1.793-1.206-6.628c-2.84-18.775 2.554-34.485 22.2-40.04q10.126-2.864 19.026-1.784c12.59 1.51 20.91 14.18 23.929 25.601q.475 1.792 1.205 6.627m-49.913 9.219q1.784 8.692 7.662 15.11c7.217 7.885 21.237 3.385 25.312-5.517 3.077-6.728 1.685-11.914.272-18.799q-1.786-8.691-7.663-15.109c-7.218-7.885-21.238-3.385-25.313 5.517-3.077 6.728-1.685 11.914-.27 18.798M751.35 122.51c9.11 2.75 14.64 4.05 19.22 6.71a1.343 1.34-68.262 0 1 .63 1.47l-2.13 9.28a.662.653 7.732 0 1-.68.51q-3.62-.18-4.79-.55-10.22-3.29-18.71-5.56c-4.17-1.11-7.61-2.77-12-4.57a.915.905 12.088 0 1-.57-.87q.1-3.36 1.34-7.55 9.5-32.06 18.79-57.43.85-2.34 3.27-1.34 4.29 1.77 10.42 4.21a1.485 1.481-70.378 0 1 .86 1.82l-16.46 52.35a1.215 1.212-73.121 0 0 .81 1.52M393.26 152.32c-7.22 1.04-13.77.45-19.52-4.05-16.54-12.94-26.63-44.28-8.16-60.69 8.6-7.65 22.52-11.94 34.01-9.23 6.85 1.62 13.45 7.55 16.99 13.32q5.21 8.47 8.01 20.2 4.74 19.85-10.73 32.22c-6.06 4.85-12.98 7.12-20.6 8.23m1.64-13.41c6.39-2.82 13.15-6.17 14.19-12.97 1.38-9.03-2.06-18.2-7.24-25.92q-4.24-6.32-10.84-7.73c-7.68-1.64-16.41 3.3-18.88 10.63-3.13 9.3 3.81 23.99 9.5 30.89q4.25 5.16 11.71 5.4a3.563 3.462 33.293 0 0 1.56-.3M827.61 122.85a.801.798 25.065 0 0 .38 1.04l18.43 9.12a.901.895-64.927 0 1 .42 1.17l-4.56 10.49a.816.811-65.252 0 1-1.1.41l-19.18-9.5a1.176 1.167-63.762 0 0-1.57.54l-10.9 22.01a1.728 1.726-65.066 0 1-2.24.82l-11.1-4.82a.529.528 15.651 0 1-.31-.55q.33-2.66.77-3.65 7.63-16.8 18.71-39.98 3.15-6.58 4.65-9.16 3.18-5.46 4.64-9.05a2.158 2.154-67.975 0 1 2.8-1.19q16.58 6.67 33.08 16.03a1.927 1.924-58.938 0 1 .67 2.71l-5.6 8.82a.541.539 29.516 0 1-.69.19l-19.76-9.78a1.144 1.142-65.027 0 0-1.56.57zM300.77 122.9a1.78 1.778-32.86 0 1 .55-2.55q8.41-4.97 23.07-12.93 5.19-2.82 9.51-4.57a2.034 2.032 66.934 0 1 2.63 1.06l3.39 7.66a1.546 1.531 54.182 0 1-.26 1.66q-1.76 1.96-5.7 4.26-1.74 1.02-11.91 6.29c-2.15 1.12-2.03 2.65-.84 4.57q2.32 3.73 4.97 9.15.58 1.18 2.16 2a.991.986-47.191 0 0 .98-.04c1.46-.9 4.05-2.87 6.24-3.9q5.47-2.56 10.83-5.4c1.6-.85 3.35-.63 4.34 1.08 1.19 2.08 3.43 6.36 2.32 8.47-1.84 3.5-9.77 6.84-15.23 9.32q-3.1 1.42-1.41 4.67 4.03 7.77 10.06 19.85c1.22 2.43.38 3.14-1.77 4.16q-3.66 1.73-8.4 4.54a2.472 2.469 60.558 0 1-3.44-.96q-3.98-7.49-22.75-40.37-.62-1.09-3.48-6.34c-2.13-3.91-3.45-8.22-5.86-11.68M875.45 145.35a2.247 2.245 30.23 0 0 .84 3.18q7.86 4.17 11.92 7.04 1.89 1.33 3.9 4.06a2.088 2.073 43.014 0 1 .09 2.35l-3.11 4.89a2.666 2.656-67.292 0 1-2.84 1.17q-2.89-.67-6.46-2.82c-5.57-3.35-8.43-4.63-10.91-7.37a1.645 1.642 31.149 0 0-2.81.69q-1.33 5.15-4.86 9.05-1.23 1.36-1.8 4.97a1.039 1.027 21.793 0 0 .44 1.01c5.98 4.16 12.58 7.45 18.15 11.15q1.51 1 1.85 2.86a1.443 1.427 59.246 0 1-.28 1.13q-2.95 3.73-4.42 7.96a1.185 1.177 25.893 0 1-1.75.6l-33.94-21.54a1.049 1.035 30.775 0 1-.36-1.38q3.59-6.59 5.68-10.06 14.88-24.7 27.8-44.43 1.45-2.22 3.36-3.43a1.08 1.057-46.532 0 1 1.07-.04q16.43 8.63 31.15 19.42 1.6 1.17 3.13 3.01a.589.588 49.237 0 1-.06.82q-.26.22-.98.75c-1.31.97-2.62 3.42-4.44 6.11a1.45 1.446-59.622 0 1-1.83.48q-9.17-4.52-20.08-11.96a1.551 1.549-56.609 0 0-2.18.45zM923.848 150.973a4.37 4.37-14.999 0 1 6.148-.625l17.165 14a32.82 32.37 39.2 0 1 4.975 45.828l-4.007 4.913a32.82 32.37 39.2 0 1-45.892 4.342l-17.165-14a4.37 4.37-17.03 0 1-.625-6.148zm6.882 16.167c-.85.82-1.19 2.15-2.17 3.36q-12.94 16.05-24.47 29.56c-2.23 2.6-.36 3.63 1.59 5.69q6.05 6.4 15.39 7.1a3.144 3.059 37.654 0 0 1.13-.13q7.96-2.51 12.37-6.9 5.25-5.22 9.27-14.63.92-2.15.47-6.39c-.65-6.15-8.2-13.93-12.75-17.7a.627.622-47.54 0 0-.83.04" data-source="https://football-logos.cc"></path><path fill="#020202" fill-rule="evenodd" d="M1039.516 556.962a448.3 448.15-5.5 0 1-403.283 489.055 448.3 448.15-5.5 0 1-489.189-403.119 448.3 448.15-5.5 0 1 403.283-489.055 448.3 448.15-5.5 0 1 489.189 403.119M502.79 177.92q-.22-.05-1.47.18-13.44 2.53-21.42 4.83-17.44 5.02-35.63 11.49-18.12 6.43-34.56 14.29-27.19 13-51.91 28.62-6.74 4.26-15.64 10.88-2.26 1.69-15.31 11.39-7.51 5.58-25.75 22c-5.42 4.88-11.07 9.73-15.72 14.62-10.2 10.71-19.7 22.13-29.33 33.52-7.67 9.08-14 18.32-20.89 27.66q-1.86 2.52-2.88 5.59a.721.716-1.994 0 0 .96.89c16.97-7.13 35.95-15.12 53.84-21.96q21.89-8.36 24.38-9.46 6.55-2.92 9.97-5.28c4.75-3.29 10.44-8.8 15.52-12.79 17-13.34 34.39-26.63 52.51-37.65 6.9-4.2 14.55-9.73 21.67-13.36q12.25-6.25 25.91-13.1 4.98-2.5 6.3-4.57 12.28-19.33 28.09-36.87 5.05-5.61 10.56-10.76c9.34-8.72 13.52-12.77 21.2-18.23a1.08 1.078 33.351 0 0-.4-1.93m284.01 92.09c6.83 5.39 16.3 10.98 21.17 14.23q6.9 4.61 13.91 8.99 1.08 1.11 2.3 1.8a4.062 4-6.782 0 1 .8.62c1.46 1.47 2.88 3.02 4.91 4.67q22.03 17.9 31.81 26.75 3 2.71 17.22 16.63c2.26 2.21 4.8 4.13 7.33 4.8 4.82 1.26 10.33 2.65 15.32 4.54q21.18 7.99 41.69 17.72 11.36 5.4 22.22 12.61a.82.819 5.396 0 0 1.21-1l-1.88-4.43a.427.322-82.027 0 0-.05-.09q-5.01-7.85-9.14-15.23c-1.37-2.45-3.44-4.73-4.81-6.93q-5.5-8.8-12.45-17.55c-13.45-16.95-27.77-33.61-43.85-49.04q-15.68-15.04-20.36-19.25-6.52-5.88-17.84-13.91-3.44-3.1-7.54-5.07a6.907 6.746 75.932 0 1-1.17-.72q-9.94-7.58-20.31-14.57c-1.93-1.3-4.04-2.09-6.16-2.97q-5.6-3.81-11.41-7.03-8.32-4.63-11.68-6.56-13.62-7.8-28.5-14.06-18.92-7.97-38.26-15.06-5.38-1.97-9.16-3.06c-7.27-2.09-11.31-3.77-17.63-4.98q-4.26-.82-8.44-2.18c-3.35-1.09-6.28-1.2-10.28-1.79a1.012 1.009.668 0 0-1.15 1.12q.18 1.48 1.67 2.27 9.26 4.92 15.47 12.53 9.48 11.61 15.18 18.96 7.74 9.95 18.61 30.2 1.73 3.21 3.42 5.54a4.739 4.715 87.13 0 0 1.43 1.3q2.18 1.29 3.74 1.8c12.68 4.21 20.22 8.29 35.94 15.81q2.99 1.43 6.72 2.59M595.17 428.19a1.745 1.744 70.49 0 0 .81-1.7l-.53-4.07a.7.7 86.428 0 1 0-.16c.58-5.94 1.47-11.39 1.56-17.62q.45-33.14-.15-69.9-.03-1.41-1.51-14.67-.34-3.06-1.26-4.33-1.42-1.95-3.57-3.09c-20.26-10.69-39.41-20.54-59.84-29.25q-21.26-9.06-25.53-10.57c-21.3-7.55-36.42-13.02-56.29-17.42-1.38-.31-2.71-1.01-3.95-1.04a1.649 1.643 24.827 0 0-1.15.42q-1.7 1.5-3.16 2.31-13.27 7.4-20.52 10.91-6.48 3.15-15.16 8.75-7.25 4.68-18.5 10.86c-1.7.93-3.67 2.44-4.87 3.44q-3.76 3.14-10.17 7.54c-8.61 5.91-15.68 11.84-22.73 16.66-8.34 5.7-16.06 12.54-21.6 18.29q-2.41 2.49-4.1 6.12c-6.77 14.52-10.49 27.89-14.37 45.27-3.7 16.62-4.19 31.68-3.71 49.08q.19 7.23 1.41 13.41.09.48 2.22 13.34 1.53 9.28 4.43 17.81c2.03 5.99 6.36 8.14 12.78 11.87q7.71 4.47 12.68 6.68 29.28 13.03 58.42 21.97 20.99 6.44 33.18 8.41 7.88 1.27 14.41 2.13c3.89.51 6.72-1.15 9.11-4.07 2.1-2.56 4.18-4.63 6.52-6.79q7.58-6.97 29.86-25.38 9.21-7.6 33.28-24.76c5.82-4.15 12.89-8.29 19.07-12.66q4.83-3.42 16.96-10 12.94-7.02 29.08-14.92 2.79-1.36 3.42-1.59 3.28-1.17 3.47-1.28m27.27 10.25 34.08 22.99q3.3 2.95 7.43 6.38 3.6 2.98 7.15 5.25 4.91 3.13 7.29 5.07 32.48 26.6 65.06 55.44c2.9 2.56 5.8 2.13 9.09.13 4.61-1.23 10.07-1.59 13.93-2.33q27.7-5.33 57.95-12.46 7.43-1.75 12.79-6.92.28.59 1.31.42 1.23-.19 1.47.47a2.526 1.992-9.528 0 0 2.39 1.31c3.77-.2 7.92-1.32 11.42-2.7q9.36-3.69 18.47-6.75c6.38-2.14 9.88-3.99 11.16-10.51q2.28-11.56 3.09-15.73.88-4.5-.68-8.53 2.87-4.21 3.04-9.35.32-9.16-.03-23.51c-.14-5.42.52-9.62.06-14.61a1.042 1.04 70.928 0 0-1.6-.78l-3.68 2.38q-.77-2.27 3.25-3.6a1.542 1.541 78.04 0 0 1.04-1.6q-.9-9.71-1.72-19.13-1.46-16.96-6.01-38.14c-1.28-5.93-4.55-9.43-9.16-14.09q-14.03-14.18-24.46-23.17-13.64-11.76-24.44-19.04-2.78-1.88-5.54-3.05a1.448 1.346 73.65 0 1-.37-.22l-2.82-2.18c-6.36-5.03-15.31-10.11-20.07-13.23-5.36-3.51-9.84-7.03-16.4-9.09q-4.35-2.52-8.62-5.35c-5.2-3.44-10.54-4.52-16.1-7.54q-3.92-2.12-10.95-4.93-5.23-2.09-10.5-1.41-10 1.3-20.91 4.5-37.27 10.94-70.08 28.66c-5.94 3.2-12.15 6.41-17.44 10.06q-.45.31-15.62 9.91-2.27 1.44-2.53 3.27-.63 4.41-.52 13.52c.14 11.35-.03 21.49 1.2 33.78q.85 8.61.44 19.29c-.1 2.35-.59 4.41-.84 6.67q-.55 4.95-.64 23.51c-.03 4.7-.46 10.08-.49 14.99q-.03 3.75 3.19 5.01 8.39 3.29 15.92 6.94m-355.86 319.4q.9 4.26 2.51 7.3 3.35 6.29 6.7 12.55 1.56 2.89 7 7.51 12.97 7.94 26.5 13.88c7.74 3.41 20.9 9.13 31.64 12.2q6.3 1.8 16.14 4.5a7.836 7.71 53.232 0 0 1.83.28c6.87.19 12.62 2.02 19.08 2.36q6.32.33 19.52.25 14.24-.08 23.63-1.79a2.967 2.801-62.588 0 0 .86-.3q1.84-.96 2.89-2.2 8.86-10.44 22.42-26.44c12.61-14.88 25.42-31.53 37.84-47.55q5.05-6.53 10.59-14.93 2.32-3.51-.02-7.33c-3.66-6-7.78-11.05-10.71-16.89q-7.72-15.41-11.14-22.28-2.13-4.3-5.9-14.4-3.56-9.54-8.01-18.67l-9.31-42.49q.24-3.05-.17-5.14c-3.35-16.88-4.12-33.39-5.52-50.26q-.38-4.58 1.03-9.08a1.01 1.01 13.085 0 0-.81-1.3q-29.05-4.33-58.08-12.88-8.37-2.47-19.6-6.93-18.25-7.26-19.34-7.72-14.81-6.32-32.52-16.22-2.14-1.2-4.26-1.59a4.656 4.644-59.42 0 0-3.79.98c-2 1.65-3.82 3.78-5.76 5.31q-4.68 3.67-12.71 10.54-1.07.92-6.32 7.18-3.44 4.11-6.38 7.13-10.17 10.45-15.42 17.33-15.17 19.92-30.48 44.39c-3.41 5.45-5.86 10.98-8.78 15.49-2.36 3.64-2.85 6.62-2.4 10.87q1.55 14.64 5.82 29.94 2.79 9.98 4.67 17.83 1.48 6.16 5.25 17.7c4.32 13.23 10.2 30.63 16.22 45.47 4.32 10.68 6.91 17.82 11.06 26.5q2.22 4.64 4.23 8.9m547.89-227.7-4.68.6a1.036.554 16.845 0 0-.15.03q-2.33.81-4.99 1.06-1.52.14-4.89.98c-12.75 3.18-30.14 6.21-38.2 7.75q-4.16.79-9.58.86-3.83.05-4.54 3.78c-1.02 5.34-1.44 10.69-2.69 16.06-1.97 8.47-3.01 16.04-5.58 25.86-1.18 4.5-1.48 9.96-2.38 14.98q-.66 1.79-1.02 3.96a6.313 5.938 61.683 0 1-.32 1.2q-4.26 11.72-8.11 25.68-4.91 17.82-7.43 24.79-8.29 22.97-16.32 40.46c-3.01 6.57-6.8 12.89-10.59 18.66a2.131 2.128 36.721 0 0 .41 2.8c6.2 5.21 11.5 8.93 16.31 13.88 9.24 9.49 18.05 20.21 25.59 31.68 9.87 15.04 20.8 33.24 26.46 52.23 2.34 7.85 3.49 18.31 5.19 25.15a2.002 1.991 82.315 0 0 1.97 1.51q3.64-.09 7.57-.64 19.95-2.8 28.04-3.92 17.28-2.39 27.01-4.68 17.03-4.01 26.64-6.47 5.23-1.34 15.87-5.1 18.05-6.39 32.45-15.03 10.87-6.53 16.74-14.5 7.27-9.88 10.07-14.95 19.52-35.24 29.19-74.81 1.84-7.49 3.09-15.54 2.32-14.8 2.51-15.68c1.23-5.5 1.27-12.59 1.53-17.78.1-2.06.56-3.56.89-5.29a9.481 9.407 49.54 0 0 .16-2.12q-.23-4.93-2.78-11.03-12.46-29.74-25.37-50.83-13.68-22.33-21.34-32.42-8.95-11.78-10.22-13.29-10.61-12.69-25.04-28.96c-2.14-2.42-5.13-1.98-7.44-1.06q-14.55 5.78-27.47 9.65-5.66 1.69-9.71 3.22c-4.77 1.8-10.55 3.17-16.04 3.08a1.722 1.711 20.945 0 0-1.31.58q-.7.8-1.6.55a.074.072 6.418 0 0-.09.07q.01.12.23.15a.062.061-50.495 0 1 .01.12zM211.04 801.73q8.38 17.41 18.93 33.39 1.49 4.36 3.79 7.38 5.2 6.81 7.21 9.64 4.67 6.6 7.21 9.7 10.57 12.95 12.03 15.2c1.02 1.55 3.26 3.33 4.68 5.13q2.26 2.9 8.18 9.72c1.77 2.04 4.08 3.84 5.94 6.32a1.474 1.474-55.261 0 0 2.59-.47q.04-.12.01-.99-.05-1.98-1.02-8.47-5.63-37.93-9.71-80.94-.1-1.01-1.21-2.23a.785.772 35.783 0 1-.14-.82l.41-.97q.4-3.1-.04-7.82-1.71-18.35-11.58-33.08-2.44-7.31-5.55-14.5-18.51-42.81-31.85-88.9c-3.07-10.61-4.93-19.78-7.71-31.2q-1.43-5.89-1.54-16.25c-.02-2.48-.41-3.66-2.09-5.39q-13.53-13.89-18.03-18.32-4.47-4.39-8.4-8.76c-6.38-7.11-9.09-9.81-13.4-15.36q-2.97-3.82-5.56-6.07a2.16 1.52 42.877 0 0-2.5-.34q-.9.85-.59 2.7.94 5.58.31 10.44-.74 5.76-.83 8.6-.86 28.25 1.3 55.89c1 12.83 3.48 25.3 5.31 38.72 1.04 7.62 2.75 13.84 4.37 21.86q1.43 7.11 3.99 16.2 6.48 23.08 14.12 44.37 4.97 13.83 12.64 28.65.08.15 4.05 8.65 2.04 4.38 4.68 8.32m813.54-212.94q-.95.08-1.69 1.37-3.61 6.26-7.41 10.82-14.07 16.86-36.29 37.98-1.8 1.71-1.93 4.32-.99 19.97-1.41 23.49-.37 3.08-3.6 25.37c-1.01 7.01-2.91 13.01-4.13 19.18q-1.34 6.76-3.61 14.25-6.59 21.8-15.06 37.93-8.94 17.06-12.17 22.54-2.18 3.69-5.28 6.95-2.09 2.2-2.38 3.49c-.94 4.21 1.57 6.21 1.53 9.28q-.22 16.07-.42 34.9c-.07 7.37.36 13.91-.17 21.34q-.21 2.92.23 5.53a.788.784 68.134 0 0 1.21.52q1.79-1.2 3.28-3.03c5.16-6.36 11.58-14 15.84-20.71 3.5-5.53 7.38-10.61 10.84-16.65q6.23-10.83 14.62-25.9c5.51-9.9 8.43-16.88 14.24-29.65q8.21-18.04 16.15-42.59c8.19-25.33 12.41-49.69 16.57-77.98 1.11-7.58.76-14.62 1.43-22.22q.54-6.18.48-16.66 0-.26-.11-23.18a.696.693-2.642 0 0-.76-.69M588.85 733.8q-21.28-.2-41.54-1.39-3.92-.23-7.52-1.1l-35.91-4.76a1.367 1.352 24.281 0 0-1.21.45q-1.59 1.8-3.03 4.31a7.837 7.514 80.665 0 1-.7 1.02q-7.56 9.25-11.51 14.84-3.43 4.85-13.89 18.35-14.3 18.44-21.52 26.26c-5.02 5.44-8.43 10.27-12.95 15.71q-4.57 5.49-4.95 5.89c-3.59 3.77-5.34 7.51-3.34 12.12q2.77 6.38 3.02 10.39l15.62 38.99q5.43 12.24 11.75 23.78c4.48 8.17 9.8 15.34 14.28 22.97q4.95 8.41 10.93 16.77 9.39 13.14 13.61 19.35c2.58 3.81 5.61 6.93 9.98 8.05q9.86 2.51 19.03 3.95 18.54 2.91 34.21 4.72 5.85.68 8.1.73c7.23.17 13.18 1.46 20.29 1.47l14.4.02q17.59-1.17 32.6-2.78 13.37-1.43 24.7-3.52 15.51-2.87 24.47-4.86 3.48-.77 4.79-2.95c2.35-3.92 5.4-7.48 7.97-10.55q1.71-2.04 5.03-6.9 14.45-21.2 27.22-41.21 3.49-5.47 5.86-9.78c5.39-9.84 10.65-19.07 14.41-28.52 4.05-10.13 6.55-18.41 5.22-28.12q-1.7-12.42-6.08-23.43-6.32-15.9-13.23-28.56-8.82-16.16-16.79-25.72-12.43-14.91-35.11-35.32-1.6-1.44-3.81-.99-15.34 3.16-31.82 4.93c-7.39.79-16.26.8-23.72 2.1-4.05.71-8.09.67-13.02.76-4.58.08-8.75 1.84-13.55 2.11q-6.46.36-12.29.42m-125.33 278.14a2.655 2.132.963 0 0 2.19 1.82q2.46.34 4.17.86 16.99 5.21 37.16 9.01.03 0 30.2 5c7.91 1.31 14.36 1.47 22.19 2.25 17.98 1.77 36.44 1.53 54.63.68 1.88-.08 6.98-.42 8.52-.92q.93-.31 6.37.1 3.16.23 8.3-.52 24.52-3.55 35.6-5.54 3.15-.56 6.89-1.41c5.46-1.23 11.43-2.26 17.15-3.73q12.97-3.33 28.28-6.7a1.804 1.795 76.442 0 0 1.35-2.22q-.22-.85-1.03-1.75-8.23-9.19-20.69-21.45c-3.66-3.6-7.08-8.47-10.21-12.03q-2.78-3.15-7.27-2.44-11.04 1.76-12.69 2.21c-7.58 2.08-16.9 3.99-25.19 4.59-6.44.46-11.03 1.54-17.94 1.64-8.51.13-19.74 2.1-29.35 2.16q-16.42.11-24.4-.74-10.7-1.14-12.14-1.16c-8.05-.1-14.35-1.58-22.27-2.16-6.75-.48-12.05-1.88-20.31-3.17-5.44-.85-10.6-2.25-16.12-3.8a3.324 3.31 31.011 0 0-3.2.79c-1.73 1.65-3.45 3.82-5.2 5.34q-24.83 21.51-33.39 29.69-1.91 1.82-1.6 3.6M258.39 239.48q-1.59-2.02-2.89-5.47-6.53-17.36-10.1-27.86-1.45-4.28-1.75-5.11-5.43-15.2-9.43-28.29c-.89-2.91-.28-4.68 2.39-6.54q1.85-1.3 6.52-5.29 1.71-1.46 3.98-1.71a2.104 2.098 53.966 0 1 1.13.18q2.91 1.32 3.76 1.84 33.21 20.39 52.79 32.75 3.01 1.9 5.12 4.65a.594.592-36.963 0 1-.12.84q-7.09 5.22-10.11 7.2-.93.61-3.17 1a1.397 1.39-30.821 0 1-1.08-.27c-2.29-1.79-7.13-5.75-10.9-7.14a1.917 1.909-58.264 0 0-2.06.49c-4.93 5.25-11.02 8.84-16.53 13.58a2.182 2.171 62.778 0 0-.69 2.17q1.74 7.06 5.24 12.28a.759.75-42.183 0 1-.05.91q-4.91 5.73-6.4 6.62-3.57 2.14-4.9 3.25a.533.526-38.579 0 1-.75-.08m-7.06-61.25a.402.399 4.94 0 0-.55.46q1.44 5.98 3.18 9.76c1.94 4.2 2.86 9.09 5.44 13.13a1.365 1.361-37.79 0 0 2.08.26l9.59-8.95a1.337 1.33 37.468 0 0-.29-2.15q-9.76-5.18-18.36-12.03-.09-.07-.54-.25-.27-.11-.55-.23"></path><path fill="#31a24d" fill-rule="evenodd" d="M502.79 177.92a1.08 1.078 33.351 0 1 .4 1.93c-7.68 5.46-11.86 9.51-21.2 18.23q-5.51 5.15-10.56 10.76-15.81 17.54-28.09 36.87-1.32 2.07-6.3 4.57-13.66 6.85-25.91 13.1c-7.12 3.63-14.77 9.16-21.67 13.36-18.12 11.02-35.51 24.31-52.51 37.65-5.08 3.99-10.77 9.5-15.52 12.79q-3.42 2.36-9.97 5.28-2.49 1.1-24.38 9.46c-17.89 6.84-36.87 14.83-53.84 21.96a.721.716-1.994 0 1-.96-.89q1.02-3.07 2.88-5.59c6.89-9.34 13.22-18.58 20.89-27.66 9.63-11.39 19.13-22.81 29.33-33.52 4.65-4.89 10.3-9.74 15.72-14.62q18.24-16.42 25.75-22 13.05-9.7 15.31-11.39 8.9-6.62 15.64-10.88 24.72-15.62 51.91-28.62 16.44-7.86 34.56-14.29 18.19-6.47 35.63-11.49 7.98-2.3 21.42-4.83 1.25-.23 1.47-.18M821.13 232.61q-3.87 7.2-6.97 9.56-9.28 7.05-16.56 16.06-2.4 2.97-5.39 5.89-2.87 2.82-5.41 5.89-3.73-1.16-6.72-2.59c-15.72-7.52-23.26-11.6-35.94-15.81q-1.56-.51-3.74-1.8a4.739 4.715 87.13 0 1-1.43-1.3q-1.69-2.33-3.42-5.54-10.87-20.25-18.61-30.2-5.7-7.35-15.18-18.96-6.21-7.61-15.47-12.53-1.49-.79-1.67-2.27a1.012 1.009.668 0 1 1.15-1.12c4 .59 6.93.7 10.28 1.79q4.18 1.36 8.44 2.18c6.32 1.21 10.36 2.89 17.63 4.98q3.78 1.09 9.16 3.06 19.34 7.09 38.26 15.06 14.88 6.26 28.5 14.06 3.36 1.93 11.68 6.56 5.81 3.22 11.41 7.03"></path><path fill="#020202" fill-rule="evenodd" d="M246.565 253.886a2.33 2.33-90 0 1-3.295 0l-44.965-44.964a5.5 3.74 45 0 1-1.244-6.534l5.897-5.897a5.5 3.74 45 0 1 6.534 1.244l44.964 44.965a2.33 2.33-6.604 0 1 0 3.295zM1012.37 228.61q-3.01 2.23-6.15 5.6-1.64 1.76-3.31.15-5.73-5.49-17.28-17.08a.703.703 38.712 0 0-1.09.12l-6.88 10.83a1.229 1.219-49.573 0 0 .11 1.45q3.96 4.65 8.02 9.49 2.05 2.44 3.25 5.02a2.19 2.19-40.046 0 1-.19 2.19q-2.19 3.13-4.97 4.83a2.54 2.54-39.843 0 1-3-.27l-7.85-6.97a.4.4-47.427 0 1-.07-.07q-3.32-3.84-6.69-6.24a1.718 1.711 38.83 0 0-2.26.24l-9.5 10.5a.995.987 44.786 0 0 .01 1.34l16.02 17.16a.805.803 50.794 0 1-.12 1.2q-2.26 1.63-3.69 4.57-.42.85-3.21 2.79a1.03 1.024 41.592 0 1-1.06.06q-2.6-1.39-3.64-2.51-7.11-7.72-22.05-23.56-2.96-3.14-.26-6.08c8.35-9.1 17.13-17.4 26.2-25.42 4.68-4.15 10.03-10.12 14.83-14.14 1.84-1.55 3.17-3.49 4.53-4.68a2.085 2.046-72.106 0 1 .84-.44q1.97-.48 3.66 1.13 14.07 13.47 26 26.91a1.291 1.281-39.164 0 1-.2 1.88M205.67 257.16a.606.605 53.617 0 0 .17-1.13q-6.83-3.64-12.56-8.57-3.03-2.59-15.73-13.98-2.48-2.23-3.89-4.94a1.631 1.624 53.3 0 1 .27-1.88q2.09-2.18 4.33-5.42c1.53-2.2 3.12-2.93 5.39-1.12q29.41 23.58 46.89 39.76c1.57 1.46 2.62 3.09 4 3.73a.482.477 28.42 0 1 .21.69q-5.22 8.24-13.35 13.36a.623.618 59.413 0 1-.88-.23q-.02-.04-.06-.2a1.01 1.01 88.002 0 0-.75-.7c-2.29-.5-4.19-1.43-6.73-1.82q-20.38-3.08-41.14-8.37a.431.43 75.625 0 0-.42.71q2.73 2.95 5.55 5.24c9.77 7.92 20.05 15.58 29 24.48a1.032 1.029 40.359 0 1 .11 1.33l-5.77 7.98a2.406 2.402-60.662 0 1-2.88.81q-2.62-1.1-4.72-2.75-16.31-12.76-42.62-35.73-2.59-2.27-3.89-4.9a3.474 3.454-42.912 0 1 .13-3.3q2.65-4.47 7.36-9.29c2.13-2.18 3.26-2.61 6.31-2.23q7.91.98 11.75 1.8 18.02 3.81 29.26 6.48 2.55.6 4.66.19"></path><path fill="#ffcb2b" fill-rule="evenodd" d="M856.31 255.94q-14.46 17.85-30.59 34.03-1.57 1.59-3.84 3.26-7.01-4.38-13.91-8.99c-4.87-3.25-14.34-8.84-21.17-14.23q2.54-3.07 5.41-5.89 2.99-2.92 5.39-5.89 7.28-9.01 16.56-16.06 3.1-2.36 6.97-9.56c2.12.88 4.23 1.67 6.16 2.97q10.37 6.99 20.31 14.57a6.907 6.746 75.932 0 0 1.17.72q4.1 1.97 7.54 5.07"></path><path fill="#020202" fill-rule="evenodd" d="M1003.64 325.55c8.07-3.06 18.32-3.88 26.34-5.72q7.81-1.8 34.78-6.77 4.42-.82 10.25-1.28a2.151 2.126-20.342 0 1 1.88.85c2.09 2.79 2.62 6.15 4.24 9.07q1.35 2.42 2.16 5.52a2.048 2.022-34.707 0 1-.32 1.7q-4.08 5.61-12.16 15.15-2.92 3.45-25.48 28.77c-2.61 2.93-5.85 6.66-9.19 8.94a1.327 1.322-56.422 0 1-.98.2q-1.95-.39-2.7-1.94-2.56-5.28-4.78-9.07a2.561 2.551-39.252 0 1 .31-3.02l7.07-7.81a4.247 4.236-28.48 0 0 1.04-3.49q-.3-1.85-1.51-4.66-.42-.96-8.1-14.47-.97-1.7-3.51-1.24-4.97.89-11.59 2.4a2.254 2.226 59.009 0 1-1.99-.51q-5.53-4.91-7.31-11.2a4.203 4.076 19.678 0 0-.62-1.26q-2.96-4.03-7.46-9.14-1.56-1.77-1.43-3.82a2.335 2.33 62.675 0 1 .33-1.04q7.07-11.76 10.15-18.13c1.35-2.79 2.67-8.4 1.17-11.73q-.53-1.17-.9-1.47a2.565 2.554 45.619 0 0-3.08-.04l-14.85 10.85a5.267 4.178-29.824 0 0-.57.47l-4.05 3.57a1.765 1.763-44.238 0 1-2.37-.03q-5.24-4.92-8.47-10.45a1.112 1.11-36.125 0 1 .22-1.4q4.81-4.26 8.26-6.73c7.41-5.31 12.55-9.85 20.38-15.59q5.61-4.11 11.29-8.74 6.88-5.6 11.56-8.37c3.3-1.95 4.73-1.25 7.18 1.39 6.2 6.69 11.65 13.54 15.38 21.22 3.35 6.87 4.5 15.78-.69 21.91-3.64 4.29-11.92 9.86-17.92 7.83q-3.31-1.12-7.47-1.65a.576.572 8.656 0 0-.63.46q-1.61 8.81-2.36 10.31-4.67 9.41-11.18 17.8-.82 1.06-.84 1.99a.386.382-9.27 0 0 .52.37m19.213-62.136-8.191 5.158a4.1 4.1 70.046 0 0-1.285 5.654l1.748 2.776a9.82 8.94 57.8 0 0 12.798 3.545 9.82 8.94 57.8 0 0 2.332-13.073l-1.748-2.776a4.1 4.1 37.32 0 0-5.654-1.284m24.387 82.626 2.01-1.67a14.321 13.83-89.45 0 0 1.9-1.93q3.8-4.7 9.54-10.48 1.42-1.43 1.56-3.32a.933.928-4.954 0 0-1.16-.97l-20.73 5.22a1.093 1.093-12.5 0 0-.81 1.27q.77 3.99 3.65 7.48 3.31 4.01 3.45 4.28a.385.385 56.478 0 0 .59.12"></path><path fill="#31a24d" fill-rule="evenodd" d="M595.17 428.19q-.19.11-3.47 1.28-.63.23-3.42 1.59-16.14 7.9-29.08 14.92-12.13 6.58-16.96 10c-6.18 4.37-13.25 8.51-19.07 12.66q-24.07 17.16-33.28 24.76-22.28 18.41-29.86 25.38c-2.34 2.16-4.42 4.23-6.52 6.79-2.39 2.92-5.22 4.58-9.11 4.07q-6.53-.86-14.41-2.13-12.19-1.97-33.18-8.41-29.14-8.94-58.42-21.97-4.97-2.21-12.68-6.68c-6.42-3.73-10.75-5.88-12.78-11.87q-2.9-8.53-4.43-17.81-2.13-12.86-2.22-13.34-1.22-6.18-1.41-13.41c-.48-17.4.01-32.46 3.71-49.08 3.88-17.38 7.6-30.75 14.37-45.27q1.69-3.63 4.1-6.12c5.54-5.75 13.26-12.59 21.6-18.29 7.05-4.82 14.12-10.75 22.73-16.66q6.41-4.4 10.17-7.54c1.2-1 3.17-2.51 4.87-3.44q11.25-6.18 18.5-10.86 8.68-5.6 15.16-8.75 7.25-3.51 20.52-10.91 1.46-.81 3.16-2.31a1.649 1.643 24.827 0 1 1.15-.42c1.24.03 2.57.73 3.95 1.04 19.87 4.4 34.99 9.87 56.29 17.42q4.27 1.51 25.53 10.57c20.43 8.71 39.58 18.56 59.84 29.25q2.15 1.14 3.57 3.09.92 1.27 1.26 4.33 1.48 13.26 1.51 14.67.6 36.76.15 69.9c-.09 6.23-.98 11.68-1.56 17.62a.7.7 34.346 0 0 0 .16l.53 4.07a1.745 1.744 70.49 0 1-.81 1.7"></path><path fill="#4d4e4e" fill-rule="evenodd" d="M821.88 293.23q2.27-1.67 3.84-3.26 16.13-16.18 30.59-34.03 11.32 8.03 17.84 13.91 4.68 4.21 20.36 19.25c16.08 15.43 30.4 32.09 43.85 49.04q6.95 8.75 12.45 17.55c1.37 2.2 3.44 4.48 4.81 6.93q4.13 7.38 9.14 15.23a.427.322-82.027 0 1 .05.09l1.88 4.43a.82.819 5.396 0 1-1.21 1q-10.86-7.21-22.22-12.61-20.51-9.73-41.69-17.72c-4.99-1.89-10.5-3.28-15.32-4.54-2.53-.67-5.07-2.59-7.33-4.8q-14.22-13.92-17.22-16.63-9.78-8.85-31.81-26.75c-2.03-1.65-3.45-3.2-4.91-4.67a4.062 4-6.782 0 0-.8-.62q-1.22-.69-2.3-1.8"></path><path fill="#31a24d" fill-rule="evenodd" d="m776.93 277.56-4.72 7.02a5.521 5.377-5.58 0 1-.76.9q-11.49 10.7-22.22 22.37-9.75 10.62-21.56 22.73c-24.74 25.37-37.44 37.68-57.25 59.1q-6.53 7.06-22.72 23.02c-4.71 4.66-8.83 9.69-13.39 14.61q-1.82 1.98-5.98 5.5-3.07 2.6-5.89 5.63-7.53-3.65-15.92-6.94-3.22-1.26-3.19-5.01c.03-4.91.46-10.29.49-14.99q.09-18.56.64-23.51c.25-2.26.74-4.32.84-6.67q.41-10.68-.44-19.29c-1.23-12.29-1.06-22.43-1.2-33.78q-.11-9.11.52-13.52.26-1.83 2.53-3.27 15.17-9.6 15.62-9.91c5.29-3.65 11.5-6.86 17.44-10.06q32.81-17.72 70.08-28.66 10.91-3.2 20.91-4.5 5.27-.68 10.5 1.41 7.03 2.81 10.95 4.93c5.56 3.02 10.9 4.1 16.1 7.54q4.27 2.83 8.62 5.35"></path><path fill="#ffcb2b" fill-rule="evenodd" d="M776.93 277.56c6.56 2.06 11.04 5.58 16.4 9.09 4.76 3.12 13.71 8.2 20.07 13.23q.71 2.25-1.12 3.89c-14.72 13.3-33.64 33.7-44.49 44.21-10.58 10.24-21.36 20.78-30.95 32.2-3.03 3.61-6.81 6.3-9.3 9.37-3.32 4.1-8.48 7.75-12.05 12.08-2.79 3.39-6.41 5.92-9.23 9.22q-3.56 4.16-6.78 7.05c-3.65 3.28-6.34 7.08-10.12 10.67q-8.43 8.01-18.15 18.63-7.13 7.79-14.69 14.23l-34.08-22.99q2.82-3.03 5.89-5.63 4.16-3.52 5.98-5.5c4.56-4.92 8.68-9.95 13.39-14.61q16.19-15.96 22.72-23.02c19.81-21.42 32.51-33.73 57.25-59.1q11.81-12.11 21.56-22.73 10.73-11.67 22.22-22.37a5.521 5.377-5.58 0 0 .76-.9z"></path><path fill="#020202" fill-rule="evenodd" d="M136.47 389.14q3.7-9.86 9.45-22.15.53-1.14 3.15-2.74a1.737 1.697-63.015 0 1 .71-.24l3.88-.42a.636.633 70.276 0 0 .46-.98c-1.51-2.29-4.29-4.1-6.18-6.43q-22.41-27.71-31.71-39.41c-1.51-1.89-4.28-5.31-3.16-8.43 1.01-2.81 5.51-10.31 8.71-11.79q1.98-.92 5.25-.31 4.05.75 19.16 4.11 25.48 5.67 35.28 7.93 7.06 1.63 13.08 5.3a.372.364 32.408 0 1 .12.51q-4.54 7.39-10.39 12.93a.724.722-50.118 0 1-.88.08q-4.2-2.67-9.79-4.93c-2.59-1.04-3.23.46-4.69 2.59q-4.82 7.07-9.2 13.95-.99 1.56-1.9 3.44a2.607 2.605 35.56 0 0 .49 2.94q3.09 3.17 5.61 6.15 3.32 3.93 1.02 8.96-1.54 3.36-3.79 5.95a4.393 4.202 78.233 0 0-.68 1.09q-4.11 9.64-8.52 18.41-2.64 5.25-4.36 9.13c-2.46 5.55-5.04 11.21-8.82 15.68a2.829 2.826-56.094 0 1-3.46.68q-7.02-3.67-11.29-10.4-14.2-22.4-24.2-37.87a1.427 1.426 48.758 0 0-2.28-.15q-.83.98-1.28 2.57-2.02 7.12-4.6 11.56c-1.25 2.15-1.69 3.55-2.78 6.24q-1.11 2.73-3.89 2.06-3.77-.91-7.91-2.94a1.201 1.196 20.905 0 1-.63-1.4q1.21-4.29 2.96-8.17c5.56-12.31 9.02-20.37 15.24-30.25q1.69-2.69 4.66-1.51c6.22 2.45 10.24 9.15 13.95 14.83q15.55 23.82 18.21 28.11 1.88 3.05 4.45 5.45a.339.335-57.949 0 0 .55-.13m-3.87-76.42q1.75 4.31 4.99 8.24c4.95 5.99 7.58 9.53 9.87 11.33a.536.534 35.544 0 0 .79-.13l7.68-12.1a1.271 1.268-70.202 0 0-.91-1.94q-11.2-1.47-21.91-5.9a.389.387.403 0 0-.51.5"></path><path fill="#4d4e4e" fill-rule="evenodd" d="M883.63 424.1q-21.73 17.68-43.67 35.54-8.38 6.82-15.28 12.87c-9.22 8.08-18.53 15.09-28.26 23.46-11.24 9.68-17.33 15.29-27.51 23.17q-6.96 5.38-15.13 11.87-1.1.87-1.24 2.69c-3.29 2-6.19 2.43-9.09-.13q-32.58-28.84-65.06-55.44-2.38-1.94-7.29-5.07-3.55-2.27-7.15-5.25-4.13-3.43-7.43-6.38 7.56-6.44 14.69-14.23 9.72-10.62 18.15-18.63c3.78-3.59 6.47-7.39 10.12-10.67q3.22-2.89 6.78-7.05c2.82-3.3 6.44-5.83 9.23-9.22 3.57-4.33 8.73-7.98 12.05-12.08 2.49-3.07 6.27-5.76 9.3-9.37 9.59-11.42 20.37-21.96 30.95-32.2 10.85-10.51 29.77-30.91 44.49-44.21q1.83-1.64 1.12-3.89l2.82 2.18a1.448 1.346 73.65 0 0 .37.22q2.76 1.17 5.54 3.05 10.8 7.28 24.44 19.04 10.43 8.99 24.46 23.17c4.61 4.66 7.88 8.16 9.16 14.09q4.55 21.18 6.01 38.14.82 9.42 1.72 19.13a1.542 1.541 78.04 0 1-1.04 1.6q-4.02 1.33-3.25 3.6"></path><path fill="#020202" fill-rule="evenodd" d="M1096.93 383.9q-23.83 9.68-49.48 21.56-3.62 1.67-4.79-1.84-1.81-5.4-4.22-9.94a1.588 1.587-25.884 0 1 .76-2.19l49.84-22.07a2.16 2.16 86.533 0 0 1.01-3.03c-1.9-3.42-4.75-9.24-5.28-13.8-.37-3.17 4.41-5.86 6.41-5.92q3.93-.11 5.93 4.04 8.33 17.23 12.31 26.86 4.17 10.11 6.38 16.89a1.961 1.958-18.861 0 1-1.21 2.46l-7.54 2.7a1.362 1.331 50.677 0 1-1.17-.13q-2.57-1.61-3.4-3.76-1.96-5.09-3.83-11.02a1.292 1.291 70.209 0 0-1.72-.81M76.63 446.77a.306.303-47.26 0 0 .02.58q5.44 1.52 13.21 3.32 8.65 2.01 24.13 7.43 3.65 1.29 6.42 2.64a2.278 2.276 19.001 0 1 1.23 2.52q-1.15 5.42-4.24 11.01a.412.403 39.239 0 1-.67.06l-.22-.27a1.713 1.707 77.566 0 0-.78-.5c-4.02-1.13-7.78-1.95-11.5-3.25q-7.57-2.64-13.92-4.52c-12.26-3.62-24.96-8.01-36.19-12.22-4.79-1.8-.03-13.8 1.64-17.3q1.15-2.39 3.94-3.11 22.17-5.74 45.34-6.79a.99.951-15.058 0 0 .85-1.41q-.29-.54-1.24-.87-23.55-8.21-39.02-13.16a1.679 1.672-71.046 0 1-1.06-2.18l3.86-10.52a1.339 1.333 18.994 0 1 1.67-.81q16.34 5.4 32.84 10.28 7.91 2.33 13.53 4.33c8.68 3.09 13.58 4.34 18.03 7.61a1.763 1.76-63.76 0 1 .65 1.92c-1.95 6.56-2.71 11.44-6.64 14.9a2.15 2.106 21.755 0 1-1.27.53q-4.89.36-6.32.67-17.31 3.7-34.03 6.46-5.42.89-10.26 2.65M1054.086 431.068a1.96 1.96 57.941 0 1 1.198-2.5l60.951-21.464a4.78 3.14-19.4 0 1 5.551 1.374l3.156 8.961a4.78 3.14-19.4 0 1-3.466 4.549l-60.951 21.465a1.96 1.96 16.568 0 1-2.499-1.198z"></path><path fill="#ffcb2b" fill-rule="evenodd" d="M885.84 469.97c-2.66 1.85-5.25 3.69-7.66 5.87q-14.32 12.94-29.05 25.4c-3.92 3.32-7.87 7.22-11.92 10.75q-5.36 5.17-12.79 6.92-30.25 7.13-57.95 12.46c-3.86.74-9.32 1.1-13.93 2.33q.14-1.82 1.24-2.69 8.17-6.49 15.13-11.87c10.18-7.88 16.27-13.49 27.51-23.17 9.73-8.37 19.04-15.38 28.26-23.46q6.9-6.05 15.28-12.87 21.94-17.86 43.67-35.54l3.68-2.38a1.042 1.04 70.928 0 1 1.6.78c.46 4.99-.2 9.19-.06 14.61q.35 14.35.03 23.51-.17 5.14-3.04 9.35"></path><path fill="#020202" fill-rule="evenodd" d="M1110.954 509.329q-9.027 1.429-14.463.876-18.091-1.845-24.971-18.435-4.73-11.42-3.542-22.599c1.687-15.869 16.661-23.72 30.765-25.953q9.028-1.426 14.464-.873 18.091 1.845 24.971 18.435 4.73 11.42 3.542 22.599c-1.688 15.87-16.661 23.721-30.766 25.95m-9.81-49.889c-7.436 1.659-16.889 5.524-19.475 13.562-1.809 5.618 1.901 16.138 7.352 18.944 5.946 3.057 12.939 2.272 19.552.797 6.614-1.476 13.277-3.738 17.36-9.032 3.742-4.856 2.629-15.956-1.396-20.273-5.757-6.176-15.956-5.657-23.393-3.998"></path><path fill="#144aa2" fill-rule="evenodd" d="M885.84 469.97q1.56 4.03.68 8.53-.81 4.17-3.09 15.73c-1.28 6.52-4.78 8.37-11.16 10.51q-9.11 3.06-18.47 6.75c-3.5 1.38-7.65 2.5-11.42 2.7a2.526 1.992-9.528 0 1-2.39-1.31q-.24-.66-1.47-.47-1.03.17-1.31-.42c4.05-3.53 8-7.43 11.92-10.75q14.73-12.46 29.05-25.4c2.41-2.18 5-4.02 7.66-5.87"></path><path fill="#020202" fill-rule="evenodd" d="M116.07 480a.568.562-87.576 0 1 .6.66q-1.35 7.94-4.52 15.37a.566.557 8.624 0 1-.47.34l-13.9 1.52a1.445 1.439-88.951 0 0-1.27 1.23q-1.07 7.84-3.03 19.87-.23 1.37-.06 3.1a2.503 2.496-84.323 0 0 1.74 2.13q5.52 1.73 8.96 3.68c1.63.92 2.14 2.41 1.99 4.38q-.37 5-1.24 11.45a.718.71 13.024 0 1-.94.58q-5.84-1.97-11.44-5.04-22.24-12.22-46.43-26.18c-4.69-2.7-8.32-5.4-6.84-11.03q1.04-3.93 2.34-8.5c1.21-4.23 6.13-4.2 10.95-4.97 21.78-3.44 33.05-5.52 51.82-8.01 4.22-.55 8.58-.3 11.74-.58m-34.19 34.67 1.67-14.09a.904.902-7.766 0 0-1.24-.94q-1.82.74-3.68.99-12.28 1.68-19.82 2.23a.497.495-24.225 0 0-.32.84q2.6 2.66 6.25 4.52 1.87.96 13.27 6.01 1.27.56 3.36.83a.454.454-59.398 0 0 .51-.39"></path><path fill="#31a24d" fill-rule="evenodd" d="M450.64 603.4q-6.15 5.31-12.13 10.51-6.33 5.5-12.32 10.29-23.34 18.68-47.29 39.22c-1.93 1.65-4.56 3.46-6.15 4.83q-12.23 10.6-33.32 27.94-27.98 23-63.88 53.22-.07.06-5.07 3.57-3.09 2.17-3.9 4.86-2.01-4.26-4.23-8.9c-4.15-8.68-6.74-15.82-11.06-26.5-6.02-14.84-11.9-32.24-16.22-45.47q-3.77-11.54-5.25-17.7-1.88-7.85-4.67-17.83-4.27-15.3-5.82-29.94c-.45-4.25.04-7.23 2.4-10.87 2.92-4.51 5.37-10.04 8.78-15.49q15.31-24.47 30.48-44.39 5.25-6.88 15.42-17.33 2.94-3.02 6.38-7.13 5.25-6.26 6.32-7.18 8.03-6.87 12.71-10.54c1.94-1.53 3.76-3.66 5.76-5.31a4.656 4.644-59.42 0 1 3.79-.98q2.12.39 4.26 1.59 17.71 9.9 32.52 16.22 1.09.46 19.34 7.72 11.23 4.46 19.6 6.93 29.03 8.55 58.08 12.88a1.01 1.01 13.085 0 1 .81 1.3q-1.41 4.5-1.03 9.08c1.4 16.87 2.17 33.38 5.52 50.26q.41 2.09.17 5.14"></path><path fill="#144aa2" fill-rule="evenodd" d="M736.79 602.1c4.64-4.91 8.95-10.34 13.85-14.72q3.18-2.85 6.32-5.65 11.28-10.02 21.43-19.34 16.16-14.84 23.82-20.91c4-3.17 9.39-6.17 13.19-10.42q.4-.45-.09-.78-.31-.22-.84-.14l8.05-2.72a.062.061-50.495 0 0-.01-.12q-.22-.03-.23-.15a.074.072 6.418 0 1 .09-.07q.9.25 1.6-.55a1.722 1.711 20.945 0 1 1.31-.58c5.49.09 11.27-1.28 16.04-3.08q4.05-1.53 9.71-3.22 12.92-3.87 27.47-9.65c2.31-.92 5.3-1.36 7.44 1.06q14.43 16.27 25.04 28.96 1.27 1.51 10.22 13.29 7.66 10.09 21.34 32.42 12.91 21.09 25.37 50.83 2.55 6.1 2.78 11.03a9.481 9.407 49.54 0 1-.16 2.12c-.33 1.73-.79 3.23-.89 5.29-.26 5.19-.3 12.28-1.53 17.78q-.19.88-2.51 15.68-1.25 8.05-3.09 15.54-9.67 39.57-29.19 74.81-2.8 5.07-10.07 14.95-5.87 7.97-16.74 14.5-14.4 8.64-32.45 15.03-10.64 3.76-15.87 5.1-9.61 2.46-26.64 6.47-9.73 2.29-27.01 4.68-8.09 1.12-28.04 3.92-3.93.55-7.57.64a2.002 1.991 82.315 0 1-1.97-1.51c-1.7-6.84-2.85-17.3-5.19-25.15-5.66-18.99-16.59-37.19-26.46-52.23-7.54-11.47-16.35-22.19-25.59-31.68-4.81-4.95-10.11-8.67-16.31-13.88a2.131 2.128 36.721 0 1-.41-2.8c3.79-5.77 7.58-12.09 10.59-18.66q8.03-17.49 16.32-40.46 2.52-6.97 7.43-24.79 3.85-13.96 8.11-25.68a6.313 5.938 61.683 0 0 .32-1.2q.36-2.17 1.02-3.96"></path><path fill="#020202" fill-rule="evenodd" d="m1110.66 567.04 41.74-2.67a1.465 1.458-4.677 0 1 1.55 1.31q.55 5.49 1.2 9.71.37 2.46-2.34 2.75-23.16 2.52-60.34 4.99-3.06.2-5.51-.23a2.694 2.682 1.884 0 1-2.21-2.35q-.64-5.81-1.13-9.93-.39-3.18 2.48-5.81c3.98-3.64 7.01-5.7 10.77-8.22q15.98-10.71 31.36-19.63a.567.564 26.738 0 0-.35-1.05q-21.09 2.36-43.13 3.52-1.66.09-3.07-.17a1.509 1.504-88.96 0 1-1.23-1.28q-.65-4.67.14-11.27a1.505 1.494.217 0 1 1.33-1.31q11.3-1.24 22.16-1.92c13.56-.85 29.6-2.82 42.73-3.13q2.97-.07 3.36 2.49 1.19 7.78.94 14.18c-.15 3.85-13.56 11.93-16.65 14.08q-10.84 7.53-21.8 13.51-.65.35-2.2 2.02a.247.245 19.169 0 0 .2.41M31.94 583.22a.733.723-85.604 0 1-.66-.78l3.91-50.91a1.796 1.791 2.246 0 1 1.79-1.65h8.49a1.6 1.6-54.482 0 1 1.6 1.6v17.88a.602.59 1.535 0 0 .57.59q4.69.22 46.11 3.08 5.6.39 10.16 1.58a1.29 1.276-83.909 0 1 .95 1.19q.22 5.33-2.48 11.71a1.783 1.767-79.614 0 1-1.55 1.08q-6.81.34-13.81-.2-20.08-1.54-41.02-2.46a.99.99-11.159 0 0-1.04.94l-.74 14.77a1.038 1.031-4.339 0 1-.83.96q-5.7 1.15-11.45.62" data-source="https://football-logos.cc"></path><path fill="#ffcb2b" fill-rule="evenodd" d="M814.47 530.14q.53-.08.84.14.49.33.09.78c-3.8 4.25-9.19 7.25-13.19 10.42q-7.66 6.07-23.82 20.91-10.15 9.32-21.43 19.34-3.14 2.8-6.32 5.65c-4.9 4.38-9.21 9.81-13.85 14.72.9-5.02 1.2-10.48 2.38-14.98 2.57-9.82 3.61-17.39 5.58-25.86 1.25-5.37 1.67-10.72 2.69-16.06q.71-3.73 4.54-3.78 5.42-.07 9.58-.86c8.06-1.54 25.45-4.57 38.2-7.75q3.37-.84 4.89-.98 2.66-.25 4.99-1.06a1.036.554 16.845 0 1 .15-.03z"></path><path fill="#31a24d" fill-rule="evenodd" d="M258.32 762.42c-3.06 2.78-5.66 6.09-8.62 8.55q-7.44 6.17-15.07 12.11-3.24 2.52-11.68 9.47-5.81 4.78-11.91 9.18-2.64-3.94-4.68-8.32-3.97-8.5-4.05-8.65-7.67-14.82-12.64-28.65-7.64-21.29-14.12-44.37-2.56-9.09-3.99-16.2c-1.62-8.02-3.33-14.24-4.37-21.86-1.83-13.42-4.31-25.89-5.31-38.72q-2.16-27.64-1.3-55.89.09-2.84.83-8.6.63-4.86-.31-10.44-.31-1.85.59-2.7a2.16 1.52 42.877 0 1 2.5.34q2.59 2.25 5.56 6.07c4.31 5.55 7.02 8.25 13.4 15.36q3.93 4.37 8.4 8.76 4.5 4.43 18.03 18.32c1.68 1.73 2.07 2.91 2.09 5.39q.11 10.36 1.54 16.25c2.78 11.42 4.64 20.59 7.71 31.2q13.34 46.09 31.85 88.9 3.11 7.19 5.55 14.5"></path><path fill="#144aa2" fill-rule="evenodd" d="M1024.58 588.79a.696.693-2.642 0 1 .76.69q.11 22.92.11 23.18.06 10.48-.48 16.66c-.67 7.6-.32 14.64-1.43 22.22-4.16 28.29-8.38 52.65-16.57 77.98q-7.94 24.55-16.15 42.59c-5.81 12.77-8.73 19.75-14.24 29.65q-8.39 15.07-14.62 25.9c-3.46 6.04-7.34 11.12-10.84 16.65-4.26 6.71-10.68 14.35-15.84 20.71q-1.49 1.83-3.28 3.03a.788.784 68.134 0 1-1.21-.52q-.44-2.61-.23-5.53c.53-7.43.1-13.97.17-21.34q.2-18.83.42-34.9c.04-3.07-2.47-5.07-1.53-9.28q.29-1.29 2.38-3.49 3.1-3.26 5.28-6.95 3.23-5.48 12.17-22.54 8.47-16.13 15.06-37.93 2.27-7.49 3.61-14.25c1.22-6.17 3.12-12.17 4.13-19.18q3.23-22.29 3.6-25.37.42-3.52 1.41-23.49.13-2.61 1.93-4.32 22.22-21.12 36.29-37.98 3.8-4.56 7.41-10.82.74-1.29 1.69-1.37"></path><path fill="#ffcb2b" fill-rule="evenodd" d="M155.52 839.17a1.715 1.713 69.803 0 0 1.14-2.47q-5.32-10.13-10.92-21.88-6.68-14-16.25-39.04-10.66-27.91-17.02-57.49c-1.87-8.69-3.76-16.16-4.89-24.48q-1.75-12.81-3.65-27.53c-1.93-15-1.64-30.7-2.65-46q-.72-10.76-.46-21.58a2.69 2.69-89.023 0 1 2.71-2.62l4.03.03a3.092 3.088 87.306 0 1 3.05 2.78q1.24 12.21 1.96 25.1c.54 9.53 1.51 16.57 2.01 25.84q.12 2.31 1.11 10.31 10.08 81.53 46.57 153.21 19.86 39.01 46.9 75.04 26.76 35.66 59.53 65.42 26.23 23.82 58.47 45.46c24 16.11 49.2 28.72 76.85 41.05q9.42 4.2 17.45 7.18c25.58 9.5 51.26 17.48 77.45 22.25q20.55 3.74 31.98 5.41 3.76.54 22.55 2.37c20.95 2.03 40.65 2.03 61.85 1.19 10.35-.4 19.86-2.08 30.39-2.82q3.91-.28 12.12-1.42 77.32-10.77 145-43.69 79.04-38.44 141.66-103.22 3.7-3.84 9.02-10.15c4-4.74 7.92-8.7 11.87-13.7q18.13-22.93 25.58-34.02c24.08-35.84 44.63-73.95 58.42-114.76q7.22-21.36 13.65-49.58 4.41-19.39 7.21-41.95 2.18-17.67 3.99-42.41.91-12.44.75-23.22a1.28 1.28 89.559 0 1 1.28-1.3h9.12a1.18 1.17 0 0 1 1.18 1.17q-.01 8.73-.34 14.11-3.16 52.26-4.23 63.48-2.23 23.29-9.81 56.23-1.16 5.01-2.76 9.83c-1.51 4.51-2.23 8.83-3.85 13.06-2.52 6.57-3.5 11.55-6.12 17.68q-2.16 5.03-3.86 10.18c-1.47 4.47-3.27 7.53-4.65 11.71q-.46 1.4-1.95 4.63-9.08 19.73-15.3 33.84-1.37 3.12-1.64 6.11a1.065 1.063 70.877 0 0 1.79.87q2.18-2.07 3.73-5.37 1.78-3.8 16.61-34.11 4.57-9.33 11.6-28.86 12.66-35.15 20.27-73.14 3.16-15.78 4.98-31.47 2.7-23.24 3.38-31.69c.78-9.47.82-22.87 2.26-36.92a1.404 1.397-87.039 0 1 1.39-1.26h41.78a.553.551-88.056 0 1 .55.59q-1.74 23.47-4.25 60.91c-.53 7.91-3.22 22.85-4.51 34.28q-.98 8.74-1.62 11.65-2.53 11.51-3.14 14.76-2.04 10.92-3.31 14.71c-2.01 6-3.41 12.57-5.92 20.03q-7.18 21.39-13.24 35.97-4.79 11.56-13.22 29.7-1.52 3.29-1.61 6.33-.02.6.2.77.45.36.84-.12c.89-1.11 2.71-3.82 3.43-5.59 4.36-10.72 11.39-24.33 15.94-35.65 4.36-10.83 8.58-19.59 11.94-29.74q6.98-21.12 9.99-34.53 7.94-35.42 11.66-71.38 3.88-37.55 5.11-50.51.26-2.69 2.35-2.7 8.97-.02 17.84.39a.78.78 1.146 0 1 .75.78c.19 22.68.33 43.24-1.85 65.69q-8.3 85.53-42.33 163.74c-6.12 14.06-12.43 28.25-20.26 42.76q-15.51 28.76-34.22 56.38-6.37 9.4-12.27 17.13c-5.27 6.9-11.18 15.14-17.11 22.26q-32.33 38.79-70.12 71.51-2.15 1.85-23.58 19.24c-8.36 6.78-15.17 10.87-23.97 17.25q-3.81 2.75-9.78 6.63-16.86 10.92-22.49 14.28-22.39 13.35-55.18 28.82-33.11 15.62-68.39 26.12-17.31 5.15-17.34 5.16-20.84 5.72-40.5 9.73-5.08 1.04-24.43 4.42-11.53 2.02-24.59 3.36-26.54 2.74-30.93 2.87-12.71.36-25.08 1.08c-6.42.37-14.99.29-19.67.01-14.63-.85-29.52-.6-44.28-2.24q-22.01-2.44-40.68-5.28-65.68-9.97-130.08-36.11-22.91-9.3-40.45-18.38-4.73-2.45-11.18-6.14c-4.99-2.85-9.85-5.22-14.86-8.31q-17.96-11.05-24.29-14.89c-9.77-5.92-16.31-10.97-28.47-19.59-11.56-8.19-25.76-18.98-38.33-30.15-21.1-18.75-40.67-37.16-57.11-57.69-6.78-8.47-13.15-15.15-19.32-23.12q-15.34-19.83-29.97-42.47-14.53-22.47-25.12-43.04c-15.74-30.58-29.89-62.51-40.15-96.68-11.96-39.88-19.84-77.09-23.12-115.07q-1.38-15.93-2.32-33.74-.75-14.34-.59-25.68a.68.68-89.572 0 1 .68-.67l20.57.16a1.5 1.5 15.254 0 1 1.49 1.49q.03 3 .65 8.69 2.28 20.88 3.29 34.87c1.04 14.34 3.32 25.57 5.45 41.38q4.57 33.74 15.26 67.36 4.33 13.63 9.75 26.42 7.64 18.05 11.5 25.71 6.3 12.5 11.1 22.34.21.43.41.59a1.052 1.051-73.656 0 0 1.7-.93q-.49-4.66-2.54-9.03-7.61-16.21-9.23-19.59c-3.09-6.47-4.51-11.75-7.24-17.58q-.57-1.22-2.68-7.21c-5.67-16.11-10.85-32.22-14.54-49.33q-3.83-17.67-6.43-37.25-4.35-32.74-6.97-75.98-.31-5.24-.28-10.68a1.64 1.63.175 0 1 1.65-1.63l40.72.3a1.484 1.472-88.327 0 1 1.46 1.56q-.27 5.47-.04 9.2 2.43 38.42 5.23 63.85.48 4.36 3.83 24.5c2.86 17.19 7.18 34.55 12.39 51.37 2.66 8.6 4.27 14.49 6.68 21.09 5.3 14.52 10.54 27.41 17.15 40.06 2.57 4.91 4.55 9.61 7.35 14.62q4.03 7.21 8.78 15.08a2.933 2.93 68.168 0 0 3.15 1.35z"></path><path fill="#ffcb2b" fill-rule="evenodd" d="m450.64 603.4 9.31 42.49q-8.63 4.67-10.55 6.49c-9.65 9.14-19.82 16.75-29.8 25.38q-11.76 10.19-16.85 14.31-9.73 7.9-16.86 13.66-3.18 2.57-5.53 4.8c-4.68 4.43-9.57 7.49-14.24 11.61q-4.29 3.77-13.64 11.33c-2.21 1.79-4.79 4.54-7.37 6.63-13.09 10.61-18.14 14.6-30.36 25.01q-10.95 9.33-21.6 16.56-.08.05-3.77 2.95-2.46 1.93-6.59.58-5.44-4.62-7-7.51-3.35-6.26-6.7-12.55-1.61-3.04-2.51-7.3.81-2.69 3.9-4.86 5-3.51 5.07-3.57 35.9-30.22 63.88-53.22 21.09-17.34 33.32-27.94c1.59-1.37 4.22-3.18 6.15-4.83q23.95-20.54 47.29-39.22 5.99-4.79 12.32-10.29 5.98-5.2 12.13-10.51"></path><path fill="#4d4e4e" fill-rule="evenodd" d="M282.79 785.2q4.13 1.35 6.59-.58 3.69-2.9 3.77-2.95 10.65-7.23 21.6-16.56c12.22-10.41 17.27-14.4 30.36-25.01 2.58-2.09 5.16-4.84 7.37-6.63q9.35-7.56 13.64-11.33c4.67-4.12 9.56-7.18 14.24-11.61q2.35-2.23 5.53-4.8 7.13-5.76 16.86-13.66 5.09-4.12 16.85-14.31c9.98-8.63 20.15-16.24 29.8-25.38q1.92-1.82 10.55-6.49 4.45 9.13 8.01 18.67 3.77 10.1 5.9 14.4 3.42 6.87 11.14 22.28c2.93 5.84 7.05 10.89 10.71 16.89q2.34 3.82.02 7.33-5.54 8.4-10.59 14.93c-12.42 16.02-25.23 32.67-37.84 47.55q-13.56 16-22.42 26.44-1.05 1.24-2.89 2.2a2.967 2.801-62.588 0 1-.86.3q-9.39 1.71-23.63 1.79-13.2.08-19.52-.25c-6.46-.34-12.21-2.17-19.08-2.36a7.836 7.71 53.232 0 1-1.83-.28q-9.84-2.7-16.14-4.5c-10.74-3.07-23.9-8.79-31.64-12.2q-13.53-5.94-26.5-13.88"></path><path fill="#144aa2" fill-rule="evenodd" d="M449.42 874.88q2.71-3.89 5.56-6.64 15.56-15.03 24.52-24.74c17.87-19.37 34.01-35.16 55.23-56.11 12.48-12.32 24.74-25.1 38.5-39.17q8.24-8.43 15.62-14.42 5.83-.06 12.29-.42c4.8-.27 8.97-2.03 13.55-2.11 4.93-.09 8.97-.05 13.02-.76 7.46-1.3 16.33-1.31 23.72-2.1q16.48-1.77 31.82-4.93 2.21-.45 3.81.99 22.68 20.41 35.11 35.32 7.97 9.56 16.79 25.72 6.91 12.66 13.23 28.56 4.38 11.01 6.08 23.43c1.33 9.71-1.17 17.99-5.22 28.12-3.76 9.45-9.02 18.68-14.41 28.52q-2.37 4.31-5.86 9.78-12.77 20.01-27.22 41.21-3.32 4.86-5.03 6.9c-2.57 3.07-5.62 6.63-7.97 10.55q-1.31 2.18-4.79 2.95-8.96 1.99-24.47 4.86-11.33 2.09-24.7 3.52-15.01 1.61-32.6 2.78l-14.4-.02c-7.11-.01-13.06-1.3-20.29-1.47q-2.25-.05-8.1-.73-15.67-1.81-34.21-4.72-9.17-1.44-19.03-3.95c-4.37-1.12-7.4-4.24-9.98-8.05q-4.22-6.21-13.61-19.35-5.98-8.36-10.93-16.77c-4.48-7.63-9.8-14.8-14.28-22.97q-6.32-11.54-11.75-23.78"></path><path fill="#4d4e4e" fill-rule="evenodd" d="M539.79 731.31q-2.05 1.01-3.37 2.37c-2.49 2.56-4.81 5.26-7.4 7.59q-5.2 4.68-12.59 11.91-33.36 32.65-66.92 67.3-2.63 2.72-7.88 7.67-4.12 3.9-7.83 7.74-.25-4.01-3.02-10.39c-2-4.61-.25-8.35 3.34-12.12q.38-.4 4.95-5.89c4.52-5.44 7.93-10.27 12.95-15.71q7.22-7.82 21.52-26.26 10.46-13.5 13.89-18.35 3.95-5.59 11.51-14.84a7.837 7.514 80.665 0 0 .7-1.02q1.44-2.51 3.03-4.31a1.367 1.352 24.281 0 1 1.21-.45z"></path><path fill="#ffcb2b" fill-rule="evenodd" d="M588.85 733.8q-7.38 5.99-15.62 14.42c-13.76 14.07-26.02 26.85-38.5 39.17-21.22 20.95-37.36 36.74-55.23 56.11q-8.96 9.71-24.52 24.74-2.85 2.75-5.56 6.64l-15.62-38.99q3.71-3.84 7.83-7.74 5.25-4.95 7.88-7.67 33.56-34.65 66.92-67.3 7.39-7.23 12.59-11.91c2.59-2.33 4.91-5.03 7.4-7.59q1.32-1.36 3.37-2.37 3.6.87 7.52 1.1 20.26 1.19 41.54 1.39M258.32 762.42q9.87 14.73 11.58 33.08.44 4.72.04 7.82-7.64 4.02-16.49 11.88-4.57 4.06-17.86 14.01c-2.18 1.63-3.51 4-5.62 5.91q-10.55-15.98-18.93-33.39 6.1-4.4 11.91-9.18 8.44-6.95 11.68-9.47 7.63-5.94 15.07-12.11c2.96-2.46 5.56-5.77 8.62-8.55"></path><path fill="#4d4e4e" fill-rule="evenodd" d="m269.94 803.32-.41.97a.785.772 35.783 0 0 .14.82q1.11 1.22 1.21 2.23 4.08 43.01 9.71 80.94.97 6.49 1.02 8.47.03.87-.01.99a1.474 1.474-55.261 0 1-2.59.47c-1.86-2.48-4.17-4.28-5.94-6.32q-5.92-6.82-8.18-9.72c-1.42-1.8-3.66-3.58-4.68-5.13q-1.46-2.25-12.03-15.2-2.54-3.1-7.21-9.7-2.01-2.83-7.21-9.64-2.3-3.02-3.79-7.38c2.11-1.91 3.44-4.28 5.62-5.91q13.29-9.95 17.86-14.01 8.85-7.86 16.49-11.88"></path><path fill="#144aa2" fill-rule="evenodd" d="M1103.68 939.42q-.25 5.86-1.7 11.96a2.719 1.774 66.808 0 0-.07.4l-7.71 100.36a7.366 7.302-27.394 0 1-1.06 3.29q-1.9 3.15-3.78 5.19-38.83 42.18-49.3 52.7-13.57 13.64-33.48 31.22-6.26 5.53-15.64 12.87c-6.16 4.82-13.36 10.96-21.15 16.86q-37.6 28.46-45.19 33.83-2.84 2.02-4.76 4.29a5.523 5.492 65.446 0 0-1.29 3.49c-.1 13.8-1.61 27.98-2.54 42.33-.57 8.83-1.13 11.71-1.19 20.47-.04 6.05-2.68 13.93-1.47 19.05a1.235 1.233-20.876 0 0 1.79.8q10.3-5.56 16.8-8.82c17.64-8.83 34.26-19.52 50.32-30.97q34.1-24.3 67.49-53.99 1.54-1.37 3.48-1.45a.942.94-88.925 0 1 .98 1.02c-.34 3.67-1.05 7.57-1.35 11.21q-6.09 72.79-7.68 87.4-.28 2.55-2.42 4.34-12.27 10.19-26.37 20.63c-28.16 20.86-57.42 40.09-88.06 55.39q-12.41 6.21-22.15 11.6-1.35.75-2.46 3.27a2.188 2.156-33.273 0 0-.17.79q-.11 6.28-1.75 30.55-4.23 62.42-7.98 124.49c-2.32 38.34-4.64 68.22-6.54 99.02q-.2 3.21-1.62 10.31a1.089 1.07 83.133 0 1-.57.74q-1.41.72-3.09.73-46.87.33-96.25-.49-1.8-.03-3.17-.57a.915.913 9.797 0 1-.58-.82q-.06-1.23.3-7.16 2.53-42.63 4.72-94.75 2.1-50.22 4.54-96.69c.33-6.18.1-11.67.63-17.34q.87-9.19.86-20.29c-.01-6.99.88-14.53.94-19.66q.12-9.29 1.31-27.18c.53-7.86.14-14.55 1.08-21.21q.92-6.46.78-11.79c-.14-5.2-.42-10.42.18-15.77.83-7.42 1.42-15.04.75-22.6q-.27-2.95.47-6.79c1.91-9.93.36-21.11 1.54-31.27q.96-8.19.99-18.56c.02-5.82 1.41-13.83 1.27-19.35q-.28-11.21-.25-13.84a15.176 14.781-39.67 0 1 .29-2.72c1.82-9.01 1.32-19.2 1.37-25.84.05-5.94 1.18-11.87 1.38-17.29a2.013 1.99 81.477 0 1 1.33-1.82c12.6-4.45 20.85-8.27 38.42-15.93 14.62-6.36 29.12-13.43 41.97-20.71 9.51-5.38 22.71-12.81 34.69-20.41q16.44-10.44 26.2-17.43 1.47-1.05 15.47-11.52 10.1-7.55 15.29-11.78 31.58-25.72 57.78-53.16 13.31-13.93 26.19-29.28 14.41-17.15 32.5-41.87c3.03-4.14 4.36-5.51 7.95-9.77a.42.419-23.58 0 1 .74.29M93.66 954.33a.429.429 11.873 0 1 .66-.43q2.05 1.35 3.48 3.44 4.07 5.94 5.94 8.34 17.88 23.03 46.86 54.59 7.88 8.58 18.55 18.77 12.52 11.95 19.55 17.83c9.49 7.95 20.04 17.27 29.44 24.36q30.63 23.11 54.96 37.9 74.38 45.22 157.23 67.72 6.6 1.8 17.24 4.87a2.931 2.919 5.11 0 1 2.09 2.49c.94 8.82.89 17.92 1.06 33.95q.15 14.46.78 26.66.66 12.78.71 26.99a.437.429 5.543 0 1-.52.42q-25.1-5.31-48.68-12.52-8.04-2.46-32.45-10.69c-8.22-2.77-16.88-6.36-23.7-9.13q-1.56-.64-3.35-.95a.553.55-83.407 0 0-.64.51c-.56 8.77.66 18.28 1.03 26.88 1.4 32.6 3.93 68.21 5.41 97.44 1.58 31.02 4.12 65.58 5.71 97.48q1.51 30.35 3.73 64c1.24 18.76 1.98 40.21 3.26 57q2.09 27.53 3.96 64.5.15 2.97.65 7.79a.303.292 87.312 0 1-.29.33q-43.82.15-88.1-.18-3.54-.02-3.85-3.22-3.48-35.25-9.41-100.47-9.02-99.33-11.25-125-1.21-13.94-1.87-20.36c-1.77-17.38-2.85-33.6-4.42-49.21-3.64-36.27-7.26-86.92-12.59-138.55q-1.24-12.03-3.25-37.75-.17-2.24-1.54-4.16-.94-1.33-3.34-3.18-26.64-20.4-30.98-23.97-21.81-17.93-40.29-36.15c-17.88-17.62-30.05-29.2-43.8-46.15-4.72-5.83-5.74-14.57-6.81-23.03q-1.66-13.25-5.93-51.32-1.68-14.97-2.31-29.6c-.28-6.6-1.93-12.46-2.93-18.24M463.52 1011.94q-.31-1.78 1.6-3.6 8.56-8.18 33.39-29.69c1.75-1.52 3.47-3.69 5.2-5.34a3.324 3.31 31.011 0 1 3.2-.79c5.52 1.55 10.68 2.95 16.12 3.8 8.26 1.29 13.56 2.69 20.31 3.17 7.92.58 14.22 2.06 22.27 2.16q1.44.02 12.14 1.16 7.98.85 24.4.74c9.61-.06 20.84-2.03 29.35-2.16 6.91-.1 11.5-1.18 17.94-1.64 8.29-.6 17.61-2.51 25.19-4.59q1.65-.45 12.69-2.21 4.49-.71 7.27 2.44c3.13 3.56 6.55 8.43 10.21 12.03q12.46 12.26 20.69 21.45.81.9 1.03 1.75a1.804 1.795 76.442 0 1-1.35 2.22q-15.31 3.37-28.28 6.7c-5.72 1.47-11.69 2.5-17.15 3.73q-3.74.85-6.89 1.41-11.08 1.99-35.6 5.54-5.14.75-8.3.52-5.44-.41-6.37-.1c-1.54.5-6.64.84-8.52.92-18.19.85-36.65 1.09-54.63-.68-7.83-.78-14.28-.94-22.19-2.25q-30.17-5-30.2-5-20.17-3.8-37.16-9.01-1.71-.52-4.17-.86a2.655 2.132.963 0 1-2.19-1.82"></path><path fill="#31a24d" fill-rule="evenodd" d="M492.85 1200.82q.86-.07 1.4.01 36.64 5.73 75.25 7.46 7.83.35 14.98 1.04c10.3.99 20.93-.52 30.61-.86q20.36-.73 32.15-2.05 25.96-2.9 44.01-5.65c21.53-3.28 42.69-8.56 65.07-13.77a.799.794-5.244 0 1 .98.81l-4.36 86.7a1.824 1.822-2.285 0 1-1.58 1.71q-9.76 1.29-17.68 3.37-10.05 2.63-17.48 3.87-1.45.24-18.2 3.74-5.45 1.13-27.98 4.23-12.27 1.69-28.11 3.06-30.16 2.61-38.56 3.11-.62.04-3.4.46a.81.805-88.923 0 0-.66.64q-.65 3.44-.65 5.55 0 59.42.04 70.25.01 3.91.39 6.19a1.102 1.099 89.628 0 0 .92.91q4.13.6 9.07.17 14.01-1.23 24.69-1.63 17.27-.63 39-3.44 26.85-3.46 51.76-8.08a1.185 1.182-5.038 0 1 1.4 1.17l-.65 86.67a1.26 1.258 86.896 0 1-1.11 1.24q-11.69 1.32-30.59 4.15-14.01 2.1-30.69 3.65-33.4 3.11-61.09 3.83a1.727 1.72 3.369 0 0-1.66 1.47q-.35 2.41-.35 4.45.05 104.95.24 188.55a.691.68-.868 0 1-.67.68c-30.85.62-61.66.54-92.19 0a.72.72 40.331 0 1-.7-.7l-14.07-462.42a.522.512 86.542 0 1 .47-.54"></path><path fill="#144aa2" fill-rule="evenodd" d="M126.72 1649.78q-2.06-1.56-6-5.16-16.41-14.98-16.03-39.04.36-22.8 16.37-37.76 15.92-14.88 37.46-15.32 9.57-.2 20.89 4.21c17.52 6.82 30.12 22.04 34.06 40.31 4.21 19.57-4.26 39-19.91 51.33q-12.21 9.62-27.98 12.32c-13.31 2.28-28.22-2.82-38.86-10.89M964.253 1649.733q-2.061-1.561-6.004-5.164-16.421-14.991-16.041-39.067.361-22.816 16.382-37.787 15.931-14.89 37.486-15.33 9.577-.2 20.905 4.213c17.532 6.825 30.141 22.056 34.083 40.339 4.213 19.584-4.263 39.027-19.924 51.365q-12.219 9.627-28 12.329c-13.319 2.281-28.239-2.823-38.887-10.898M277 1975.9q-171.24-.1-195.5-.28-21.02-.16-36.5-.77-4.5-.18-10.02-1.59c-14.89-3.81-16.05-16.45-16.1-29.51q-.4-96.33-.21-197.72.01-4.62 1.24-7.09c3.79-7.59 9.02-12.47 17.6-13.24q3.88-.35 13.25-.74 18.78-.78 62.26-.38 24.24.22 46.45.26 111.34.2 208.48-.28 22.86-.11 72.1.22 25.67.17 72.12.11 15.31-.02 25.67.16c11.45.21 22.98-.18 34.22-.2 70.39-.14 123.03-.58 180.25-.1q32.57.27 111.69.66 22.68.12 129.75-.95 28.08-.28 107.58-.14c9.23.01 19.02.45 27.67.66 5.34.14 12.08.37 16.66 3.1 9.97 5.95 9.9 14.41 9.87 25.67-.1 38.77.22 67.58-.05 108.33q-.33 47.78.09 84.21.03 1.88-.48 9.38-.51 7.53-5.18 11.68-6.86 6.12-16.42 7.16-8.41.93-20.74 1.06-63.62.71-148.53.23-3.31-.02-3.93-.09c-2.45-.32-4.78.19-7.4.19-104.53-.15-156.89-.01-285.98.17q-28.16.03-52.82-.15c-22.77-.18-44.34.05-70.46 0q-181.83-.36-265.13-.02zm863.72-18.67q.87-3.76 1.05-8.73.34-9.13.34-20.5-.04-102.19-.19-177.5 0-3.89-.68-7.58a1.984 1.962 6.656 0 0-1.16-1.45c-5.86-2.52-12.34-2.06-19.33-1.98q-7.94.09-34.5.2-179.45.78-371.5.39-55.99-.12-120-.02-172.68.27-363.25.2-86.46-.03-179.5-.85-9.59-.08-14.77 1.06c-3.36.75-4.42 5.66-4.72 8.53q-.65 6.26-.61 10.91.43 55.26.42 106.37c-.01 26.8.42 47.32.49 73.91q.01 3.03.48 8.3.54 6.1 1.31 8.22 1.13 3.15 4.16 3.27 9.98.4 22.99.42c165.02.24 231.19.62 350.74.15 109.02-.43 226.01.36 339.78-.06q64.64-.24 289.89.18c25.22.05 58.23-.46 77.34-.3q10.14.08 19.87-1.84a1.737 1.719-88.622 0 0 1.35-1.3"></path><path fill="#ffcb2b" fill-rule="evenodd" d="M1140.72 1957.23a1.737 1.719-88.622 0 1-1.35 1.3q-9.73 1.92-19.87 1.84c-19.11-.16-52.12.35-77.34.3q-225.25-.42-289.89-.18c-113.77.42-230.76-.37-339.78.06-119.55.47-185.72.09-350.74-.15q-13.01-.02-22.99-.42-3.03-.12-4.16-3.27-.77-2.12-1.31-8.22-.47-5.27-.48-8.3c-.07-26.59-.5-47.11-.49-73.91q.01-51.11-.42-106.37-.04-4.65.61-10.91c.3-2.87 1.36-7.78 4.72-8.53q5.18-1.14 14.77-1.06 93.04.82 179.5.85 190.57.07 363.25-.2 64.01-.1 120 .02 192.05.39 371.5-.39 26.56-.11 34.5-.2c6.99-.08 13.47-.54 19.33 1.98a1.984 1.962 6.656 0 1 1.16 1.45q.68 3.69.68 7.58.15 75.31.19 177.5 0 11.37-.34 20.5-.18 4.97-1.05 8.73M131.61 1794.09c1.42-6.32-3.2-12.89-7.57-17.15-6.21-6.04-22.67-5.55-29.99-2.86q-10.43 3.84-12.05 15.17-1.68 11.79 8.54 17.42 8.03 4.42 22.96 7.45 2.04.42 3.96 2.08a1.917 1.903-73.849 0 1 .65 1.19q.73 4.91-1.64 7.58c-5.42 6.14-15.02 5.16-19.75-1.44q-.99-1.39-2.86-4.65c-1.84-3.19-8.21-3.42-11.69-3.15a2.09 2.09-88.289 0 0-1.91 1.8q-.41 2.94.04 5.45c.96 5.26 4.06 11.74 9.02 13.99 5.86 2.67 12.35 3.29 19.4 3.49q9.39.26 14.79-2.85a20.29 20.29 0 0 0 8.39-25.94c-1.71-3.81-7.77-8.96-11.13-10.41-6.05-2.62-14.4-3.54-21.13-5.64q-4.1-1.29-3.74-6.12c.33-4.36 4.15-4.12 7.62-4.15q5.98-.05 10.97 4.13 3.94 3.28 4.53 3.69a5.327 5.311 68.516 0 0 2.38 1.04l8.04 1.34a1.911 1.9 10.899 0 0 2.17-1.46m281.28 22.2c-1.52 6.15.13 10.96 3.74 15.98 6.73 9.38 20.04 7.96 30.39 7.88 6.26-.05 12.2-2.56 15.52-8.07q3.55-5.88 3.91-9 1.65-14.4-11.01-20.82c-7.42-3.77-17.04-4.77-23.66-7.65-3.34-1.45-5.92-5.31-1.9-7.76 4.81-2.94 12.04-1.38 16.39 1.48a4.5 4.411-5.767 0 1 .65.52c4.75 4.65 9.24 7.4 15.61 6.83a2.413 2.41-89.708 0 0 2.18-2.16q.6-5.72-3.17-11.13-6.33-9.07-17.27-9.97c-8.52-.7-18.22-.42-24.36 6.44q-7.42 8.3-5.08 18.87c.65 2.94 2.09 4.55 4.48 6.23q7.07 4.96 16.18 7.83c4.63 1.46 10.08 2.28 14.71 4.56 3.57 1.76 1.74 5.98-.42 8.21-5.67 5.87-15.2 5.59-20.13-.95q-3.76-4.99-3.77-5c-2.56-2.94-8.23-3.51-11.9-3.24a1.225 1.214 4.586 0 0-1.09.92m126.22.59c.87 7.14 8.17 15.13 13.9 19.39 5.96 4.42 15.34 4.48 23.03 4.14 12.04-.52 19.45-7.53 24.67-17.83q2.85-5.61 3.15-12 .73-15.65-8.97-27.91-8.54-10.79-22.36-10.51-5.27.11-9.57.75c-11.83 1.78-20.51 11.7-23.15 23.09q-2.12 9.18-.7 20.88m213.1 22.4a.567.566-9.633 0 0 .54-.76q-4.44-12.11-10.18-25.47c-3.84-8.93-7.49-20.19-10.95-28.16q-2.47-5.7-5.19-9.23c-2.45-3.18-6.83-2.76-10.76-2.43q-2.09.17-3.61 2.81-4.03 6.97-4.49 8.02-8.81 20.3-15.15 40.09c-1.22 3.8-2.78 7.12-4.35 11.89q-.41 1.25-1.51 1.46a1.121 1.045 84.572 0 1-1.24-1.1q-.05-4.53-.48-7.22a1.597 1.591 1.92 0 0-1.22-1.3q-2.08-.47-3.49-.51-.65-.03-26.56-.24a1.54 1.54-48.837 0 1-1.53-1.55l.37-50a1.53 1.52.186 0 0-1.53-1.53h-11.95a.86.85 0 0 0-.86.85q.06 22.72.01 59.47 0 1.39.42 3.35a1.853 1.846 88.154 0 0 1.53 1.44q2.43.37 5.48.41 6.59.09 26.76-.06 5.33-.04 9.5-.29c5.55-.35 12.47.62 18.8-.5a2.13 2.13 1.019 0 0 1.71-1.65c.85-3.96 2.34-10.61 5.32-12.52a1.888 1.863-60.797 0 1 1-.29h20.13a2.533 2.53-15.704 0 1 2.16 1.21q3.31 5.4 4.58 11.79a2.404 2.388-5.322 0 0 2.33 1.92zm248.16-3.39q-2.71-3.07-5.7-7.91c-3.4-5.48-5.39-7.61-9.74-13.09q-1.02-1.29-1.74-3.28a1.747 1.738 69.603 0 1 1.01-2.22c4.09-1.59 6.91-2.78 9.08-6.59q4.25-7.45 1.9-16.31c-2.02-7.57-6.71-11.83-14.66-12.21q-11.71-.56-35.77-.26-2.06.02-3.06.46a.584.569 78.379 0 0-.34.53l-.48 63.94a.455.447-86.41 0 0 .39.45q7.34.91 13.97-.33a1.122 1.105 84.734 0 0 .9-1.1v-25.74a.827.824 2.55 0 1 .9-.82q8.51.79 13.28 7.79 2.89 4.24 10.26 15.44c1.5 2.28 3.11 3.83 5.71 4.11q13.6 1.46 27.69-.03 2.74-.29 3.54-3.2 1.56-5.68 3.73-10.45a1.09 1.085-77.763 0 1 .99-.64l22.62.17a1.325 1.296-9.091 0 1 1.23.87l4.19 11.71a2.951 2.948 83.78 0 0 2.4 1.93q7.11.9 13.74-.4a.723.721-16.661 0 0 .53-.98q-12.12-29.88-20.87-52.54c-1.35-3.51-4.81-11.39-8.51-11.93q-3.71-.55-7.71.12c-4.06.67-8.79 12.22-10.29 16.3q-5.84 15.94-12.15 31.75-1.96 4.92-3.99 11.46-.71 2.31-2.17 3.15a.711.71 54.633 0 1-.88-.15m-169.54-35.03q.73 17.99-1.43 37.55a1.015 1.013 3.557 0 0 1 1.13l13.04.1a.72.72-10.409 0 0 .72-.72q.15-44.19.11-50.63-.03-4.35-.36-9.87-.12-1.89-.86-3.37a1.667 1.653-8.051 0 0-1.18-.88q-5.55-1.02-12.07-.92c-3.57.05-5.73-.48-6.87 2.96q-2.56 7.75-3.34 9.82-2.13 5.66-2.75 9.99-.73 5.16-3.96 17.12a.747.746 44.583 0 1-1.44.01q-1.48-5.27-2.74-12.17c-1.52-8.27-4.84-16.52-7.39-24.77q-.77-2.49-3.79-2.55-11.1-.22-13.27-.13-2.1.08-3.21.56a1.11 1.11-.356 0 0-.64.76q-1.03 4.17-1.03 4.92-.19 35.15-.52 58.06a1.303 1.295 3.645 0 0 1.16 1.31q6.76.79 13.65-.06a.719.714-4.034 0 0 .63-.72q-.24-14.34-.25-26.95-.01-5.55-.76-10.48a.443.439 28.833 0 1 .84-.24q4.09 9.04 6.19 19.26 3.16 15.47 3.59 17.5a1.712 1.71 86.764 0 0 1.51 1.35q7.64.72 14.37-.39a1.204 1.189-89.942 0 0 .98-.99q2.08-12.58 5.64-26.74c.85-3.41 2.48-6.45 3.73-9.93a.361.361 53.923 0 1 .7.11m-673.56 10.53 23.39.17a1.44 1.43-89.601 0 1 1.42 1.45l-.19 25.41a1.16 1.15.251 0 0 1.15 1.15l13.31.1a1.06 1.054-86.714 0 0 1.06-.95q.18-1.63.15-3.97-.3-23.84-.04-55.5.02-1.98-.37-4.21a.766.764.57 0 0-.61-.62q-7.13-1.36-13.04-.83a.859.849 89.253 0 0-.78.81l-1.2 23.71a1.352 1.351-88.457 0 1-1.36 1.29l-22.47-.17a1.381 1.373 1.593 0 1-1.37-1.44l1.12-22.15a1.324 1.319-83.803 0 0-1.09-1.36q-5.67-1.01-11.83-.12a1.176 1.176-4.027 0 0-1 1.15l-.46 61.53a2.274 2.266-86.622 0 0 2.01 2.27q5.51.65 11.39-.44a.751.75-6.294 0 0 .61-.76l-.77-25.53a.961.952-.849 0 1 .97-.99m65.593-36.006a1.41 1.41 0 0 0-1.392-1.427l-12.159-.149a1.41 1.41 0 0 0-1.427 1.393l-.768 62.855a1.41 1.41 0 0 0 1.392 1.427l12.159.149a1.41 1.41 0 0 0 1.427-1.393zm162.557 63.676-26.01-38.53a.783.775 40.822 0 1-.06-.77q.73-1.5 1.68-2.48 8.27-8.49 18.71-17.05 2.43-1.99 3.76-4.73a1.231 1.23 15.669 0 0-.99-1.76q-7.38-.72-14.72.11a5.966 5.894 22.485 0 0-2.97 1.21c-7.23 5.65-14.37 13.19-19.89 19.94a6.3 6.3 46.985 0 1-.79.79l-5.08 4.22a.747.747 65.636 0 1-1.22-.46q-.1-.66-.12-1.54l-.03-1.54q1.67-10.83.94-21.16a1.043 1.039 1.344 0 0-.92-.96q-6.01-.73-11.64.06a1.468 1.46 86.122 0 0-1.25 1.44l-.47 62.98a.402.393-87.675 0 0 .36.4q6.61.68 13.91-.22a.595.594 82.875 0 0 .52-.67q-.59-4.68-1.47-10.95-.4-2.89.71-4.56 4.4-6.62 9.93-11.9a1.484 1.484 57.621 0 1 2.41.54q3.36 8.75 8.53 16.02c2.24 3.16 4.36 7.75 5.88 9.96a2.697 2.634 2.051 0 0 .61.64q1.35 1.02 6.25 1.45 6.74.59 13.22-.04a.286.284-19.756 0 0 .21-.44m18.661-63.686a1.62 1.62 0 0 0-1.626-1.614l-11.52.04a1.62 1.62 0 0 0-1.614 1.626l.218 62.64a1.62 1.62 0 0 0 1.626 1.614l11.52-.04a1.62 1.62 0 0 0 1.614-1.626zm467.269 39.766c12.72.88 21.84 1.71 31.14-7.06 4.18-3.94 4.99-8.46 4.53-14.09q-.79-9.53-6.57-15.92c-2.39-2.64-4.65-3.62-7.98-4q-5-.59-8.19-.57-8.89.05-26.93.48a1.3 1.3-.895 0 0-1.27 1.31c.05 6.03-.38 11.56-.27 16.97q.48 23.97-.67 46.05a1.291 1.283 1.7 0 0 1.28 1.35l13.25.1a.85.84 0 0 0 .85-.84v-23.01a.774.772 2.073 0 1 .83-.77m-578.48 24.51a.356.348 77.64 0 0 .3-.48q-.85-2.35-2.2-4.64-3.75-6.37-13.55-19.44-1.36-1.81-2.06-3.79a1.19 1.19-70.508 0 1 .72-1.52c3.87-1.4 8-2.61 9.5-5.58q7.4-14.72-3.78-26.54-2.98-3.15-7.82-3.44-16.53-.97-36.48-.41-1.58.05-2.35.25a1.643 1.641 83.162 0 0-1.24 1.58l-.47 63.01a.704.696-87.31 0 0 .63.7q6.73.65 13.27-.19a.504.496 86.811 0 0 .44-.5v-26.46a.624.622 2.14 0 1 .67-.62c4.16.31 7.61.5 10.24 3.57 5.8 6.74 12.59 14.35 15.68 22.43a1.857 1.835 84.71 0 0 1.38 1.16q8.32 1.55 17.12.91m20.24-64.236a1.58 1.58 0 0 0-1.585-1.574l-11.7.041a1.58 1.58 0 0 0-1.575 1.585l.22 62.86a1.58 1.58 0 0 0 1.585 1.574l11.7-.041a1.58 1.58 0 0 0 1.575-1.585zm178.16 35.606q11.68.77 23.41.14a1.17 1.17-.223 0 1 1.23 1.22l-1.29 25.52a.916.913-84.465 0 0 .78.95q6.38.93 13.55.45a1.054 1.052-2.316 0 0 .98-1.06q-.28-23.3-.59-33.97c-.27-9.08 1.34-20.72-.2-29.32a.74.74-68.999 0 0-.6-.6q-6.2-1.09-11.85-.27a.875.865-3.256 0 0-.74.82l-1.21 23.92a1.131 1.123-86.287 0 1-1.21 1.07q-10.48-.8-21.31.08a1.704 1.698.558 0 1-1.83-1.86q1-10.15.79-19.86-.08-3.65-1.99-4.13c-2.74-.69-7.28-.43-10.18-.31q-3.27.13-3.19 3.69.58 25.26.45 40.5-.09 10.29-.77 18.93a2.231 2.225 8.094 0 0 1.77 2.35c3.83.78 7.56.52 12.01-.03q1.91-.24 1.91-2.06-.02-11.26-.51-25.6a.554.553.941 0 1 .59-.57m439.145-35.563a1.22 1.22 0 0 0-1.222-1.218l-12.34.022a1.22 1.22 0 0 0-1.218 1.222l.11 63a1.22 1.22 0 0 0 1.222 1.218l12.34-.022a1.22 1.22 0 0 0 1.218-1.222zM426.23 1904.81a.441.44-11.95 0 1 .57.37c.82 7.56-5.83 11.96-12.72 12.9-6.67.92-10.93 1.18-15.23-5.11-4.59-6.72-8.91-19.21-4.5-26.85 1.89-3.28 4.34-7.05 7.75-9q7.29-4.16 15.83-.76a5.115 5.08-14.229 0 1 1.32.78q6.41 5.3 7.03 5.7 3.06 1.99 4.11 2.07 2.56.22 7.31.07a.624.619-87.227 0 0 .59-.54q.59-4.78-.32-7.64c-2.17-6.82-7.22-11.74-14.7-13.37-14.61-3.18-29.01-1.63-38.61 10.78q-5.08 6.56-6.25 16.02-2.9 23.42 14.73 35.7c3.76 2.62 6.37 3.09 11 3.68q11.54 1.48 22.11-1.33c5.13-1.36 12.2-6.12 14.1-11.81 1.88-5.66.74-11.99.16-18.22q-.3-3.14-1.51-5.79a.47.462-11.385 0 0-.43-.28l-26.88-.2a2.212 2.211 89.249 0 0-2.22 2.28l.38 12.71a.657.644 1.53 0 0 .6.62c5.33.38 11.73-1.53 15.78-2.78m572.87 25.42q7.09 1.31 12.56.02a3.551 3.543 1.901 0 0 2.56-2.39l4.29-13.63a1.557 1.552-79.856 0 1 1.56-1.09l22.28 1.12a.622.602 61.882 0 1 .28.09c3.73 2.22 5.64 10.38 6.22 14.39a.902.884 4.854 0 0 .62.72c4.03 1.22 9.91.56 14.61.02a.595.59-8.775 0 0 .51-.69q-.52-2.7-1.68-5.77-1.21-3.18-5.33-13.52-14.63-36.67-16.65-41.71-1.29-3.22-2.47-3.76c-3.3-1.5-11.49-1.93-14.35.73q-1.46 1.37-2.17 3.2-2.86 7.4-10.12 25.2c-3.56 8.73-7.11 20.06-10.07 27q-1.98 4.63-2.9 9.71a.306.304-79.937 0 0 .25.36m-852.07-25.26-9.9-39.33a2.897 2.893 85.693 0 0-2.52-2.17c-2.98-.3-12.61-.52-14.75 1.68a3.58 3.441 82.522 0 0-.56.76q-1.38 2.38-2.27 5.87-2.29 9.05-5.63 22.97c-.62 2.58-1.99 4.68-2.21 7.42a.297.296-50.826 0 1-.58.06c-.75-2.65-1.82-5.09-2.46-7.87q-3.52-15.23-6.13-27.64c-.39-1.84-1.19-3.02-3.04-3.23q-5.26-.6-10.24-.21a1.075 1.073-6.283 0 0-.98 1.22q1.79 12.56 4.55 24.47 4.69 20.16 8.83 35.9.99 3.78 3.29 4.78c3.93 1.72 12.36 1.83 14.02-3.69 1.54-5.12 2.57-12.5 4.27-17.22q2.31-6.41 3.41-10.31 2.14-7.65 3.03-13.94a.522.52 36.851 0 1 .99-.14c.85 1.84 2.23 5.8 2.73 8.45q3.21 16.95 8.81 34.27c.54 1.68 1.28 2.79 3.09 3.13 3.73.7 11.83 1.33 13.08-3.84 3.2-13.23 5.48-21.26 8.56-34.95q2.52-11.18 5.94-23.58.5-1.81.21-3.49a.837.828 1.59 0 0-.65-.68q-5.97-1.31-11.12.68a4.127 4.123 1.237 0 0-2.31 2.21q-1.55 3.54-2.23 7.45-.37 2.13-4.23 20.71-.8 3.81-1.23 5.05-1.36 3.93-1.56 5.21a.11.105 43.569 0 1-.21 0m21.64 24.7c4.28.62 10.37 1.26 14.4-.4a3.237 3.22-3.814 0 0 1.9-2.16c1.61-6.08 2.25-9.47 4.3-13.19a1.25 1.25 16.691 0 1 1.19-.64q4.46.31 14.79.83 3.7.18 7.04-.36a1.337 1.325-21.229 0 1 1.31.57c2.63 3.92 3.72 9.05 4.84 13.46a3.18 3.161-2.6 0 0 2.6 2.36q6.57 1 13.39.05a.498.497 79.6 0 0 .42-.61q-.46-1.9-1.71-5.75-.25-.79-12.67-31.88c-3.31-8.3-6.21-16.69-10.13-25.58q-1.25-2.83-4.71-3-5.17-.25-9.45.23a3.519 3.508-80.489 0 0-2.81 2.01c-5.99 12.94-10.75 26-16.82 41.49q-6.63 16.94-7.04 18.39-.91 3.24-1.1 3.77a.32.317-77.618 0 0 .26.41m492.08-.28c4.02.69 11.63 1.63 14.81-.59a1.956 1.936 81.587 0 0 .72-.98c2.19-6.99 2.87-9.47 5-13.96a1.318 1.308-74.232 0 1 1.31-.74q10.81 1.11 21.49.54a1.198 1.187 66.113 0 1 .92.36q1.17 1.23 2.44 4.32 1.82 4.4 3.62 9.79a3.16 3.159 85.611 0 0 2.46 2.11q5.98 1.05 12.76-.13a.753.753 78.129 0 0 .6-.92q-.79-3.18-1.98-6.07-12.74-31-14.7-36.57-3.52-10.06-7.99-19.88c-2.03-4.46-9.82-3.51-14.69-2.85a2.145 2.075 15.477 0 0-1.34.73q-1.41 1.68-2.41 3.99c-5.04 11.58-8.77 22.8-13.58 34.75q-4.45 11.04-9.82 25.44a.5.495-75.231 0 0 .38.66m186.81 1.02q6.03.38 10.72-.11 3.45-.37 4.49-3.74 1.29-4.2 3.98-11.53a2.229 2.22-79.691 0 1 2.1-1.46l21.72.16a1.168 1.156-11.401 0 1 1.05.69q4.28 9.54 5.76 13.19c1.83 4.5 12.27 3.17 15.91 2.39a.724.719 71.752 0 0 .5-1q-9.07-20.58-21.23-53.06-1.26-3.39-3.7-8.89c-.71-1.59-1.85-3.01-3.38-3.31q-4.7-.92-11.48.14a2.604 2.525-71.481 0 0-1.43.74q-1.26 1.27-1.99 2.99-10.55 24.96-19.56 50.95-1.02 2.94-1.35 4.88-.71 4.22-1.02 4.93a1.444 1.425 89.613 0 1-.73.75q-.89.42-.86.79a.535.535-76.35 0 0 .5.5m82.96-41.04q1.66 1.55 2.64 3.23 4.66 8.07 10.99 18.8c2.84 4.8 7 10.27 9.65 16.05 1.91 4.17 12.04 3.26 15.66 2.46a1.515 1.513 83.848 0 0 1.19-1.48v-63.75a.646.644 6.106 0 0-.51-.63q-6.9-1.49-12.16-.23a2.235 2.227 84.525 0 0-1.71 2.08q-.57 14.75-.31 30.89.04 2.68-.71 5.78a.299.297-54.276 0 1-.54.09q-6.37-10.05-11.42-20.16c-3.2-6.39-7.25-13.04-9.98-16.7a4.78 4.78-18.067 0 0-3.76-1.91l-10.35-.12a1.4 1.395 6.329 0 0-1.38 1.1q-.35 1.58-.41 3.37-.36 10.33-.38 41.02 0 1.73 1.34 16.92c.12 1.28-.42 2.74-.19 3.73a.856.854-2.438 0 0 .72.66q5.25.69 9.59-.19a2.282 2.274-5.737 0 0 1.83-2.23v-38.69a.121.118-68.64 0 1 .2-.09m-636.86-3.94q2.34 4.74 3.13 9.32 3.19 18.49 7.97 34.92a1.096 1.078-1.724 0 0 .81.75q5.27 1.19 11.84-.3a2.07 2.07-23.985 0 0 1.56-1.56l10-43.52a.31.309 49.531 0 1 .61.05q1.53 20.22.37 38.65-.21 3.31-.06 5.76a1.164 1.158 1.488 0 0 1.03 1.08q6.2.74 12.93-.5a.417.411 85.065 0 0 .34-.41v-64.62a1.15 1.15 7.698 0 0-1.15-1.15h-18.71a2.537 2.527 14.343 0 0-2.22 1.31q-1.27 2.32-2.07 5.32-3.13 11.74-5.1 23.69-.5 2.99-2.24 7.97a.3.297-46.776 0 1-.56.02q-4.12-10.53-6.65-21.34c-1.13-4.83-3.15-9.43-4.52-14.9a3.01 3.01 82.981 0 0-2.92-2.28h-16.92a1.07 1.07-89.73 0 0-1.07 1.06l-.48 64.49a1.207 1.203 2.559 0 0 1.11 1.21q7.39.62 12.35-.32a.826.825-4.661 0 0 .68-.8c.07-6.5-.91-18.32-.43-27.39q.44-8.41.44-10.1c0-2.46-.32-4.23-.42-6.31a.188.184-60.303 0 1 .35-.1m476.04 18.11q-5.99-9.86-14.22-24.48c-2.84-5.03-5.94-8.86-8.33-12.96-2.13-3.66-10.44-2.82-13.62-2.42a1.592 1.587 4.836 0 0-1.32 1.11q-.56 1.79-.63 3.23-1.5 30.65.46 58.93c.09 1.29-.26 2.29-.17 3.09a.81.81 89.056 0 0 .72.72q5.79.54 10.3-.73a1.725 1.72 86.763 0 0 1.22-1.37q.92-5.52.7-12.17-.57-18-.63-26.1a.432.431-65.148 0 1 .76-.28q1.47 1.73 2.64 4.13a6.841 6.778-77.471 0 0 .8 1.27c2.02 2.51 3.46 4.12 4.76 6.62q4.8 9.26 10.29 17.29c1.85 2.7 3.14 5.75 4.91 8.61a4.805 4.772-10.066 0 0 3.13 2.17q5.34 1.06 11.78.53a1.466 1.453-89.744 0 0 1.33-1.33c.49-5.89-.14-12.18.09-18.5q.58-15.83.35-35.14-.06-5.67-.49-11.39a.804.803 88.449 0 0-.79-.75l-11.9-.09a1.36 1.36-82.019 0 0-1.37 1.35l-.29 38.52a.262.257-60.701 0 1-.48.14m-414.71 26.56q6.58 1.02 14.07.06a1.354 1.354 86.807 0 0 1.18-1.32c.05-5.2-.96-10.19-1.1-15.11q-.49-16.55-.36-19.22.72-14.96.27-29.13a1.465 1.462-87.741 0 0-1.3-1.41q-6.03-.67-11.91.47a1.142 1.139 84.48 0 0-.92 1.12l-.48 63.9a.647.642-85.894 0 0 .55.64m109.39-66.06q-6.37-.77-12.32.56a1.58 1.58 82.957 0 0-1.24 1.59q.45 13.37-.07 35.23c-.24 10.28 1.32 18.06 9.57 24.9 5.78 4.79 19.63 4.42 26.56 3.28 11.9-1.95 18-11.68 17.99-23.35 0-13.88-1.03-27.66-.4-40.99a1.03 1.029 5.995 0 0-.86-1.06q-6.38-1.08-12.62-.1a1.054 1.053-4.475 0 0-.89 1.04q-.12 19.54.1 38.21c.02 2.56-.37 8.02-1.42 10.01-2.68 5.06-9.18 5.41-14.25 4.58-9.52-1.56-9.68-13.6-9.64-22.19q.06-12.19.55-30.48a1.206 1.203-85.825 0 0-1.06-1.23m65.77.52q-6.9-1.16-13.24-.09a.864.852 85.27 0 0-.71.85q.04 8.13-.19 27.43c-.15 13.03-.5 23.45 8.42 32.37q3.03 3.03 5.38 3.64 9.67 2.5 20.82 1.25c17.38-1.95 19.7-16.71 19.55-31.01q-.18-16.2.05-33.04a1.764 1.762 1.865 0 0-1.67-1.78l-11.4-.57a1.733 1.731 2.092 0 0-1.82 1.69q-.33 16.11-.4 38.2c-.01 4.78.02 10.37-3.95 12.53q-5.58 3.03-11.69 1.57c-7.93-1.9-8.78-10.42-8.89-17.6q-.21-13.49.85-31.49.09-1.53-.34-3.24a.978.976 87.621 0 0-.77-.71m115.66 10.92q2.63-.03 13.17-.05 3.07-.01 4.12-.96a1.882 1.868 74.219 0 0 .61-1.1q.6-3.42.44-6.38-.13-2.64-2.67-2.76c-16.21-.8-31.43-.43-42.73-.48q-3.55-.02-6.01.51a2.615 2.608-88.89 0 0-1.98 1.91q-.92 3.54-.44 6.29a2.455 2.45 3.543 0 0 1.7 1.92c4.69 1.41 10.76 1 14.71.96 3.71-.05 3.47 1.4 3.48 4.36q.11 23.39-.68 48.78a1.742 1.733 5.441 0 0 1.47 1.77q6 .97 12.92-.65a.842.839 83.532 0 0 .65-.82v-52.04a1.26 1.26-.462 0 1 1.24-1.26m162.68 40.76q.36-1.09 1.32-2.18c10.06-11.5 19.29-23.68 29.13-35.36q4.55-5.41 4.44-12.37a1.597 1.592-86.107 0 0-1.34-1.54q-5.62-.87-12.29-.89-14.52-.04-29.25-.15-2.89-.02-6.37.44a1.005 1 84.506 0 0-.87 1.06l.62 9.75a.542.541 88.314 0 0 .54.51h27.17a.666.66 9.628 0 1 .63.88c-1.08 3.05-3.56 5.33-6.38 8.36q-1.61 1.73-4.8 5.85-5.42 7.01-11.94 14.24-4.01 4.44-6.17 7.33c-3.64 4.88-3.19 10.07-2.69 17.15a.813.811 6.243 0 0 .58.72q1.51.45 3.43.43 18.12-.14 47.01.07 2.02.01 3.1-.46a.53.511-14.228 0 0 .31-.5l-.64-9.95a2.479 2.469-87.218 0 0-2.06-2.28q-2.08-.35-3.72-.38-5.69-.14-29.27-.05a.517.511-81.08 0 1-.49-.68m185.832-49.903a2.46 2.46 0 0 0-2.447-2.473l-9.14-.047a2.46 2.46 0 0 0-2.473 2.447l-.324 61.919a2.46 2.46 0 0 0 2.447 2.473l9.14.047a2.46 2.46 0 0 0 2.473-2.447z"></path><path fill="#020202" fill-rule="evenodd" d="M131.61 1794.09a1.911 1.9 10.899 0 1-2.17 1.46l-8.04-1.34a5.327 5.311 68.516 0 1-2.38-1.04q-.59-.41-4.53-3.69-4.99-4.18-10.97-4.13c-3.47.03-7.29-.21-7.62 4.15q-.36 4.83 3.74 6.12c6.73 2.1 15.08 3.02 21.13 5.64 3.36 1.45 9.42 6.6 11.13 10.41 4.31 9.65.6 20.76-8.39 25.94q-5.4 3.11-14.79 2.85c-7.05-.2-13.54-.82-19.4-3.49-4.96-2.25-8.06-8.73-9.02-13.99q-.45-2.51-.04-5.45a2.09 2.09-88.289 0 1 1.91-1.8c3.48-.27 9.85-.04 11.69 3.15q1.87 3.26 2.86 4.65c4.73 6.6 14.33 7.58 19.75 1.44q2.37-2.67 1.64-7.58a1.917 1.903-73.849 0 0-.65-1.19q-1.92-1.66-3.96-2.08-14.93-3.03-22.96-7.45-10.22-5.63-8.54-17.42 1.62-11.33 12.05-15.17c7.32-2.69 23.78-3.18 29.99 2.86 4.37 4.26 8.99 10.83 7.57 17.15M412.89 1816.29a1.225 1.214 4.586 0 1 1.09-.92c3.67-.27 9.34.3 11.9 3.24q.01.01 3.77 5c4.93 6.54 14.46 6.82 20.13.95 2.16-2.23 3.99-6.45.42-8.21-4.63-2.28-10.08-3.1-14.71-4.56q-9.11-2.87-16.18-7.83c-2.39-1.68-3.83-3.29-4.48-6.23q-2.34-10.57 5.08-18.87c6.14-6.86 15.84-7.14 24.36-6.44q10.94.9 17.27 9.97 3.77 5.41 3.17 11.13a2.413 2.41-89.708 0 1-2.18 2.16c-6.37.57-10.86-2.18-15.61-6.83a4.5 4.411-5.767 0 0-.65-.52c-4.35-2.86-11.58-4.42-16.39-1.48-4.02 2.45-1.44 6.31 1.9 7.76 6.62 2.88 16.24 3.88 23.66 7.65q12.66 6.42 11.01 20.82-.36 3.12-3.91 9c-3.32 5.51-9.26 8.02-15.52 8.07-10.35.08-23.66 1.5-30.39-7.88-3.61-5.02-5.26-9.83-3.74-15.98M553.01 1836.27c-5.73-4.26-13.03-12.25-13.9-19.39q-1.42-11.7.7-20.88c2.64-11.39 11.32-21.31 23.15-23.09q4.3-.64 9.57-.75 13.82-.28 22.36 10.51 9.7 12.26 8.97 27.91-.3 6.39-3.15 12c-5.22 10.3-12.63 17.31-24.67 17.83-7.69.34-17.07.28-23.03-4.14m18.459-51.315a21.92 18.16-88.8 0 0-18.615 21.535 21.92 18.16-88.8 0 0 17.697 22.295 21.92 18.16-88.8 0 0 18.615-21.535 21.92 18.16-88.8 0 0-17.697-22.295M752.21 1839.28l-14.41-.1a2.404 2.388-5.322 0 1-2.33-1.92q-1.27-6.39-4.58-11.79a2.533 2.53-15.704 0 0-2.16-1.21H708.6a1.888 1.863-60.797 0 0-1 .29c-2.98 1.91-4.47 8.56-5.32 12.52a2.13 2.13 1.019 0 1-1.71 1.65c-6.33 1.12-13.25.15-18.8.5q-4.17.25-9.5.29-20.17.15-26.76.06-3.05-.04-5.48-.41a1.853 1.846 88.154 0 1-1.53-1.44q-.42-1.96-.42-3.35.05-36.75-.01-59.47a.86.85 0 0 1 .86-.85h11.95a1.53 1.52.186 0 1 1.53 1.53l-.37 50a1.54 1.54-70.215 0 0 1.53 1.55q25.91.21 26.56.24 1.41.04 3.49.51a1.597 1.591 1.92 0 1 1.22 1.3q.43 2.69.48 7.22a1.121 1.045 84.572 0 0 1.24 1.1q1.1-.21 1.51-1.46c1.57-4.77 3.13-8.09 4.35-11.89q6.34-19.79 15.15-40.09.46-1.05 4.49-8.02 1.52-2.64 3.61-2.81c3.93-.33 8.31-.75 10.76 2.43q2.72 3.53 5.19 9.23c3.46 7.97 7.11 19.23 10.95 28.16q5.74 13.36 10.18 25.47a.567.566-9.633 0 1-.54.76m-40.48-26.19 12.79-.82a2.005 2-13.753 0 0 1.71-2.81l-6.5-14.68a1.058 1.053 41.128 0 0-1.98.13q-2.76 9.59-6.66 17.2a.675.671-78.342 0 0 .64.98M1001.25 1836.04q1.46-.84 2.17-3.15 2.03-6.54 3.99-11.46 6.31-15.81 12.15-31.75c1.5-4.08 6.23-15.63 10.29-16.3q4-.67 7.71-.12c3.7.54 7.16 8.42 8.51 11.93q8.75 22.66 20.87 52.54a.723.721-16.661 0 1-.53.98q-6.63 1.3-13.74.4a2.951 2.948 83.78 0 1-2.4-1.93l-4.19-11.71a1.325 1.296-9.091 0 0-1.23-.87l-22.62-.17a1.09 1.085-77.763 0 0-.99.64q-2.17 4.77-3.73 10.45-.8 2.91-3.54 3.2-14.09 1.49-27.69.03c-2.6-.28-4.21-1.83-5.71-4.11q-7.37-11.2-10.26-15.44-4.77-7-13.28-7.79a.827.824 2.55 0 0-.9.82v25.74a1.122 1.105 84.734 0 1-.9 1.1q-6.63 1.24-13.97.33a.455.447-86.41 0 1-.39-.45l.48-63.94a.584.569 78.379 0 1 .34-.53q1-.44 3.06-.46 24.06-.3 35.77.26c7.95.38 12.64 4.64 14.66 12.21q2.35 8.86-1.9 16.31c-2.17 3.81-4.99 5-9.08 6.59a1.747 1.738 69.603 0 0-1.01 2.22q.72 1.99 1.74 3.28c4.35 5.48 6.34 7.61 9.74 13.09q2.99 4.84 5.7 7.91a.711.71 54.633 0 0 .88.15m-46.215-47.528.195 10.118a1.93 1.93 78.678 0 0 1.966 1.892l17.877-.343a6.31 5.9-1.1 0 0 6.195-6.02l-.041-2.18a6.31 5.9-1.1 0 0-6.422-5.777l-17.877.343a1.93 1.93 79.937 0 0-1.893 1.967m71.061 22.15a1.33 1.33 12.646 0 0 1.248 1.819l12.59-.11a1.33 1.33 59.585 0 0 1.217-1.84l-6.431-15.466a1.33 1.33 78.709 0 0-2.465.022zM830.83 1800.86a.361.361 53.923 0 0-.7-.11c-1.25 3.48-2.88 6.52-3.73 9.93q-3.56 14.16-5.64 26.74a1.204 1.189-89.942 0 1-.98.99q-6.73 1.11-14.37.39a1.712 1.71 86.764 0 1-1.51-1.35q-.43-2.03-3.59-17.5-2.1-10.22-6.19-19.26a.443.439 28.833 0 0-.84.24q.75 4.93.76 10.48.01 12.61.25 26.95a.719.714-4.034 0 1-.63.72q-6.89.85-13.65.06a1.303 1.295 3.645 0 1-1.16-1.31q.33-22.91.52-58.06 0-.75 1.03-4.92a1.11 1.11 32.89 0 1 .64-.76q1.11-.48 3.21-.56 2.17-.09 13.27.13 3.02.06 3.79 2.55c2.55 8.25 5.87 16.5 7.39 24.77q1.26 6.9 2.74 12.17a.747.746 44.583 0 0 1.44-.01q3.23-11.96 3.96-17.12.62-4.33 2.75-9.99.78-2.07 3.34-9.82c1.14-3.44 3.3-2.91 6.87-2.96q6.52-.1 12.07.92a1.667 1.653-8.051 0 1 1.18.88q.74 1.48.86 3.37.33 5.52.36 9.87.04 6.44-.11 50.63a.72.72 38.182 0 1-.72.72l-13.04-.1a1.015 1.013 3.557 0 1-1-1.13q2.16-19.56 1.43-37.55M157.27 1811.39a.961.952-.849 0 0-.97.99l.77 25.53a.751.75-6.294 0 1-.61.76q-5.88 1.09-11.39.44a2.274 2.266-86.622 0 1-2.01-2.27l.46-61.53a1.176 1.176-4.027 0 1 1-1.15q6.16-.89 11.83.12a1.324 1.319-83.803 0 1 1.09 1.36l-1.12 22.15a1.381 1.373 1.593 0 0 1.37 1.44l22.47.17a1.352 1.351-88.457 0 0 1.36-1.29l1.2-23.71a.859.849 89.253 0 1 .78-.81q5.91-.53 13.04.83a.766.764.57 0 1 .61.62q.39 2.23.37 4.21-.26 31.66.04 55.5.03 2.34-.15 3.97a1.06 1.054-86.714 0 1-1.06.95l-13.31-.1a1.16 1.15.251 0 1-1.15-1.15l.19-25.41a1.44 1.43-89.601 0 0-1.42-1.45zM222.095 1838.239a1.41 1.41 0 0 1-1.427 1.393l-12.159-.149a1.41 1.41 0 0 1-1.392-1.427l.768-62.855a1.41 1.41 0 0 1 1.427-1.393l12.159.149a1.41 1.41 0 0 1 1.392 1.427zM385.42 1839.06a.286.284-19.756 0 1-.21.44q-6.48.63-13.22.04-4.9-.43-6.25-1.45a2.697 2.634 2.051 0 1-.61-.64c-1.52-2.21-3.64-6.8-5.88-9.96q-5.17-7.27-8.53-16.02a1.484 1.484 57.621 0 0-2.41-.54q-5.53 5.28-9.93 11.9-1.11 1.67-.71 4.56.88 6.27 1.47 10.95a.595.594 82.875 0 1-.52.67q-7.3.9-13.91.22a.402.393-87.675 0 1-.36-.4l.47-62.98a1.468 1.46 86.122 0 1 1.25-1.44q5.63-.79 11.64-.06a1.043 1.039 1.344 0 1 .92.96q.73 10.33-.94 21.16l.03 1.54q.02.88.12 1.54a.747.747 65.636 0 0 1.22.46l5.08-4.22a6.3 6.3-81.09 0 0 .79-.79c5.52-6.75 12.66-14.29 19.89-19.94a5.966 5.894 22.485 0 1 2.97-1.21q7.34-.83 14.72-.11a1.231 1.23 15.669 0 1 .99 1.76q-1.33 2.74-3.76 4.73-10.44 8.56-18.71 17.05-.95.98-1.68 2.48a.783.775 40.822 0 0 .06.77zM404.299 1838.014a1.62 1.62 0 0 1-1.614 1.626l-11.52.04a1.62 1.62 0 0 1-1.626-1.614l-.218-62.64a1.62 1.62 0 0 1 1.614-1.626l11.52-.04a1.62 1.62 0 0 1 1.626 1.614zM870.52 1815.91v23.01a.85.84 0 0 1-.85.84l-13.25-.1a1.291 1.283 1.7 0 1-1.28-1.35q1.15-22.08.67-46.05c-.11-5.41.32-10.94.27-16.97a1.3 1.3-.895 0 1 1.27-1.31q18.04-.43 26.93-.48 3.19-.02 8.19.57c3.33.38 5.59 1.36 7.98 4q5.78 6.39 6.57 15.92c.46 5.63-.35 10.15-4.53 14.09-9.3 8.77-18.42 7.94-31.14 7.06a.774.772 2.073 0 0-.83.77m.85-12.1q9.01.2 16.52-2.2c2.08-.66 2.87-1.58 3.28-3.6.62-3.03 1.57-8.5-1.33-9.88q-2.69-1.27-6.58-1.4-7.47-.25-12.08.04a1.533 1.531-2.69 0 0-1.44 1.58l.43 14.27a1.233 1.233 89.753 0 0 1.2 1.19M292.87 1839.65q-8.8.64-17.12-.91a1.857 1.835 84.71 0 1-1.38-1.16c-3.09-8.08-9.88-15.69-15.68-22.43-2.63-3.07-6.08-3.26-10.24-3.57a.624.622 2.14 0 0-.67.62v26.46a.504.496 86.811 0 1-.44.5q-6.54.84-13.27.19a.704.696-87.31 0 1-.63-.7l.47-63.01a1.643 1.641 83.162 0 1 1.24-1.58q.77-.2 2.35-.25 19.95-.56 36.48.41 4.84.29 7.82 3.44 11.18 11.82 3.78 26.54c-1.5 2.97-5.63 4.18-9.5 5.58a1.19 1.19 57.66 0 0-.72 1.52q.7 1.98 2.06 3.79 9.8 13.07 13.55 19.44 1.35 2.29 2.2 4.64a.356.348 77.64 0 1-.3.48m-45.887-52.422-.105 12.059a.73.73-71.618 0 0 .723.737l20.99.183a4.04 2.82.5 0 0 4.064-2.785l.069-7.879a4.04 2.82.5 0 0-4.015-2.856l-20.99-.183a.73.73 74.166 0 0-.736.724M313.33 1838.274a1.58 1.58 0 0 1-1.575 1.585l-11.7.041a1.58 1.58 0 0 1-1.585-1.574l-.22-62.86a1.58 1.58 0 0 1 1.575-1.585l11.7-.041a1.58 1.58 0 0 1 1.585 1.574zM491.27 1811.02a.554.553.941 0 0-.59.57q.49 14.34.51 25.6 0 1.82-1.91 2.06c-4.45.55-8.18.81-12.01.03a2.231 2.225 8.094 0 1-1.77-2.35q.68-8.64.77-18.93.13-15.24-.45-40.5-.08-3.56 3.19-3.69c2.9-.12 7.44-.38 10.18.31q1.91.48 1.99 4.13.21 9.71-.79 19.86a1.704 1.698.558 0 0 1.83 1.86q10.83-.88 21.31-.08a1.131 1.123-86.287 0 0 1.21-1.07l1.21-23.92a.875.865-3.256 0 1 .74-.82q5.65-.82 11.85.27a.74.74-50.889 0 1 .6.6c1.54 8.6-.07 20.24.2 29.32q.31 10.67.59 33.97a1.054 1.052-2.316 0 1-.98 1.06q-7.17.48-13.55-.45a.916.913-84.465 0 1-.78-.95l1.29-25.52a1.17 1.17-.223 0 0-1.23-1.22q-11.73.63-23.41-.14M930.525 1838.457a1.22 1.22 0 0 1-1.218 1.222l-12.34.022a1.22 1.22 0 0 1-1.222-1.218l-.11-63a1.22 1.22 0 0 1 1.218-1.222l12.34-.022a1.22 1.22 0 0 1 1.222 1.218z"></path><path fill="#ffcb2b" fill-rule="evenodd" d="M571.469 1784.955a21.92 18.16-88.8 0 1 17.697 22.295 21.92 18.16-88.8 0 1-18.615 21.535 21.92 18.16-88.8 0 1-17.697-22.295 21.92 18.16-88.8 0 1 18.615-21.535M246.983 1787.228a.73.73-51.379 0 1 .736-.724l20.99.183a4.04 2.82.5 0 1 4.015 2.856l-.069 7.879a4.04 2.82.5 0 1-4.064 2.785l-20.99-.183a.73.73 49.04 0 1-.723-.737zM955.035 1788.512a1.93 1.93-56.292 0 1 1.893-1.967l17.877-.343a6.31 5.9-1.1 0 1 6.422 5.777l.041 2.18a6.31 5.9-1.1 0 1-6.195 6.02l-17.877.343a1.93 1.93 52.83 0 1-1.966-1.892zM871.37 1803.81a1.233 1.233 89.753 0 1-1.2-1.19l-.43-14.27a1.533 1.531-2.69 0 1 1.44-1.58q4.61-.29 12.08-.04 3.89.13 6.58 1.4c2.9 1.38 1.95 6.85 1.33 9.88-.41 2.02-1.2 2.94-3.28 3.6q-7.51 2.4-16.52 2.2M711.73 1813.09a.675.671-78.342 0 1-.64-.98q3.9-7.61 6.66-17.2a1.058 1.053 41.128 0 1 1.98-.13l6.5 14.68a2.005 2-13.753 0 1-1.71 2.81zM1026.096 1810.662l6.159-15.575a1.33 1.33 66.949 0 1 2.465-.022l6.431 15.466a1.33 1.33-68.767 0 1-1.217 1.84l-12.59.11a1.33 1.33 46.217 0 1-1.248-1.819"></path><path fill="#020202" fill-rule="evenodd" d="M426.23 1904.81c-4.05 1.25-10.45 3.16-15.78 2.78a.657.644 1.53 0 1-.6-.62l-.38-12.71a2.212 2.211 89.249 0 1 2.22-2.28l26.88.2a.47.462-11.385 0 1 .43.28q1.21 2.65 1.51 5.79c.58 6.23 1.72 12.56-.16 18.22-1.9 5.69-8.97 10.45-14.1 11.81q-10.57 2.81-22.11 1.33c-4.63-.59-7.24-1.06-11-3.68q-17.63-12.28-14.73-35.7 1.17-9.46 6.25-16.02c9.6-12.41 24-13.96 38.61-10.78 7.48 1.63 12.53 6.55 14.7 13.37q.91 2.86.32 7.64a.624.619-87.227 0 1-.59.54q-4.75.15-7.31-.07-1.05-.08-4.11-2.07-.62-.4-7.03-5.7a5.115 5.08-14.229 0 0-1.32-.78q-8.54-3.4-15.83.76c-3.41 1.95-5.86 5.72-7.75 9-4.41 7.64-.09 20.13 4.5 26.85 4.3 6.29 8.56 6.03 15.23 5.11 6.89-.94 13.54-5.34 12.72-12.9a.441.44-11.95 0 0-.57-.37M999.1 1930.23a.306.304-79.937 0 1-.25-.36q.92-5.08 2.9-9.71c2.96-6.94 6.51-18.27 10.07-27q7.26-17.8 10.12-25.2.71-1.83 2.17-3.2c2.86-2.66 11.05-2.23 14.35-.73q1.18.54 2.47 3.76 2.02 5.04 16.65 41.71 4.12 10.34 5.33 13.52 1.16 3.07 1.68 5.77a.595.59-8.775 0 1-.51.69c-4.7.54-10.58 1.2-14.61-.02a.902.884 4.854 0 1-.62-.72c-.58-4.01-2.49-12.17-6.22-14.39a.622.602 61.882 0 0-.28-.09l-22.28-1.12a1.557 1.552-79.856 0 0-1.56 1.09l-4.29 13.63a3.551 3.543 1.901 0 1-2.56 2.39q-5.47 1.29-12.56-.02m32.09-48.94a.344.337-54.546 0 0-.62.11q-1.87 8.01-5.9 18.13a1.27 1.267 10.93 0 0 1.18 1.74h10.56a1.117 1.115-7.392 0 0 1.08-1.4q-1-3.72-1.53-6.85c-.8-4.73-2.52-8.12-4.77-11.73M147.24 1904.97q.2-1.28 1.56-5.21.43-1.24 1.23-5.05 3.86-18.58 4.23-20.71.68-3.91 2.23-7.45a4.127 4.123 1.237 0 1 2.31-2.21q5.15-1.99 11.12-.68a.837.828 1.59 0 1 .65.68q.29 1.68-.21 3.49-3.42 12.4-5.94 23.58c-3.08 13.69-5.36 21.72-8.56 34.95-1.25 5.17-9.35 4.54-13.08 3.84-1.81-.34-2.55-1.45-3.09-3.13q-5.6-17.32-8.81-34.27c-.5-2.65-1.88-6.61-2.73-8.45a.522.52 36.851 0 0-.99.14q-.89 6.29-3.03 13.94-1.1 3.9-3.41 10.31c-1.7 4.72-2.73 12.1-4.27 17.22-1.66 5.52-10.09 5.41-14.02 3.69q-2.3-1-3.29-4.78-4.14-15.74-8.83-35.9-2.76-11.91-4.55-24.47a1.075 1.073-6.283 0 1 .98-1.22q4.98-.39 10.24.21c1.85.21 2.65 1.39 3.04 3.23q2.61 12.41 6.13 27.64c.64 2.78 1.71 5.22 2.46 7.87a.297.296-50.826 0 0 .58-.06c.22-2.74 1.59-4.84 2.21-7.42q3.34-13.92 5.63-22.97.89-3.49 2.27-5.87a3.58 3.441 82.522 0 1 .56-.76c2.14-2.2 11.77-1.98 14.75-1.68a2.897 2.893 85.693 0 1 2.52 2.17l9.9 39.33a.11.105 43.569 0 0 .21 0M168.67 1929.67a.32.317-77.618 0 1-.26-.41q.19-.53 1.1-3.77.41-1.45 7.04-18.39c6.07-15.49 10.83-28.55 16.82-41.49a3.519 3.508-80.489 0 1 2.81-2.01q4.28-.48 9.45-.23 3.46.17 4.71 3c3.92 8.89 6.82 17.28 10.13 25.58q12.42 31.09 12.67 31.88 1.25 3.85 1.71 5.75a.498.497 79.6 0 1-.42.61q-6.82.95-13.39-.05a3.18 3.161-2.6 0 1-2.6-2.36c-1.12-4.41-2.21-9.54-4.84-13.46a1.337 1.325-21.229 0 0-1.31-.57q-3.34.54-7.04.36-10.33-.52-14.79-.83a1.25 1.25 16.691 0 0-1.19.64c-2.05 3.72-2.69 7.11-4.3 13.19a3.237 3.22-3.814 0 1-1.9 2.16c-4.03 1.66-10.12 1.02-14.4.4m25.567-28.866a.85.85-80.055 0 0 .835 1.107l12.887-.382a.85.85-17.259 0 0 .768-1.155l-6.988-18.173a.85.85 2.792 0 0-1.604.048zM660.75 1929.39a.5.495-75.231 0 1-.38-.66q5.37-14.4 9.82-25.44c4.81-11.95 8.54-23.17 13.58-34.75q1-2.31 2.41-3.99a2.145 2.075 15.477 0 1 1.34-.73c4.87-.66 12.66-1.61 14.69 2.85q4.47 9.82 7.99 19.88 1.96 5.57 14.7 36.57 1.19 2.89 1.98 6.07a.753.753 78.129 0 1-.6.92q-6.78 1.18-12.76.13a3.16 3.159 85.611 0 1-2.46-2.11q-1.8-5.39-3.62-9.79-1.27-3.09-2.44-4.32a1.198 1.187 66.113 0 0-.92-.36q-10.68.57-21.49-.54a1.318 1.308-74.232 0 0-1.31.74c-2.13 4.49-2.81 6.97-5 13.96a1.956 1.936 81.587 0 1-.72.98c-3.18 2.22-10.79 1.28-14.81.59m32.5-48.29a.356.356-50.063 0 0-.67.06q-2.4 9.62-6.91 19.15a1.241 1.235-79.044 0 0 1.19 1.77l12.28-.79a1.104 1.095-12.45 0 0 .96-1.49q-1.05-2.78-1.54-5.27c-.92-4.66-3.2-8.67-5.31-13.43M847.06 1929.91q-.03-.37.86-.79a1.444 1.425 89.613 0 0 .73-.75q.31-.71 1.02-4.93.33-1.94 1.35-4.88 9.01-25.99 19.56-50.95.73-1.72 1.99-2.99a2.604 2.525-71.481 0 1 1.43-.74q6.78-1.06 11.48-.14c1.53.3 2.67 1.72 3.38 3.31q2.44 5.5 3.7 8.89 12.16 32.48 21.23 53.06a.724.719 71.752 0 1-.5 1c-3.64.78-14.08 2.11-15.91-2.39q-1.48-3.65-5.76-13.19a1.168 1.156-11.401 0 0-1.05-.69l-21.72-.16a2.229 2.22-79.691 0 0-2.1 1.46q-2.69 7.33-3.98 11.53-1.04 3.37-4.49 3.74-4.69.49-10.72.11a.535.535-54.249 0 1-.5-.5m33.179-47.717a.72.72 44.756 0 0-1.354-.006l-7.014 19.106a.72.72 2.567 0 0 .722.966l13.524-.868a.72.72 76.434 0 0 .632-.96zM930.32 1889.46v38.69a2.282 2.274-5.737 0 1-1.83 2.23q-4.34.88-9.59.19a.856.854-2.438 0 1-.72-.66c-.23-.99.31-2.45.19-3.73q-1.34-15.19-1.34-16.92.02-30.69.38-41.02.06-1.79.41-3.37a1.4 1.395 6.329 0 1 1.38-1.1l10.35.12a4.78 4.78-18.067 0 1 3.76 1.91c2.73 3.66 6.78 10.31 9.98 16.7q5.05 10.11 11.42 20.16a.299.297-54.276 0 0 .54-.09q.75-3.1.71-5.78-.26-16.14.31-30.89a2.235 2.227 84.525 0 1 1.71-2.08q5.26-1.26 12.16.23a.646.644 6.106 0 1 .51.63v63.75a1.515 1.513 83.848 0 1-1.19 1.48c-3.62.8-13.75 1.71-15.66-2.46-2.65-5.78-6.81-11.25-9.65-16.05q-6.33-10.73-10.99-18.8-.98-1.68-2.64-3.23a.121.118-68.64 0 0-.2.09M293.66 1885.43a.188.184-60.303 0 0-.35.1c.1 2.08.42 3.85.42 6.31q0 1.69-.44 10.1c-.48 9.07.5 20.89.43 27.39a.826.825-4.661 0 1-.68.8q-4.96.94-12.35.32a1.207 1.203 2.559 0 1-1.11-1.21l.48-64.49a1.07 1.07-89.73 0 1 1.07-1.06h16.92a3.01 3.01 82.981 0 1 2.92 2.28c1.37 5.47 3.39 10.07 4.52 14.9q2.53 10.81 6.65 21.34a.3.297-46.776 0 0 .56-.02q1.74-4.98 2.24-7.97 1.97-11.95 5.1-23.69.8-3 2.07-5.32a2.537 2.527 14.343 0 1 2.22-1.31h18.71a1.15 1.15 33.147 0 1 1.15 1.15v64.62a.417.411 85.065 0 1-.34.41q-6.73 1.24-12.93.5a1.164 1.158 1.488 0 1-1.03-1.08q-.15-2.45.06-5.76 1.16-18.43-.37-38.65a.31.309 49.531 0 0-.61-.05l-10 43.52a2.07 2.07 36.133 0 1-1.56 1.56q-6.57 1.49-11.84.3a1.096 1.078-1.724 0 1-.81-.75q-4.78-16.43-7.97-34.92-.79-4.58-3.13-9.32M770.18 1903.4l.29-38.52a1.36 1.36-56.441 0 1 1.37-1.35l11.9.09a.804.803 88.449 0 1 .79.75q.43 5.72.49 11.39.23 19.31-.35 35.14c-.23 6.32.4 12.61-.09 18.5a1.466 1.453-89.744 0 1-1.33 1.33q-6.44.53-11.78-.53a4.805 4.772-10.066 0 1-3.13-2.17c-1.77-2.86-3.06-5.91-4.91-8.61q-5.49-8.03-10.29-17.29c-1.3-2.5-2.74-4.11-4.76-6.62a6.841 6.778-77.471 0 1-.8-1.27q-1.17-2.4-2.64-4.13a.432.431-65.148 0 0-.76.28q.06 8.1.63 26.1.22 6.65-.7 12.17a1.725 1.72 86.763 0 1-1.22 1.37q-4.51 1.27-10.3.73a.81.81-61.298 0 1-.72-.72c-.09-.8.26-1.8.17-3.09q-1.96-28.28-.46-58.93.07-1.44.63-3.23a1.592 1.587 4.836 0 1 1.32-1.11c3.18-.4 11.49-1.24 13.62 2.42 2.39 4.1 5.49 7.93 8.33 12.96q8.23 14.62 14.22 24.48a.262.257-60.701 0 0 .48-.14M354.99 1930.1a.647.642-85.894 0 1-.55-.64l.48-63.9a1.142 1.139 84.48 0 1 .92-1.12q5.88-1.14 11.91-.47a1.465 1.462-87.741 0 1 1.3 1.41q.45 14.17-.27 29.13-.13 2.67.36 19.22c.14 4.92 1.15 9.91 1.1 15.11a1.354 1.354 86.807 0 1-1.18 1.32q-7.49.96-14.07-.06M464.38 1864.04a1.206 1.203-85.825 0 1 1.06 1.23q-.49 18.29-.55 30.48c-.04 8.59.12 20.63 9.64 22.19 5.07.83 11.57.48 14.25-4.58 1.05-1.99 1.44-7.45 1.42-10.01q-.22-18.67-.1-38.21a1.054 1.053-4.475 0 1 .89-1.04q6.24-.98 12.62.1a1.03 1.029 5.995 0 1 .86 1.06c-.63 13.33.4 27.11.4 40.99.01 11.67-6.09 21.4-17.99 23.35-6.93 1.14-20.78 1.51-26.56-3.28-8.25-6.84-9.81-14.62-9.57-24.9q.52-21.86.07-35.23a1.58 1.58 82.957 0 1 1.24-1.59q5.95-1.33 12.32-.56M530.92 1865.27q.43 1.71.34 3.24-1.06 18-.85 31.49c.11 7.18.96 15.7 8.89 17.6q6.11 1.46 11.69-1.57c3.97-2.16 3.94-7.75 3.95-12.53q.07-22.09.4-38.2a1.733 1.731 2.092 0 1 1.82-1.69l11.4.57a1.764 1.762 1.865 0 1 1.67 1.78q-.23 16.84-.05 33.04c.15 14.3-2.17 29.06-19.55 31.01q-11.15 1.25-20.82-1.25-2.35-.61-5.38-3.64c-8.92-8.92-8.57-19.34-8.42-32.37q.23-19.3.19-27.43a.864.852 85.27 0 1 .71-.85q6.34-1.07 13.24.09a.978.976 87.621 0 1 .77.71M645.81 1875.48a1.26 1.26-.462 0 0-1.24 1.26v52.04a.842.839 83.532 0 1-.65.82q-6.92 1.62-12.92.65a1.742 1.733 5.441 0 1-1.47-1.77q.79-25.39.68-48.78c-.01-2.96.23-4.41-3.48-4.36-3.95.04-10.02.45-14.71-.96a2.455 2.45 3.543 0 1-1.7-1.92q-.48-2.75.44-6.29a2.615 2.608-88.89 0 1 1.98-1.91q2.46-.53 6.01-.51c11.3.05 26.52-.32 42.73.48q2.54.12 2.67 2.76.16 2.96-.44 6.38a1.882 1.868 74.219 0 1-.61 1.1q-1.05.95-4.12.96-10.54.02-13.17.05M808.49 1916.24a.517.511-81.08 0 0 .49.68q23.58-.09 29.27.05 1.64.03 3.72.38a2.479 2.469-87.218 0 1 2.06 2.28l.64 9.95a.53.511-14.228 0 1-.31.5q-1.08.47-3.1.46-28.89-.21-47.01-.07-1.92.02-3.43-.43a.813.811 6.243 0 1-.58-.72c-.5-7.08-.95-12.27 2.69-17.15q2.16-2.89 6.17-7.33 6.52-7.23 11.94-14.24 3.19-4.12 4.8-5.85c2.82-3.03 5.3-5.31 6.38-8.36a.666.66 9.628 0 0-.63-.88h-27.17a.542.541 88.314 0 1-.54-.51l-.62-9.75a1.005 1 84.506 0 1 .87-1.06q3.48-.46 6.37-.44 14.73.11 29.25.15 6.67.02 12.29.89a1.597 1.592-86.107 0 1 1.34 1.54q.11 6.96-4.44 12.37c-9.84 11.68-19.07 23.86-29.13 35.36q-.96 1.09-1.32 2.18M993.998 1928.256a2.46 2.46 0 0 1-2.473 2.447l-9.14-.047a2.46 2.46 0 0 1-2.447-2.473l.324-61.919a2.46 2.46 0 0 1 2.473-2.447l9.14.047a2.46 2.46 0 0 1 2.447 2.473z"></path><path fill="#ffcb2b" fill-rule="evenodd" d="M693.25 1881.1c2.11 4.76 4.39 8.77 5.31 13.43q.49 2.49 1.54 5.27a1.104 1.095-12.45 0 1-.96 1.49l-12.28.79a1.241 1.235-79.044 0 1-1.19-1.77q4.51-9.53 6.91-19.15a.356.356-50.063 0 1 .67-.06M194.237 1900.804l5.898-18.555a.85.85 6.119 0 1 1.604-.048l6.988 18.173a.85.85 2.425 0 1-.768 1.155l-12.887.382a.85.85-48.023 0 1-.835-1.107M1031.19 1881.29c2.25 3.61 3.97 7 4.77 11.73q.53 3.13 1.53 6.85a1.117 1.115-7.392 0 1-1.08 1.4h-10.56a1.27 1.267 10.93 0 1-1.18-1.74q4.03-10.12 5.9-18.13a.344.337-54.546 0 1 .62-.11M880.239 1882.193l6.51 18.238a.72.72 43.175 0 1-.632.96l-13.524.868a.72.72 42.462 0 1-.722-.966l7.014-19.106a.72.72 65.564 0 1 1.354.006" data-source="https://football-logos.cc"></path><!-- source: https://football-logos.cc --></svg>